<svg xmlns="http://www.w3.org/2000/svg" xmlns:xlink="http://www.w3.org/1999/xlink" xmlns:svg="http://www.w3.org/2000/svg" xmlns:rdf="http://www.w3.org/1999/02/22-rdf-syntax-ns#" xmlns:cc="http://creativecommons.org/ns#" xmlns:dc="http://purl.org/dc/elements/1.1/" version="1.1" viewBox="0 0 768 768" width="768" height="768">
<style>svg {background-color: white; }</style>"
<metadata id="metadata1">
Created by https://svgstud.io and licensed under CC-BY-SA 4.0 license. Please attribute https://svgstud.io
</metadata>
<metadata id="prompt">
A ai robot is teacher teaching a man
</metadata>
<metadata id="version">
7
</metadata>
<metadata id="metadata2">
<rdf:RDF>
<cc:Work rdf:about="">
    <cc:license rdf:resource="http://creativecommons.org/licenses/by-sa/4.0/"/>
    <dc:creator>
        <cc:Agent>
            <dc:title>https://svgstud.io</dc:title>
        </cc:Agent>
    </dc:creator>
</cc:Work>
<cc:License rdf:about="http://creativecommons.org/licenses/by-sa/4.0/">
    <cc:permits rdf:resource="http://creativecommons.org/ns#Reproduction"/>
    <cc:permits rdf:resource="http://creativecommons.org/ns#Distribution"/>
    <cc:requires rdf:resource="http://creativecommons.org/ns#Notice"/>
    <cc:requires rdf:resource="http://creativecommons.org/ns#Attribution"/>
    <cc:permits rdf:resource="http://creativecommons.org/ns#DerivativeWorks"/>
    <cc:requires rdf:resource="http://creativecommons.org/ns#ShareAlike"/>
</cc:License>
</rdf:RDF>
</metadata>
<metadata id="uid">
8dbf2cb75c6c0b1c33697efcd06a5bf8d835548ee9e35022b6badc7f5d2e05ef
</metadata>
<path stroke="#1A8850" fill="#1A8850" fill-rule="evenodd" d="M483.00,733.87C478.32,733.80 466.18,733.16 456.00,732.45C445.82,731.74 429.85,730.46 420.50,729.61C411.15,728.75 396.98,727.57 389.00,726.99C381.02,726.40 362.35,724.58 347.50,722.94C332.65,721.30 316.98,719.46 312.67,718.85C308.22,718.22 304.63,717.20 304.36,716.49C304.09,715.80 304.64,712.59 305.58,709.37C306.52,706.14 309.09,699.90 311.30,695.50C313.51,691.10 317.44,684.33 320.04,680.46C322.64,676.59 326.85,671.73 329.39,669.65C331.92,667.57 334.00,665.27 334.00,664.55C334.00,663.82 333.33,661.94 332.51,660.36C331.68,658.79 331.01,656.25 331.01,654.72C331.00,653.19 331.61,650.49 332.35,648.72C333.09,646.95 334.89,644.09 336.34,642.36C337.80,640.64 340.92,638.32 343.27,637.21C347.56,635.20 347.56,635.20 349.88,618.35C351.15,609.08 353.51,593.40 355.13,583.50C356.74,573.60 358.47,564.01 358.97,562.19C359.73,559.38 359.55,558.61 357.79,557.19C356.64,556.26 354.89,554.74 353.91,553.81C352.77,552.74 351.86,549.87 351.42,546.01C350.82,540.71 350.37,539.73 348.00,538.50C346.31,537.62 343.97,534.58 341.88,530.54C340.01,526.91 337.61,523.68 336.50,523.31C335.40,522.93 327.75,522.75 319.50,522.91C311.25,523.06 299.55,523.48 293.50,523.84C282.51,524.50 282.51,524.50 281.38,530.82C280.76,534.30 279.77,537.63 279.18,538.22C278.60,538.80 274.96,539.57 271.11,539.93C267.25,540.28 263.79,540.87 263.42,541.25C263.05,541.62 262.42,545.25 262.02,549.32C261.62,553.39 261.00,557.20 260.63,557.79C260.27,558.37 258.19,568.68 256.01,580.68C253.84,592.68 251.34,607.64 250.46,613.93C249.59,620.22 249.00,627.38 249.15,629.85C249.42,634.33 249.42,634.33 232.11,634.60C222.59,634.75 214.57,635.10 214.28,635.39C213.99,635.67 214.05,637.05 214.40,638.45C215.04,641.00 215.04,641.00 234.52,641.00C254.00,641.00 254.00,641.00 254.00,644.63C254.00,646.63 253.49,649.98 252.86,652.07C251.72,655.88 251.72,655.88 258.66,662.69C262.47,666.44 267.50,672.75 269.83,676.73C272.16,680.71 275.36,686.83 276.93,690.35C278.51,693.86 280.34,699.16 281.00,702.12C281.66,705.08 282.05,708.61 281.85,709.98C281.56,712.05 280.76,712.58 277.00,713.22C274.52,713.65 261.93,715.37 249.00,717.05C227.91,719.79 224.47,720.00 215.50,719.09C210.00,718.53 198.53,717.60 190.00,717.03C181.47,716.46 161.22,715.08 145.00,713.97C128.78,712.86 102.90,710.83 87.50,709.46C72.10,708.09 55.95,706.31 51.61,705.51C47.27,704.71 43.53,703.86 43.29,703.62C43.05,703.38 43.67,702.93 44.67,702.62C45.68,702.31 50.33,701.41 55.00,700.60C59.67,699.80 70.25,698.42 78.50,697.53C86.75,696.64 94.48,695.71 95.67,695.46C97.12,695.15 98.25,693.75 99.06,691.25C99.72,689.19 102.00,684.56 104.12,680.96C106.24,677.36 111.75,670.39 116.35,665.46C121.45,660.01 127.16,655.07 130.94,652.84C135.01,650.44 139.45,648.79 143.83,648.05C147.50,647.42 151.31,646.67 152.29,646.38C153.54,646.00 153.90,645.25 153.46,643.88C153.12,642.80 152.85,639.25 152.87,635.99C152.88,632.73 153.38,629.15 153.98,628.03C154.58,626.91 156.07,625.99 157.29,625.99C158.50,625.98 160.56,625.69 161.86,625.34C164.23,624.71 164.23,624.71 163.85,590.89C163.56,565.87 163.14,556.74 162.23,555.83C161.56,555.16 159.54,554.13 157.76,553.55C155.33,552.76 154.36,551.75 153.88,549.50C153.52,547.85 153.18,544.19 153.12,541.37C153.02,536.94 152.69,536.15 150.75,535.63C149.51,535.30 147.14,535.02 145.47,535.01C143.81,535.01 141.44,534.30 140.22,533.44C138.11,531.97 138.00,531.20 138.00,518.57C138.00,509.12 137.64,504.95 136.75,504.23C136.06,503.67 131.11,502.74 125.75,502.17C120.39,501.59 115.55,500.84 115.00,500.50C114.40,500.13 113.99,493.56 113.98,484.19C113.98,475.56 113.63,467.97 113.23,467.33C112.82,466.69 110.91,466.01 108.99,465.83C105.66,465.52 105.49,465.31 105.19,461.25C104.95,457.94 105.23,457.00 106.44,457.00C107.30,457.00 108.00,457.40 108.00,457.89C108.00,458.38 108.79,459.09 109.75,459.47C110.71,459.85 150.65,460.55 198.50,461.03C246.35,461.51 325.71,461.54 374.87,461.09C464.23,460.27 464.23,460.27 470.69,463.63C474.24,465.49 477.71,467.00 478.39,467.00C479.08,467.00 481.54,468.63 483.87,470.62C486.19,472.61 487.87,474.46 487.60,474.74C487.32,475.01 485.27,473.68 483.04,471.77C479.35,468.61 478.26,468.24 470.86,467.67C466.40,467.32 462.35,467.28 461.87,467.58C461.39,467.88 461.00,468.98 461.00,470.02C461.00,471.07 461.87,472.40 462.93,472.96C464.00,473.53 467.40,474.00 470.49,474.00C474.01,474.00 475.89,474.38 475.50,475.01C475.15,475.56 475.58,476.28 476.44,476.61C477.30,476.94 478.00,477.79 478.00,478.50C478.00,479.20 476.42,480.07 474.48,480.44C472.55,480.80 470.50,480.81 469.93,480.45C469.35,480.10 467.79,480.09 466.44,480.42C464.90,480.81 464.00,481.75 464.00,482.98C464.00,484.05 464.87,485.40 465.93,485.96C467.00,486.53 469.22,487.00 470.87,487.00C472.52,487.00 475.10,487.47 476.60,488.04C478.60,488.80 479.03,489.37 478.21,490.19C477.60,490.80 474.40,491.36 471.10,491.43C467.80,491.50 464.79,491.88 464.41,492.26C464.03,492.64 464.32,493.68 465.06,494.57C466.02,495.73 467.38,496.04 469.77,495.65C471.63,495.35 474.15,495.49 475.39,495.96C476.63,496.43 479.40,496.97 481.53,497.15C485.42,497.49 485.42,497.49 486.60,491.99C487.24,488.97 488.32,485.02 488.99,483.22C489.67,481.41 489.99,479.05 489.70,477.97C489.36,476.66 489.69,476.00 490.69,476.00C491.51,476.00 493.33,475.10 494.73,474.00C496.13,472.90 498.71,472.00 500.47,472.00C502.23,472.00 509.71,473.52 517.09,475.37C524.46,477.23 533.80,479.33 537.83,480.05C544.10,481.16 545.30,481.14 546.07,479.92C546.56,479.14 547.02,474.90 547.08,470.50C547.15,466.10 547.54,460.02 547.96,457.00C548.38,453.98 548.78,451.97 548.86,452.54C548.94,453.11 549.69,458.74 550.53,465.04C551.37,471.34 552.49,477.51 553.01,478.75C553.53,479.99 554.69,481.00 555.59,481.00C557.07,481.00 557.19,478.70 556.86,457.25C556.66,444.19 556.88,426.64 557.35,418.25C558.20,403.00 558.20,403.00 555.12,403.00C552.64,403.00 551.91,402.50 551.39,400.41C551.03,398.98 551.24,396.15 551.85,394.10C552.46,392.05 554.10,389.32 555.48,388.02C556.87,386.72 558.00,386.12 558.00,386.70C558.00,387.28 557.33,388.32 556.50,389.00C555.67,389.68 555.00,391.31 555.00,392.62C555.00,394.00 555.59,395.00 556.41,395.00C557.19,395.00 558.99,393.62 560.41,391.92C561.83,390.23 563.05,388.09 563.12,387.17C563.18,386.25 563.16,384.93 563.07,384.24C562.98,383.54 563.60,381.98 564.45,380.76C565.30,379.55 566.00,376.66 566.00,374.35C566.00,371.27 565.30,369.32 563.34,367.00C560.69,363.84 560.69,363.84 551.48,364.53C546.41,364.91 540.93,364.92 539.30,364.57C537.28,364.12 535.84,362.89 534.80,360.70C533.96,358.94 532.92,355.92 532.51,354.00C532.09,352.07 531.13,349.61 530.37,348.53C529.62,347.44 529.00,345.56 529.00,344.34C529.00,342.26 529.17,342.21 531.63,343.48C533.08,344.23 536.48,345.15 539.18,345.53C542.96,346.05 544.04,346.58 543.80,347.81C543.62,348.71 542.06,349.71 540.25,350.08C538.47,350.45 536.33,351.31 535.51,351.99C534.68,352.68 534.00,354.07 534.00,355.08C534.00,356.09 534.98,357.84 536.19,358.96C537.85,360.51 539.72,361.00 544.00,361.00C547.09,361.00 553.20,360.07 557.56,358.93C561.93,357.80 567.33,355.80 569.57,354.50C571.81,353.19 575.10,350.64 576.89,348.81C579.36,346.29 580.01,344.90 579.59,343.00C579.29,341.62 578.78,339.55 578.44,338.39C577.91,336.54 578.35,336.22 582.02,335.72C584.38,335.41 587.30,334.15 588.73,332.83C590.12,331.55 591.87,329.06 592.62,327.30C593.56,325.10 593.70,323.34 593.07,321.68C592.56,320.35 590.93,318.30 589.44,317.13C587.95,315.96 585.68,315.00 584.39,315.00C582.81,315.00 581.56,315.96 580.53,317.95C579.69,319.57 577.38,322.14 575.39,323.65C571.95,326.27 571.71,326.32 570.44,324.59C569.71,323.59 568.84,320.24 568.50,317.14C568.16,314.04 567.23,309.67 566.42,307.42C565.62,305.18 563.57,301.92 561.86,300.17C560.16,298.43 557.80,297.00 556.63,296.99C555.46,296.99 553.15,296.11 551.50,295.03C549.85,293.96 547.14,290.48 545.47,287.29C543.81,284.11 541.82,281.50 541.06,281.50C540.29,281.50 537.95,284.31 535.85,287.75C533.74,291.19 531.75,295.70 531.42,297.78C531.05,300.08 531.46,303.78 532.47,307.25C534.04,312.66 534.03,313.14 532.22,317.22C531.18,319.57 529.58,322.12 528.66,322.87C527.20,324.08 527.00,323.98 527.00,322.09C527.00,320.90 526.26,318.80 525.36,317.42C523.92,315.24 523.88,314.39 525.02,310.95C526.03,307.87 526.06,306.50 525.14,304.75C524.49,303.51 522.84,300.97 521.48,299.10C519.65,296.60 519.00,294.43 519.00,290.89C519.00,288.24 519.95,283.52 521.12,280.41C522.29,277.29 524.82,272.99 526.74,270.86C528.67,268.73 533.00,264.90 536.37,262.36C539.74,259.81 545.27,256.48 548.65,254.95C552.04,253.42 558.11,251.20 562.15,250.02C566.51,248.75 573.81,247.64 580.07,247.30C586.44,246.96 593.36,247.21 597.46,247.92C601.21,248.57 607.09,250.38 610.53,251.94C613.96,253.50 619.45,256.59 622.73,258.82C626.00,261.04 630.97,265.20 633.77,268.05C636.56,270.91 640.23,275.83 641.91,278.98C643.59,282.14 645.68,287.48 646.54,290.86C647.41,294.23 648.48,302.50 648.94,309.24C649.69,320.41 650.08,322.16 653.38,328.97C656.00,334.39 657.00,337.77 657.00,341.26C657.00,344.10 656.18,347.68 655.01,349.98C653.91,352.13 651.33,355.53 649.26,357.55C647.19,359.56 643.38,362.29 640.78,363.60C638.19,364.92 633.02,366.44 629.28,366.97C625.55,367.51 619.56,367.68 615.97,367.35C610.80,366.88 609.18,367.07 608.17,368.29C607.12,369.56 607.23,370.15 608.81,371.66C609.85,372.67 611.56,374.85 612.59,376.50C614.25,379.15 614.26,379.34 612.73,378.13C611.57,377.21 609.27,376.90 605.75,377.19C602.86,377.43 597.91,378.81 594.74,380.26C591.57,381.71 586.29,384.97 583.00,387.50C579.70,390.04 576.76,393.11 576.45,394.34C576.14,395.57 576.36,397.83 576.94,399.35C577.53,400.88 578.01,403.34 578.02,404.82C578.02,406.29 578.39,408.07 578.84,408.77C579.41,409.67 581.07,408.27 584.48,404.03C587.13,400.72 591.69,396.17 594.60,393.92C597.54,391.65 603.14,388.71 607.20,387.31C611.21,385.92 614.99,384.39 615.59,383.90C616.19,383.42 616.98,383.31 617.34,383.68C617.70,384.04 618.00,385.07 618.00,385.96C618.00,387.04 619.49,387.98 622.44,388.77C624.89,389.43 628.47,391.35 630.41,393.05C632.34,394.75 634.81,397.57 635.89,399.32C637.72,402.28 638.56,402.63 647.93,404.40C653.47,405.44 658.52,406.92 659.15,407.68C660.03,408.74 659.67,412.55 657.66,423.78C656.21,431.88 653.88,449.07 652.48,462.00C651.07,474.93 648.58,497.20 646.94,511.50C645.30,525.80 643.45,541.19 642.83,545.70C642.05,551.43 641.23,554.13 640.11,554.67C639.22,555.10 616.02,555.51 588.54,555.59C552.39,555.70 538.48,556.05 538.21,556.87C537.99,557.54 539.18,558.06 541.17,558.14C543.00,558.22 571.05,558.56 603.50,558.89C662.50,559.50 662.50,559.50 662.80,564.09C662.98,566.96 662.61,569.08 661.80,569.75C661.08,570.33 657.89,571.30 654.70,571.88C651.52,572.47 648.22,573.64 647.38,574.47C646.54,575.31 645.20,576.00 644.39,576.00C643.58,576.00 641.20,576.88 639.09,577.95C636.98,579.03 630.64,580.85 625.00,582.00C619.36,583.15 613.01,584.98 610.89,586.06C608.77,587.14 606.39,589.03 605.61,590.26C604.83,591.49 603.88,594.02 603.49,595.88C603.05,597.99 602.50,598.81 602.03,598.05C601.52,597.23 601.08,597.60 600.67,599.17C600.33,600.45 600.34,620.69 600.69,644.13C601.32,686.50 601.33,686.77 603.41,686.78C604.56,686.78 608.83,687.55 612.91,688.47C616.99,689.39 623.09,691.15 626.47,692.38C629.85,693.61 635.56,696.26 639.15,698.27C642.75,700.28 646.27,702.62 646.97,703.46C647.67,704.31 647.88,705.00 647.43,705.00C646.98,705.00 644.96,703.86 642.94,702.46C640.27,700.61 636.22,699.39 628.02,697.96C621.82,696.88 614.32,696.00 611.35,696.00C607.39,696.00 605.78,696.42 605.35,697.54C605.02,698.39 604.97,699.30 605.23,699.56C605.49,699.82 611.98,700.43 619.66,700.91C633.17,701.76 633.87,701.91 641.56,705.78C645.93,707.98 650.36,710.73 651.40,711.89C652.45,713.05 653.92,714.00 654.65,714.00C655.39,714.00 656.00,713.58 656.00,713.08C656.00,712.57 654.82,710.75 653.38,709.03C651.93,707.32 650.93,705.73 651.16,705.51C651.38,705.28 654.70,705.51 658.53,706.02C662.37,706.52 673.38,707.66 683.00,708.53C692.62,709.41 701.29,710.36 702.25,710.63C703.21,710.91 704.00,711.54 704.00,712.03C704.00,712.52 702.31,713.38 700.24,713.94C698.17,714.49 689.28,715.86 680.49,716.98C671.69,718.10 663.83,719.30 663.00,719.64C662.17,719.98 649.35,720.61 634.50,721.03C616.85,721.54 601.79,722.56 591.00,723.97C581.92,725.16 572.80,726.78 570.73,727.57C568.30,728.49 563.12,729.00 556.18,729.00C550.25,729.00 533.27,730.12 518.45,731.50C503.63,732.87 487.68,733.94 483.00,733.87zM487.00,723.86C489.86,723.97 492.06,722.83 499.00,717.60C503.68,714.08 511.10,707.49 515.50,702.94C519.90,698.40 522.96,694.50 522.31,694.28C521.65,694.05 520.13,694.39 518.94,695.03C517.74,695.67 513.55,698.96 509.62,702.35C505.70,705.73 500.01,710.56 496.99,713.09C493.97,715.61 490.25,718.48 488.73,719.46C486.30,721.03 484.61,721.17 474.98,720.54C467.86,720.08 464.00,720.18 464.00,720.83C464.00,721.38 467.49,722.12 471.75,722.47C476.01,722.82 480.40,723.24 481.50,723.42C482.60,723.59 485.08,723.79 487.00,723.86zM560.86,722.00C561.90,722.00 563.92,720.28 565.41,718.13C566.89,716.00 571.56,710.88 575.80,706.77C580.03,702.65 586.02,697.86 589.11,696.13C592.20,694.39 595.53,692.08 596.51,690.99C598.26,689.06 598.22,688.97 595.15,687.90C592.00,686.80 592.00,686.80 592.00,641.55C592.00,596.30 592.00,596.30 589.75,593.02C588.51,591.22 585.66,588.42 583.42,586.81C580.42,584.67 577.49,583.64 572.42,582.97C568.61,582.46 560.01,581.39 553.29,580.59C546.57,579.79 539.44,578.36 537.45,577.41C534.36,575.95 533.68,575.90 532.92,577.09C532.43,577.87 532.02,597.53 532.02,620.78C532.00,657.43 531.80,663.14 530.50,663.64C529.37,664.07 529.00,665.90 529.00,671.10C529.00,677.42 529.28,678.35 532.49,682.56C534.41,685.07 536.64,689.46 537.45,692.31C538.26,695.17 539.43,700.52 540.06,704.21C540.92,709.33 541.64,711.07 543.10,711.53C544.14,711.86 545.90,711.85 547.00,711.50C548.36,711.07 549.00,709.99 549.00,708.11C549.00,706.52 549.96,704.47 551.25,703.29C552.49,702.16 554.97,700.49 556.76,699.59C558.55,698.68 564.40,696.80 569.76,695.41C575.12,694.02 581.45,691.75 583.83,690.35C586.21,688.96 588.32,687.99 588.52,688.19C588.72,688.39 585.26,691.23 580.82,694.51C576.38,697.79 570.85,702.72 568.53,705.48C566.21,708.24 563.11,712.29 561.65,714.48C560.19,716.67 559.00,719.26 559.00,720.23C559.00,721.29 559.75,722.00 560.86,722.00zM459.12,713.86C460.55,713.94 462.80,713.16 464.12,712.14C465.43,711.12 468.07,709.46 470.00,708.44C473.50,706.60 473.50,706.60 470.00,705.88C468.07,705.48 461.10,704.01 454.50,702.61C447.90,701.21 442.16,700.05 441.75,700.03C441.34,700.01 441.00,700.67 441.00,701.48C441.00,702.30 442.01,703.20 443.25,703.49C444.49,703.78 449.05,704.68 453.40,705.49C457.74,706.30 461.54,707.20 461.84,707.50C462.14,707.80 461.63,708.80 460.71,709.72C459.23,711.20 457.95,711.27 449.51,710.35C442.01,709.54 439.47,708.85 437.65,707.14C435.36,704.99 435.32,704.99 433.57,706.93C432.59,708.00 431.99,709.47 432.23,710.19C432.52,711.08 436.45,711.85 444.58,712.61C451.14,713.21 457.68,713.78 459.12,713.86zM268.80,704.52C269.55,704.23 271.59,703.99 273.33,703.98C275.07,703.98 277.18,703.52 278.00,702.97C279.30,702.10 279.24,701.76 277.56,700.48C276.49,699.67 273.94,699.00 271.89,699.00C269.84,699.00 267.45,699.27 266.58,699.61C265.71,699.94 265.00,700.75 265.00,701.41C265.00,702.06 265.55,703.15 266.22,703.82C266.89,704.49 268.06,704.81 268.80,704.52zM382.50,704.78C388.00,704.83 395.74,704.55 399.70,704.15C403.66,703.76 407.23,703.10 407.64,702.69C408.05,702.29 407.73,701.32 406.94,700.55C405.78,699.41 403.01,699.28 392.50,699.84C383.61,700.32 369.67,699.93 348.39,698.62C331.29,697.57 316.10,697.01 314.64,697.37C312.91,697.81 312.00,698.71 312.00,700.00C312.00,701.22 312.86,702.16 314.25,702.47C315.49,702.75 329.10,703.37 344.50,703.84C359.90,704.30 377.00,704.73 382.50,704.78zM195.61,704.00C195.88,704.00 197.41,703.32 199.01,702.49C200.99,701.47 202.30,699.72 203.11,697.04C204.11,693.67 204.04,692.71 202.59,690.49C201.65,689.06 200.23,687.64 199.44,687.34C198.65,687.03 196.86,687.07 195.47,687.42C194.08,687.77 192.04,689.50 190.95,691.28C189.69,693.31 189.16,695.43 189.52,697.00C189.82,698.38 191.21,700.51 192.59,701.75C193.98,702.99 195.33,704.00 195.61,704.00zM236.73,703.28C240.45,703.11 247.21,702.71 251.75,702.39C256.29,702.08 260.00,701.40 260.00,700.89C260.00,700.37 258.76,699.47 257.25,698.88C255.70,698.28 249.94,697.97 244.00,698.16C234.05,698.48 233.50,698.39 233.50,696.50C233.50,694.65 234.26,694.48 243.49,694.21C248.98,694.05 253.88,693.52 254.37,693.03C254.89,692.51 253.71,689.11 251.51,684.82C249.45,680.79 246.05,675.20 243.96,672.40C241.87,669.59 237.93,665.00 235.20,662.20C232.47,659.40 227.45,655.31 224.05,653.11C220.66,650.92 215.54,648.34 212.69,647.38C209.49,646.31 205.00,645.71 201.00,645.83C197.43,645.93 193.26,646.28 191.75,646.59C190.24,646.90 189.00,647.50 189.00,647.92C189.00,648.34 191.66,650.74 194.91,653.27C198.16,655.79 203.67,661.21 207.16,665.32C210.65,669.42 215.00,675.28 216.84,678.34C218.68,681.39 221.99,688.08 224.19,693.20C226.39,698.31 228.60,702.75 229.08,703.05C229.57,703.35 233.01,703.45 236.73,703.28zM436.15,703.41C436.53,703.17 437.59,700.73 438.51,697.98C439.42,695.23 440.93,692.58 441.85,692.08C442.78,691.58 446.41,690.21 449.92,689.03C453.43,687.85 458.93,685.55 462.14,683.93C467.98,680.98 467.98,680.98 469.99,682.99C471.10,684.10 472.90,685.00 474.00,685.00C475.10,685.00 476.00,684.53 476.00,683.95C476.00,683.38 474.58,682.31 472.84,681.58C469.69,680.25 469.69,680.25 472.59,678.37C474.19,677.34 476.94,675.07 478.70,673.33C480.46,671.59 482.82,669.87 483.95,669.52C485.08,669.16 486.00,668.33 485.99,667.68C485.99,667.03 485.28,665.15 484.42,663.50C483.37,661.48 482.55,655.58 481.92,645.50C481.40,637.25 480.08,620.79 478.98,608.93C477.88,597.07 476.06,580.42 474.92,571.93C473.79,563.44 472.62,552.20 472.31,546.94C471.86,539.22 472.07,536.77 473.40,534.19C474.31,532.43 476.73,529.89 478.78,528.53C480.83,527.18 485.43,525.40 489.00,524.58C492.57,523.75 501.33,522.36 508.46,521.48C515.59,520.61 523.63,519.42 526.31,518.84C529.00,518.26 530.81,517.44 530.35,517.00C529.88,516.56 525.00,515.47 519.50,514.57C514.00,513.66 505.13,512.56 499.78,512.11C494.20,511.65 489.37,510.72 488.43,509.94C487.53,509.19 486.41,507.59 485.95,506.37C485.31,504.69 483.76,503.88 479.37,502.97C476.22,502.32 471.94,501.18 469.86,500.45C466.53,499.28 465.44,499.35 460.57,501.06C457.33,502.20 452.42,503.00 448.68,503.00C445.17,503.00 438.82,503.29 434.56,503.65C429.00,504.12 426.65,504.74 426.24,505.83C425.92,506.66 426.63,509.04 427.83,511.12C429.32,513.71 430.00,516.58 430.00,520.27C430.00,523.22 429.31,527.97 428.46,530.82C427.61,533.67 425.22,540.23 423.14,545.39C421.07,550.55 418.22,556.14 416.81,557.81C415.41,559.48 412.22,566.39 409.73,573.17C407.24,579.95 403.09,592.25 400.52,600.50C397.95,608.75 393.72,622.25 391.12,630.50C386.76,644.34 386.40,646.27 386.45,655.48C386.52,665.46 386.52,665.46 395.51,667.99C400.45,669.38 405.87,671.27 407.55,672.18C409.23,673.10 412.40,675.80 414.60,678.18C416.80,680.57 420.49,685.31 422.80,688.71C425.11,692.11 427.00,695.13 427.00,695.42C427.00,695.71 425.61,696.67 423.91,697.55C422.21,698.43 420.70,699.00 420.57,698.82C420.43,698.65 418.34,694.94 415.91,690.59C413.48,686.24 409.41,680.53 406.86,677.89C404.29,675.23 400.95,672.83 399.36,672.51C397.79,672.19 394.48,671.27 392.00,670.47C389.52,669.67 383.00,668.74 377.50,668.41C369.46,667.92 367.11,668.10 365.52,669.31C363.65,670.72 363.83,670.85 368.52,671.55C371.26,671.96 376.60,673.35 380.39,674.64C384.19,675.93 389.14,678.06 391.40,679.39C393.65,680.71 396.36,682.74 397.41,683.90C398.45,685.05 399.70,686.00 400.17,686.00C400.64,686.00 400.72,684.13 400.36,681.85C399.82,678.45 399.95,677.85 401.09,678.55C401.85,679.03 403.61,680.72 404.99,682.33C406.37,683.93 409.77,688.90 412.54,693.37C417.59,701.50 417.59,701.50 424.77,701.69C428.72,701.79 432.74,702.32 433.71,702.86C434.67,703.39 435.77,703.64 436.15,703.41zM562.95,702.65C564.84,702.28 567.43,701.29 568.70,700.46C569.96,699.63 571.00,698.51 571.00,697.98C571.00,697.44 570.30,697.00 569.45,697.00C568.60,697.00 566.65,697.65 565.13,698.43C563.60,699.22 561.71,700.65 560.93,701.60C559.61,703.21 559.76,703.29 562.95,702.65zM195.02,701.00C194.44,701.00 193.44,699.88 192.82,698.50C191.96,696.62 191.97,695.36 192.85,693.43C193.67,691.64 194.66,690.96 196.15,691.18C197.31,691.36 198.93,692.49 199.73,693.70C201.06,695.72 200.97,696.12 198.64,698.45C197.24,699.85 195.61,701.00 195.02,701.00zM129.25,697.86C132.37,697.98 133.00,697.67 133.00,696.02C133.00,694.78 132.15,693.85 130.75,693.53C129.51,693.25 124.69,692.56 120.03,692.01C115.37,691.45 109.84,691.00 107.74,691.00C105.21,691.00 103.74,691.52 103.34,692.57C103.01,693.43 103.13,694.53 103.62,695.02C104.11,695.51 109.23,696.31 115.00,696.81C120.78,697.31 127.19,697.78 129.25,697.86zM386.87,696.90C388.87,696.85 392.71,696.29 395.42,695.65C398.12,695.02 400.50,694.00 400.70,693.40C400.90,692.79 398.91,689.73 396.28,686.60C393.28,683.03 389.64,680.01 386.50,678.49C383.75,677.16 377.03,675.32 371.57,674.41C365.12,673.33 358.62,672.92 353.02,673.23C347.23,673.56 342.79,674.44 339.45,675.91C336.73,677.11 332.81,679.74 330.75,681.75C328.69,683.76 327.00,685.76 327.00,686.20C327.00,686.64 332.06,687.00 338.25,687.01C344.44,687.01 354.65,687.47 360.95,688.03C370.05,688.84 373.25,689.54 376.53,691.46C378.80,692.80 381.24,694.59 381.95,695.44C382.72,696.37 384.71,696.96 386.87,696.90zM165.35,693.00C166.44,693.00 168.17,692.26 169.17,691.35C170.18,690.43 171.00,689.02 171.00,688.19C171.00,686.95 170.66,687.00 169.04,688.46C167.70,689.68 166.27,690.03 164.51,689.59C163.09,689.24 161.43,687.85 160.82,686.51C159.94,684.58 160.06,683.56 161.38,681.54C162.30,680.14 163.90,679.00 164.95,679.00C166.00,679.00 167.79,680.19 168.94,681.65C170.09,683.11 171.30,684.03 171.63,683.70C171.97,683.37 171.96,681.98 171.62,680.62C171.28,679.25 170.29,677.43 169.43,676.57C168.56,675.71 166.96,675.00 165.86,675.00C164.77,675.00 163.03,675.45 162.01,675.99C160.99,676.54 159.64,678.56 159.01,680.48C158.37,682.40 158.16,684.99 158.54,686.23C158.92,687.48 160.16,689.51 161.29,690.75C162.42,691.99 164.25,693.00 165.35,693.00zM264.77,691.19C264.99,690.52 264.37,687.42 263.39,684.30C262.41,681.18 259.56,674.55 257.05,669.56C253.18,661.86 251.86,660.15 248.27,658.19C245.78,656.82 242.81,656.00 241.05,656.19C238.06,656.50 238.06,656.50 245.60,665.00C249.75,669.67 255.67,677.76 258.75,682.96C261.84,688.16 264.54,691.87 264.77,691.19zM516.22,687.18C517.71,686.96 519.41,686.21 519.99,685.52C520.56,684.82 520.75,683.50 520.40,682.59C520.04,681.67 518.48,680.27 516.93,679.46C515.37,678.66 513.43,678.00 512.61,678.00C511.79,678.00 509.51,678.94 507.56,680.10C505.60,681.25 504.00,682.55 504.00,682.98C504.00,683.40 504.68,684.32 505.51,685.01C506.33,685.69 508.47,686.55 510.25,686.92C512.04,687.28 514.72,687.40 516.22,687.18zM117.03,683.84C118.42,683.93 120.56,683.30 121.78,682.44C123.00,681.59 124.00,680.24 124.00,679.44C124.00,678.34 122.55,678.00 117.93,678.00C114.60,678.00 111.00,678.47 109.93,679.04C108.87,679.60 108.00,680.70 108.00,681.47C108.00,682.30 109.32,683.04 111.25,683.28C113.04,683.50 115.64,683.75 117.03,683.84zM494.82,680.96C495.74,680.94 497.78,679.88 499.34,678.61C501.32,676.98 502.07,675.56 501.84,673.89C501.55,671.83 500.95,671.50 497.57,671.50C494.05,671.50 493.56,671.81 492.84,674.50C492.39,676.15 492.28,678.29 492.58,679.25C492.89,680.21 493.89,680.98 494.82,680.96zM183.20,679.00C183.64,679.00 184.00,678.21 183.99,677.25C183.99,676.29 183.55,673.91 183.00,671.96C182.46,670.01 180.55,667.01 178.76,665.30C176.97,663.58 173.73,661.70 171.56,661.12C169.39,660.53 167.43,660.23 167.21,660.45C166.99,660.67 168.13,661.53 169.73,662.36C171.34,663.19 174.26,665.65 176.22,667.82C178.18,669.99 180.38,673.40 181.09,675.39C181.81,677.37 182.76,679.00 183.20,679.00zM134.51,673.83C139.52,674.00 139.52,674.00 143.68,665.00C147.83,656.00 147.83,656.00 143.17,656.02C140.60,656.04 136.49,656.51 134.04,657.08C131.58,657.64 127.63,659.70 125.24,661.66C122.86,663.61 120.29,666.17 119.52,667.35C118.76,668.53 117.99,670.17 117.82,671.00C117.57,672.15 118.88,672.63 123.50,673.08C126.80,673.40 131.75,673.74 134.51,673.83zM190.21,665.00C190.64,665.00 191.00,664.03 191.00,662.84C191.00,661.66 189.82,659.14 188.37,657.24C186.92,655.34 183.43,652.71 180.62,651.40C177.80,650.09 174.26,649.02 172.75,649.01C171.24,649.00 170.00,649.34 170.00,649.75C170.00,650.16 172.40,651.75 175.32,653.28C178.25,654.81 182.61,658.07 185.03,660.53C187.44,662.99 189.77,665.00 190.21,665.00zM369.50,660.82C373.35,660.90 377.17,660.55 377.99,660.03C379.14,659.30 379.21,658.81 378.30,657.90C377.59,657.19 372.43,656.53 365.29,656.23C355.30,655.82 353.25,655.99 352.14,657.33C351.01,658.69 351.15,658.99 353.16,659.44C354.45,659.73 357.07,660.12 359.00,660.32C360.93,660.52 365.65,660.75 369.50,660.82zM340.48,657.00C340.75,657.00 342.13,654.70 343.56,651.88C346.15,646.76 346.15,646.76 361.61,647.18C377.06,647.59 377.06,647.59 377.62,645.05C377.92,643.65 378.85,640.02 379.67,637.00C380.49,633.98 384.72,620.25 389.07,606.50C393.41,592.75 398.34,577.94 400.02,573.58C402.41,567.39 402.80,565.49 401.79,564.85C401.08,564.40 398.93,564.02 397.00,564.01C395.07,564.00 389.79,563.70 385.25,563.35C377.00,562.70 377.00,562.70 375.81,566.10C374.63,569.50 374.63,569.50 373.79,566.25C373.20,564.00 372.35,563.00 371.02,563.00C369.65,563.00 368.79,564.08 368.04,566.75C367.46,568.81 365.85,579.05 364.47,589.50C363.08,599.95 361.05,614.85 359.95,622.60C358.85,630.36 358.23,637.44 358.58,638.35C358.93,639.26 359.62,640.00 360.11,640.00C360.60,640.00 361.00,640.45 361.00,641.00C361.00,641.59 357.34,642.00 352.02,642.00C343.81,642.00 342.92,642.19 341.59,644.25C340.79,645.49 340.03,647.62 339.91,649.00C339.79,650.38 339.76,652.74 339.84,654.25C339.93,655.76 340.22,657.00 340.48,657.00zM511.70,657.00C512.04,657.00 512.03,638.89 511.68,616.75C511.33,594.61 510.76,575.49 510.41,574.25C510.05,573.01 509.14,572.00 508.38,572.00C507.32,572.00 507.00,573.89 507.00,580.25C507.00,584.79 507.68,602.45 508.52,619.50C509.36,636.55 510.28,651.96 510.57,653.75C510.86,655.54 511.37,657.00 511.70,657.00zM206.57,640.95C207.30,640.34 208.38,638.38 208.97,636.59C209.68,634.43 211.12,632.87 213.27,631.92C216.23,630.62 216.57,630.00 217.28,624.50C217.71,621.20 217.93,604.96 217.78,588.40C217.56,564.68 217.21,557.95 216.13,556.65C215.37,555.74 213.71,555.00 212.42,555.00C210.57,555.00 209.98,554.34 209.57,551.75C209.28,549.96 208.92,547.38 208.77,546.01C208.62,544.61 207.76,543.38 206.81,543.20C205.53,542.95 204.97,543.81 204.52,546.69C204.20,548.78 203.00,552.37 201.87,554.66C200.75,556.94 199.04,559.02 198.07,559.27C196.77,559.61 195.92,561.83 194.72,568.11C193.84,572.73 192.59,580.73 191.95,585.90C191.31,591.08 190.72,601.88 190.65,609.90C190.50,624.50 190.50,624.50 194.00,624.77C195.93,624.92 198.51,625.26 199.75,625.54C200.99,625.81 202.00,626.37 202.00,626.77C202.00,627.17 200.31,627.55 198.25,627.62C196.19,627.68 186.31,627.91 176.29,628.13C163.59,628.40 157.70,628.90 156.84,629.76C155.85,630.75 155.85,631.25 156.84,632.24C157.72,633.12 164.24,633.59 179.55,633.85C195.58,634.13 201.40,633.91 202.51,632.99C203.78,631.94 204.00,632.28 204.00,635.30C204.00,637.24 204.28,639.56 204.62,640.44C205.08,641.66 205.56,641.78 206.57,640.95zM239.06,630.98C239.92,630.99 241.43,630.41 242.41,629.69C243.69,628.75 244.90,624.77 246.60,615.94C247.92,609.10 249.90,597.29 251.00,589.70C252.10,582.11 253.00,573.23 253.00,569.95C253.00,566.68 252.59,564.00 252.09,564.00C251.58,564.00 249.74,569.96 248.00,577.25C246.25,584.54 244.48,591.40 244.06,592.50C243.57,593.79 242.86,590.25 242.07,582.50C241.40,575.90 240.65,569.49 240.41,568.25C240.13,566.86 239.23,566.00 238.07,566.00C236.44,566.00 236.08,567.03 235.50,573.25C235.14,577.24 234.76,591.43 234.67,604.78C234.53,625.40 234.73,629.20 236.00,630.01C236.82,630.54 238.20,630.98 239.06,630.98zM226.32,626.73C227.18,626.44 227.58,618.86 227.80,598.92C227.97,583.84 227.82,568.64 227.46,565.14C227.03,560.88 226.49,559.11 225.81,559.79C225.21,560.39 224.58,572.25 224.26,589.17C223.95,604.78 224.03,619.71 224.42,622.34C224.87,625.33 225.58,626.97 226.32,626.73zM172.91,625.00C173.34,625.00 173.98,619.71 174.33,613.25C174.67,606.79 174.67,591.92 174.32,580.21C173.97,568.50 173.25,558.66 172.73,558.33C172.20,558.01 171.35,558.36 170.82,559.12C170.23,559.96 170.04,572.64 170.32,591.67C170.57,608.81 171.08,623.32 171.45,623.92C171.82,624.51 172.47,625.00 172.91,625.00zM184.04,625.00C184.60,625.00 185.54,623.76 186.13,622.25C186.90,620.30 186.92,611.30 186.22,591.20C185.67,575.63 184.95,562.61 184.61,562.28C184.28,561.94 183.66,562.00 183.25,562.42C182.84,562.83 182.34,575.96 182.15,591.61C181.95,607.25 182.07,621.16 182.42,622.52C182.76,623.89 183.49,625.00 184.04,625.00zM598.03,576.86C609.87,576.94 623.34,576.53 627.96,575.95C632.59,575.37 637.08,574.44 637.94,573.88C639.02,573.18 636.41,573.04 629.50,573.43C624.00,573.74 606.26,573.99 590.08,573.99C573.90,574.00 560.94,574.27 561.26,574.60C561.59,574.92 565.15,575.54 569.18,575.96C573.21,576.38 586.19,576.79 598.03,576.86zM409.50,551.86C410.60,551.92 412.08,551.60 412.79,551.15C413.49,550.70 415.35,545.87 416.92,540.42C418.48,534.96 420.33,527.95 421.02,524.84C421.71,521.72 422.01,518.46 421.67,517.59C421.18,516.31 419.37,516.00 412.28,515.99C407.45,515.99 401.78,515.51 399.68,514.93C397.58,514.34 394.20,512.37 392.17,510.53C390.14,508.70 387.81,507.10 386.99,506.98C386.17,506.86 384.73,506.82 383.80,506.88C382.63,506.96 381.91,508.18 381.52,510.75C381.20,512.81 380.47,516.98 379.90,520.00C379.32,523.02 376.63,530.10 373.93,535.71C371.22,541.33 369.00,546.39 369.00,546.94C369.00,547.50 370.04,548.22 371.31,548.54C372.59,548.86 381.25,549.72 390.56,550.44C399.88,551.16 408.40,551.80 409.50,551.86zM183.70,548.62C191.58,548.54 196.32,548.08 197.08,547.32C197.73,546.67 197.98,545.06 197.64,543.70C197.29,542.29 195.82,540.75 194.18,540.07C192.62,539.43 185.76,538.28 178.94,537.53C172.12,536.78 166.17,536.39 165.72,536.67C165.28,536.95 164.29,536.65 163.52,536.02C162.48,535.15 161.59,535.15 160.01,535.99C158.21,536.96 157.94,537.88 158.20,542.31C158.50,547.50 158.50,547.50 165.00,548.12C168.57,548.45 176.99,548.68 183.70,548.62zM503.88,549.00C504.31,549.00 505.74,547.83 507.08,546.40C508.41,544.97 511.61,542.73 514.19,541.41C516.77,540.10 522.17,538.15 526.19,537.09C530.21,536.02 538.35,534.15 544.28,532.94C550.21,531.72 554.82,530.48 554.52,530.19C554.22,529.89 551.72,529.75 548.96,529.87C546.20,530.00 536.42,531.43 527.22,533.05C516.53,534.93 509.60,536.65 508.00,537.81C506.62,538.81 504.68,541.28 503.68,543.29C502.68,545.31 502.14,547.42 502.49,547.98C502.83,548.54 503.46,549.00 503.88,549.00zM235.75,547.44C244.96,547.05 253.29,546.33 254.25,545.83C255.21,545.34 256.00,544.36 256.00,543.66C256.00,542.97 255.46,541.86 254.80,541.20C254.12,540.52 250.96,540.01 247.55,540.03C244.22,540.04 237.20,540.47 231.95,540.98C226.69,541.49 221.63,542.20 220.70,542.56C219.74,542.93 219.00,544.28 219.00,545.68C219.00,548.14 219.00,548.14 235.75,547.44zM618.75,546.49C621.91,546.13 625.26,545.63 626.19,545.37C627.11,545.12 628.57,543.01 629.43,540.70C630.28,538.39 631.64,533.92 632.43,530.77C633.23,527.61 634.37,520.41 634.97,514.77C635.57,509.12 636.52,500.00 637.10,494.50C637.67,489.00 639.48,475.73 641.12,465.00C642.76,454.27 645.17,440.25 646.48,433.84C647.79,427.43 650.06,419.19 651.52,415.54C652.98,411.89 653.93,408.25 653.62,407.45C653.25,406.50 651.59,406.00 648.78,405.99C646.43,405.98 643.49,405.70 642.25,405.37C640.00,404.77 640.00,404.77 640.61,415.13C640.95,420.91 640.75,428.82 640.15,433.00C639.56,437.12 637.71,449.73 636.04,461.00C634.38,472.27 632.52,483.64 631.91,486.25C631.30,488.86 630.40,491.00 629.90,491.00C629.41,491.00 629.00,490.55 629.00,490.00C629.00,489.45 628.37,489.00 627.61,489.00C626.84,489.00 625.92,489.77 625.55,490.72C625.19,491.66 624.51,498.75 624.03,506.47C623.56,514.19 622.51,522.30 621.70,524.50C620.89,526.70 618.60,532.17 616.61,536.66C614.63,541.15 613.00,545.35 613.00,545.98C613.00,546.81 614.68,546.95 618.75,546.49zM490.18,540.85C491.10,540.93 492.79,539.81 493.93,538.37C495.07,536.92 496.00,535.07 496.00,534.25C496.00,533.09 495.20,532.92 492.25,533.47C490.19,533.85 487.38,534.69 486.01,535.34C484.64,535.99 483.38,537.27 483.20,538.19C482.98,539.36 483.72,539.98 485.69,540.28C487.24,540.51 489.25,540.77 490.18,540.85zM215.00,524.74C221.88,524.77 228.62,524.49 229.99,524.11C231.61,523.66 232.06,523.16 231.29,522.68C230.63,522.27 220.06,521.49 207.80,520.95C195.53,520.40 178.97,519.52 171.00,518.99C163.03,518.46 155.49,518.02 154.25,518.02C152.96,518.01 152.00,518.61 152.00,519.42C152.00,520.20 153.61,521.38 155.58,522.03C157.55,522.68 168.91,523.54 180.83,523.94C192.75,524.35 208.12,524.71 215.00,524.74zM362.12,524.00C363.10,524.00 365.03,522.51 366.42,520.70C367.80,518.88 369.63,515.74 370.47,513.73C371.31,511.71 372.00,509.38 372.00,508.55C372.00,507.72 370.92,506.77 369.59,506.43C368.27,506.10 366.29,506.31 365.19,506.90C364.09,507.49 362.25,509.92 361.10,512.30C359.94,514.68 359.00,517.99 359.00,519.65C359.00,521.31 359.30,522.97 359.67,523.33C360.03,523.70 361.14,524.00 362.12,524.00zM582.38,513.91C586.60,513.97 589.16,513.44 591.43,512.04C593.18,510.96 595.98,508.15 597.67,505.79C599.36,503.43 601.91,499.17 603.35,496.31C604.79,493.46 607.14,488.06 608.57,484.31C610.01,480.57 615.18,465.80 620.08,451.50C626.17,433.72 628.99,424.06 628.99,420.93C629.00,418.42 628.29,413.99 627.43,411.09C626.45,407.78 624.37,404.19 621.86,401.47C619.66,399.08 618.01,396.80 618.18,396.40C618.36,396.00 616.92,395.11 615.00,394.42C613.08,393.72 609.79,393.12 607.70,393.08C605.61,393.03 602.69,393.64 601.20,394.42C599.72,395.20 596.87,397.56 594.88,399.67C592.88,401.78 588.62,407.10 585.40,411.50C579.55,419.50 579.55,419.50 578.80,415.05C578.38,412.61 577.35,409.92 576.50,409.07C575.33,407.91 574.55,407.80 573.25,408.62C571.67,409.61 571.55,412.61 571.77,445.42C571.92,467.61 572.40,481.87 573.04,483.07C573.61,484.13 574.75,485.00 575.59,485.00C576.42,485.00 577.75,483.44 578.55,481.53C579.35,479.62 580.01,477.26 580.03,476.28C580.04,475.30 580.94,472.70 582.02,470.50C583.99,466.50 583.99,466.50 583.41,473.50C583.10,477.35 582.20,481.50 581.42,482.71C580.64,483.93 580.00,485.56 580.00,486.32C580.00,487.09 582.33,489.47 585.18,491.61C588.03,493.75 590.56,496.18 590.81,497.00C591.16,498.21 590.99,498.26 589.92,497.25C589.20,496.56 587.88,496.00 587.00,496.00C586.11,496.00 583.84,494.39 581.95,492.41C580.05,490.44 577.18,488.14 575.57,487.29C573.65,486.29 566.57,485.29 555.07,484.40C545.41,483.66 533.35,482.34 528.27,481.48C523.19,480.62 517.42,479.24 515.44,478.41C513.47,477.59 509.04,476.65 505.60,476.33C499.40,475.75 499.32,475.77 495.29,479.62C492.03,482.73 491.00,484.63 490.05,489.21C489.40,492.35 489.02,496.61 489.19,498.67C489.44,501.69 489.99,502.56 492.00,503.11C493.38,503.49 497.76,503.85 501.75,503.90C509.00,504.00 509.00,504.00 509.00,499.47C509.00,496.98 509.65,493.38 510.45,491.47C511.25,489.56 512.35,488.00 512.91,488.00C513.51,488.00 514.05,492.01 514.21,497.75C514.50,507.50 514.50,507.50 520.50,508.30C523.80,508.74 530.47,509.80 535.31,510.66C540.16,511.51 544.34,511.99 544.60,511.73C544.87,511.47 544.12,509.62 542.94,507.63C541.77,505.63 541.05,504.00 541.34,504.00C541.64,504.00 543.37,504.87 545.19,505.93C547.01,506.99 551.22,508.55 554.55,509.40C557.87,510.25 564.17,511.59 568.55,512.38C572.92,513.17 579.15,513.86 582.38,513.91zM276.92,500.96C278.34,500.94 286.93,500.47 296.00,499.91C305.07,499.35 344.77,498.58 384.20,498.19C429.79,497.75 456.24,497.14 456.84,496.50C457.35,495.95 457.98,488.79 458.25,480.60C458.72,465.69 458.72,465.69 377.61,466.60C333.00,467.09 277.82,467.27 255.00,467.00C232.18,466.73 192.80,466.50 167.50,466.50C121.50,466.50 121.50,466.50 121.22,479.92C121.07,487.30 121.29,493.69 121.72,494.12C122.15,494.55 134.20,495.37 148.50,495.93C162.80,496.50 196.77,497.69 224.00,498.58C251.23,499.48 273.69,500.39 273.92,500.60C274.15,500.82 275.50,500.98 276.92,500.96zM281.00,456.44C274.68,456.66 258.93,456.25 246.00,455.55C231.41,454.75 218.52,454.57 212.00,455.06C206.22,455.50 187.78,455.76 171.00,455.64C154.22,455.53 139.72,455.06 138.76,454.61C137.80,454.16 136.34,451.51 135.51,448.71C134.68,445.92 134.00,441.90 134.00,439.77C134.00,437.64 134.73,434.46 135.62,432.70C136.51,430.94 138.31,428.07 139.62,426.32C142.00,423.13 142.00,423.13 138.12,399.93C134.23,376.73 134.23,376.73 128.18,371.34C123.50,367.18 121.64,364.65 119.97,360.23C118.37,356.00 117.94,353.16 118.32,349.38C118.60,346.56 119.73,342.51 120.83,340.38C121.93,338.24 124.42,334.96 126.38,333.08C129.01,330.56 131.71,329.24 136.70,328.02C143.07,326.47 143.51,326.17 144.37,322.94C144.88,321.05 147.52,311.85 150.26,302.50C152.99,293.15 156.09,282.50 157.15,278.84C159.07,272.17 159.07,272.17 156.12,267.53C154.50,264.97 152.63,260.61 151.96,257.84C151.29,255.03 150.96,249.42 151.21,245.15C151.54,239.63 152.41,235.94 154.34,231.90C155.95,228.51 159.36,224.05 162.97,220.61C166.26,217.48 170.90,214.05 173.28,212.99C175.67,211.94 180.28,210.38 183.52,209.54C186.77,208.69 191.17,208.00 193.31,208.00C196.01,208.00 198.93,206.93 202.85,204.51C206.60,202.20 211.72,200.27 218.00,198.82C226.31,196.89 230.45,196.61 251.00,196.56C263.93,196.53 275.06,196.14 275.75,195.69C276.60,195.14 277.00,191.99 277.00,185.93C277.00,176.97 277.00,176.97 273.75,175.07C271.96,174.03 268.82,172.15 266.76,170.89C264.71,169.64 260.38,165.20 257.15,161.03C253.92,156.87 249.90,150.99 248.22,147.98C246.54,144.96 244.47,140.12 243.62,137.21C242.78,134.30 241.59,128.33 240.99,123.94C240.22,118.28 240.20,113.76 240.95,108.40C241.53,104.24 243.13,98.02 244.51,94.57C245.89,91.13 248.92,84.79 251.26,80.49C253.62,76.13 258.60,69.35 262.50,65.16C266.35,61.03 272.10,55.97 275.27,53.91C278.44,51.86 284.84,48.80 289.48,47.12C294.12,45.44 301.88,43.56 306.71,42.95C311.82,42.30 319.69,42.11 325.50,42.50C331.00,42.87 339.10,43.82 343.50,44.62C347.90,45.43 354.43,47.00 358.00,48.13C361.57,49.25 367.92,51.95 372.09,54.11C376.26,56.28 382.61,60.47 386.19,63.42C389.77,66.38 394.56,71.59 396.84,75.00C399.12,78.41 401.94,84.19 403.12,87.85C404.29,91.51 405.48,98.37 405.74,103.10C406.12,109.75 405.72,113.93 404.01,121.45C402.79,126.81 400.67,134.64 399.30,138.85C397.93,143.06 395.33,149.70 393.53,153.62C391.72,157.54 388.34,163.56 386.00,167.00C383.66,170.44 378.62,176.55 374.80,180.58C370.51,185.09 366.50,188.34 364.34,189.05C361.98,189.83 357.34,189.98 350.05,189.50C339.51,188.81 339.22,188.85 337.63,191.12C336.49,192.75 336.00,195.61 336.00,200.66C336.00,205.23 336.44,208.16 337.21,208.63C337.87,209.04 343.27,209.93 349.21,210.61C357.48,211.56 361.64,212.60 367.00,215.07C370.85,216.84 374.00,218.71 374.00,219.22C374.00,219.73 375.74,222.25 377.87,224.82C380.00,227.39 383.65,232.76 385.98,236.75C388.32,240.74 390.63,244.00 391.11,244.00C391.60,244.00 391.99,241.86 391.98,239.25C391.97,236.64 391.12,232.70 390.10,230.50C389.07,228.30 386.46,224.79 384.28,222.71C382.11,220.62 379.02,218.49 377.41,217.96C375.09,217.20 375.57,217.12 379.80,217.55C382.72,217.84 386.63,218.81 388.50,219.70C390.36,220.59 393.28,223.26 394.99,225.63C396.69,228.01 399.28,232.55 400.73,235.72C403.13,240.98 403.41,242.89 403.79,256.86C404.19,271.34 404.10,272.38 402.08,275.11C399.94,278.01 399.94,278.01 407.44,277.70C413.71,277.45 415.36,277.01 417.46,275.04C418.85,273.73 420.99,270.61 422.22,268.08C424.01,264.44 424.46,261.77 424.47,255.00C424.47,248.23 424.00,245.44 422.13,241.29C420.84,238.42 417.68,234.10 415.09,231.68C411.72,228.53 408.45,226.66 403.45,225.02C399.63,223.78 396.05,222.31 395.50,221.76C394.84,221.11 395.18,220.96 396.50,221.31C397.60,221.61 400.07,222.16 402.00,222.55C403.93,222.93 408.28,224.49 411.68,226.03C415.16,227.59 419.90,230.85 422.51,233.46C425.07,236.02 428.34,240.67 429.78,243.80C431.44,247.40 432.56,251.85 432.83,255.90C433.06,259.42 432.71,264.70 432.06,267.64C431.40,270.58 429.10,275.61 426.96,278.83C424.67,282.26 420.59,286.47 417.10,289.01C413.82,291.40 410.96,294.06 410.74,294.92C410.52,295.79 410.96,306.14 411.71,317.92C412.47,329.70 412.84,339.97 412.55,340.73C412.25,341.50 411.56,341.85 411.01,341.50C410.45,341.16 409.95,336.32 409.88,330.69C409.82,325.09 409.48,316.00 409.13,310.50C408.55,301.21 408.34,300.48 406.32,300.19C404.87,299.98 403.73,300.64 402.93,302.13C402.07,303.74 401.91,307.69 402.39,315.94C402.75,322.30 403.45,330.20 403.93,333.50C404.41,336.80 404.96,340.14 405.15,340.92C405.38,341.85 404.12,342.75 401.56,343.50C399.39,344.13 397.48,345.07 397.30,345.59C397.12,346.13 400.68,346.51 405.74,346.47C410.81,346.44 415.97,346.98 417.99,347.75C419.90,348.49 422.47,350.03 423.68,351.17C424.90,352.32 426.17,354.48 426.50,355.98C426.97,358.12 427.99,358.98 431.25,359.96C433.53,360.64 443.29,365.04 452.95,369.74C470.50,378.27 470.50,378.27 465.71,379.71C461.94,380.83 460.18,382.14 457.47,385.82C455.58,388.39 453.12,392.88 452.01,395.79C450.91,398.70 450.00,402.61 450.00,404.48C450.00,406.35 450.45,408.16 451.01,408.51C451.56,408.85 452.92,406.96 454.03,404.31C455.14,401.67 456.83,398.00 457.78,396.18C458.72,394.35 462.04,390.52 465.14,387.68C468.24,384.83 471.48,381.94 472.35,381.25C473.21,380.56 474.72,380.01 475.71,380.01C476.69,380.02 479.39,381.78 481.71,383.93C484.02,386.08 486.87,388.14 488.04,388.51C489.20,388.88 492.10,392.19 494.48,395.86C498.70,402.39 498.97,402.60 505.93,404.77C509.86,406.00 514.96,407.06 517.28,407.14C519.60,407.21 520.49,407.47 519.25,407.71C517.88,407.97 517.00,408.87 517.00,409.99C517.00,411.01 518.51,412.77 520.37,413.92C522.22,415.06 524.26,416.00 524.90,416.00C525.54,416.00 526.33,415.31 526.65,414.46C526.98,413.62 526.44,412.04 525.47,410.96C524.49,409.88 524.15,409.00 524.71,409.00C525.27,409.00 526.87,409.89 528.25,410.98C529.64,412.08 531.05,413.99 531.39,415.23C531.77,416.60 534.24,418.79 537.65,420.75C540.75,422.54 544.07,424.00 545.04,424.00C546.00,424.00 547.06,424.71 547.39,425.58C547.73,426.45 548.00,428.68 548.00,430.53C548.00,433.89 548.00,433.89 541.43,430.82C537.20,428.84 534.51,428.09 533.89,428.71C533.27,429.33 533.30,430.65 533.96,432.40C534.53,433.90 535.00,436.83 535.00,438.92C535.00,441.00 534.49,444.23 533.86,446.10C533.24,447.97 531.64,450.96 530.31,452.75C528.98,454.54 527.41,456.00 526.81,456.00C526.21,456.00 525.09,455.21 524.33,454.25C523.56,453.29 522.52,451.51 522.01,450.30C521.50,449.09 519.68,447.37 517.97,446.48C514.91,444.90 514.86,444.91 515.18,447.14C515.41,448.75 514.77,449.79 513.00,450.68C510.69,451.85 510.48,451.77 510.19,449.55C510.02,448.23 509.29,446.66 508.57,446.06C507.84,445.46 506.52,445.25 505.63,445.59C504.73,445.93 504.00,446.74 504.00,447.38C504.00,448.03 504.72,449.58 505.60,450.84C506.48,452.10 506.92,453.41 506.58,453.75C506.24,454.10 505.26,453.39 504.42,452.19C503.58,450.99 502.10,450.00 501.14,450.00C500.18,450.00 498.82,450.56 498.10,451.25C497.06,452.26 496.49,452.02 495.15,450.05C494.24,448.70 492.15,445.94 490.50,443.91C488.85,441.88 486.38,438.80 485.00,437.05C483.62,435.31 479.46,432.28 475.75,430.32C469.89,427.23 468.85,426.25 467.85,422.88C467.21,420.75 466.61,419.00 466.53,419.00C466.44,419.00 463.70,418.53 460.43,417.95C457.06,417.35 449.75,414.56 443.50,411.50C437.45,408.54 429.00,404.74 424.72,403.06C419.09,400.84 415.28,400.00 410.91,400.00C407.59,400.00 403.89,399.50 402.68,398.89C401.48,398.28 394.70,393.90 387.61,389.14C379.36,383.61 373.82,379.16 372.24,376.77C370.87,374.72 369.53,371.03 369.26,368.58C368.98,366.13 369.05,362.94 369.41,361.50C369.77,360.06 371.97,356.82 374.28,354.29C376.60,351.77 379.96,349.09 381.75,348.34C384.70,347.10 385.00,346.59 384.95,342.74C384.93,340.41 384.34,333.68 383.65,327.78C382.96,321.88 382.05,316.71 381.63,316.29C381.21,315.87 380.10,316.54 379.16,317.78C378.23,319.02 373.92,330.49 369.58,343.27C365.24,356.05 360.85,367.93 359.81,369.68C358.45,371.97 356.53,373.33 352.97,374.51C350.25,375.41 347.20,377.20 346.20,378.48C344.64,380.45 343.03,380.93 335.43,381.65C326.50,382.50 326.50,382.50 326.50,385.50C326.50,388.50 326.50,388.50 336.00,388.64C345.29,388.77 345.51,388.83 345.80,391.22C345.97,392.57 345.46,394.20 344.69,394.85C343.91,395.49 339.27,396.35 334.39,396.76C325.65,397.49 325.49,397.54 325.18,400.25C324.93,402.44 325.40,403.20 327.50,404.00C328.95,404.55 333.48,405.00 337.57,405.00C344.73,405.00 345.00,405.09 345.00,407.38C345.00,408.69 344.35,410.30 343.55,410.96C342.76,411.62 338.14,412.46 333.30,412.83C325.39,413.43 324.50,413.70 324.50,415.50C324.50,416.97 326.50,418.56 332.05,421.50C336.20,423.70 340.55,426.19 341.71,427.03C342.87,427.88 344.59,430.35 345.53,432.53C346.47,434.71 347.57,437.18 347.97,438.00C348.36,438.82 350.22,440.53 352.09,441.78C353.97,443.04 356.35,444.77 357.38,445.64C358.87,446.88 363.49,447.39 379.38,448.07C390.45,448.54 404.21,449.42 409.98,450.02C415.74,450.63 420.59,451.26 420.76,451.43C420.93,451.60 414.64,452.23 406.78,452.84C398.93,453.45 370.00,454.42 342.50,455.00C315.00,455.58 287.32,456.23 281.00,456.44zM469.68,454.95C469.03,454.92 465.57,453.36 462.00,451.47C458.43,449.58 452.84,447.36 449.59,446.53C446.35,445.71 442.79,444.23 441.70,443.26C440.60,442.29 438.85,439.58 437.80,437.24C436.75,434.89 436.16,432.55 436.49,432.02C436.81,431.49 436.36,429.65 435.47,427.94C434.58,426.22 434.05,424.61 434.30,424.36C434.55,424.12 435.92,425.30 437.34,426.99C438.76,428.68 441.41,430.71 443.21,431.49C446.03,432.72 446.17,432.93 444.19,432.96C442.06,433.00 441.99,433.15 443.34,435.08C444.14,436.22 447.21,438.49 450.15,440.12C453.09,441.75 458.33,444.47 461.80,446.16C465.26,447.85 468.31,449.02 468.57,448.76C468.83,448.50 468.77,447.58 468.44,446.71C468.11,445.84 465.51,443.56 462.67,441.64C459.83,439.72 455.12,437.16 452.22,435.94C449.32,434.72 447.13,433.54 447.36,433.31C447.59,433.07 449.46,433.58 451.51,434.44C453.57,435.30 456.33,436.00 457.66,436.00C458.98,436.00 462.41,437.19 465.27,438.64C468.13,440.09 472.11,442.31 474.11,443.57C476.19,444.88 477.94,446.89 478.20,448.28C478.62,450.49 478.35,450.69 475.08,450.60C472.09,450.52 471.45,450.87 471.18,452.75C471.00,453.99 470.33,454.98 469.68,454.95zM586.35,448.50C585.20,452.50 585.20,452.50 585.10,449.00C585.05,447.07 585.85,440.50 586.88,434.40C587.95,428.08 589.94,420.65 591.51,417.16C593.02,413.79 594.96,410.46 595.82,409.76C597.16,408.68 597.26,408.78 596.58,410.50C596.15,411.60 595.01,414.75 594.05,417.50C593.09,420.25 591.98,426.06 591.59,430.41C591.21,434.76 590.13,439.71 589.20,441.41C588.27,443.11 586.99,446.30 586.35,448.50zM210.75,450.98C211.44,450.99 212.00,449.85 212.00,448.43C212.00,447.02 211.53,445.00 210.96,443.93C210.38,442.85 208.88,442.00 207.54,442.00C206.22,442.00 204.45,442.69 203.61,443.53C202.77,444.37 202.32,445.68 202.62,446.44C202.91,447.20 204.57,448.53 206.32,449.39C208.07,450.25 210.06,450.96 210.75,450.98zM297.49,450.79C302.72,450.54 303.54,450.23 303.80,448.40C304.06,446.58 303.34,446.14 298.46,445.16C294.57,444.38 292.22,444.35 290.91,445.05C289.86,445.61 289.00,446.64 289.00,447.34C289.00,448.03 289.56,449.16 290.24,449.84C291.03,450.63 293.68,450.98 297.49,450.79zM158.50,450.00C159.21,450.00 159.98,449.44 160.23,448.75C160.47,448.06 160.38,446.38 160.04,445.01C159.69,443.63 158.64,442.36 157.71,442.18C156.47,441.94 156.00,442.53 156.00,444.34C156.00,445.72 156.27,447.55 156.61,448.42C156.94,449.29 157.79,450.00 158.50,450.00zM175.45,450.00C177.01,450.00 178.10,449.27 178.52,447.95C178.87,446.83 178.62,445.25 177.96,444.45C177.30,443.65 175.94,443.00 174.94,443.00C173.94,443.00 172.82,443.48 172.46,444.06C172.11,444.64 172.09,446.21 172.42,447.56C172.86,449.30 173.73,450.00 175.45,450.00zM191.41,449.80C193.00,449.57 193.50,448.78 193.50,446.50C193.50,443.84 193.17,443.50 190.51,443.50C188.43,443.50 187.42,444.05 187.18,445.30C186.99,446.29 187.40,447.77 188.08,448.60C188.76,449.42 190.26,449.96 191.41,449.80zM275.25,449.86C277.85,449.96 279.00,449.57 279.00,448.61C279.00,447.84 278.29,446.94 277.42,446.61C276.55,446.27 271.06,446.00 265.22,446.00C257.54,446.00 254.90,446.30 255.69,447.09C256.29,447.69 260.10,448.53 264.14,448.96C268.19,449.38 273.19,449.79 275.25,449.86zM319.46,449.80C321.74,449.57 322.58,448.94 322.82,447.25C323.01,445.89 322.51,444.75 321.57,444.39C320.70,444.06 318.87,444.07 317.50,444.41C315.98,444.79 315.00,445.75 315.00,446.85C315.00,447.85 315.32,448.99 315.71,449.38C316.11,449.77 317.79,449.96 319.46,449.80zM339.91,450.00C343.45,450.00 346.18,449.49 346.82,448.72C347.41,448.01 347.53,446.86 347.09,446.15C346.66,445.45 343.72,444.52 340.57,444.09C336.15,443.49 334.51,443.64 333.42,444.73C332.37,445.77 332.27,446.64 333.04,448.07C333.88,449.64 335.16,450.00 339.91,450.00zM497.41,445.00C498.77,445.00 500.18,444.52 500.54,443.94C500.90,443.35 500.41,442.00 499.44,440.94C498.48,439.87 497.07,439.00 496.31,439.00C495.56,439.00 494.68,439.68 494.36,440.50C494.05,441.32 494.05,442.68 494.36,443.50C494.68,444.32 496.05,445.00 497.41,445.00zM521.50,441.56C522.05,441.44 522.64,440.37 522.82,439.17C523.03,437.71 522.61,437.00 521.53,437.00C520.65,437.00 518.82,436.27 517.46,435.38C515.07,433.81 515.00,433.84 515.00,436.33C515.00,438.11 515.84,439.33 517.75,440.33C519.26,441.13 520.95,441.68 521.50,441.56zM275.68,441.00C277.58,441.00 280.02,440.53 281.10,439.95C282.44,439.23 282.97,438.05 282.78,436.20C282.54,433.93 282.93,433.45 285.20,433.19C286.69,433.02 288.85,433.39 290.01,434.01C291.36,434.73 292.56,434.80 293.31,434.20C293.97,433.68 296.75,432.99 299.50,432.67C302.25,432.35 305.67,431.80 307.10,431.45C309.42,430.89 309.92,431.30 311.80,435.29C313.50,438.91 314.49,439.84 316.99,440.21C318.69,440.46 320.40,440.18 320.79,439.58C321.18,438.99 321.49,437.15 321.50,435.50C321.50,432.50 321.50,432.50 327.50,432.50C333.50,432.50 333.50,432.50 333.60,435.60C333.65,437.31 334.02,439.22 334.41,439.85C334.80,440.48 335.97,441.00 337.02,441.00C338.37,441.00 339.27,439.85 340.11,437.02C340.93,434.28 341.00,432.03 340.34,429.77C339.62,427.34 338.88,426.58 337.44,426.80C336.37,426.96 325.15,427.09 312.50,427.10C299.85,427.10 285.68,426.82 281.00,426.47C275.68,426.07 271.43,426.25 269.64,426.94C266.90,427.99 266.81,428.23 267.44,432.77C267.86,435.68 268.90,438.17 270.17,439.25C271.30,440.21 273.78,441.00 275.68,441.00zM298.22,440.98C299.47,440.98 301.10,440.59 301.84,440.12C302.57,439.66 303.02,438.20 302.84,436.89C302.56,434.89 301.93,434.50 299.01,434.50C296.45,434.50 295.44,434.98 295.18,436.31C294.99,437.30 295.08,438.77 295.38,439.56C295.69,440.35 296.96,440.99 298.22,440.98zM149.36,438.17C149.84,437.93 151.30,435.31 152.61,432.34C153.93,429.37 155.00,426.51 155.00,425.97C155.00,425.44 154.08,425.00 152.96,425.00C151.84,425.00 149.14,425.91 146.97,427.01C144.80,428.12 142.31,430.12 141.43,431.46C140.55,432.80 139.99,434.71 140.18,435.70C140.42,436.95 141.73,437.67 144.51,438.04C146.70,438.34 148.89,438.40 149.36,438.17zM195.64,438.00C195.91,438.00 197.00,437.53 198.07,436.96C199.13,436.40 200.00,435.26 200.00,434.44C200.00,433.63 198.90,432.46 197.56,431.85C196.22,431.24 194.42,431.01 193.56,431.34C192.70,431.67 192.00,432.59 192.00,433.40C192.00,434.20 192.71,435.56 193.57,436.43C194.44,437.29 195.37,438.00 195.64,438.00zM210.11,436.02C211.00,434.97 212.01,432.33 212.36,430.14C212.71,427.95 214.15,424.78 215.56,423.11C216.97,421.43 219.79,419.60 221.81,419.03C223.84,418.47 226.62,418.01 228.00,418.00C229.38,417.99 232.21,417.51 234.31,416.93C236.40,416.35 238.37,415.21 238.68,414.39C238.99,413.58 239.00,412.66 238.69,412.35C238.38,412.05 232.50,411.21 225.62,410.49C218.75,409.78 212.64,408.90 212.06,408.54C211.48,408.18 211.00,406.38 211.00,404.55C211.00,401.38 211.21,401.20 215.46,400.56C218.12,400.16 220.75,400.33 221.97,400.99C223.12,401.60 227.46,401.95 231.76,401.79C239.21,401.51 239.50,401.41 239.50,399.07C239.50,397.23 238.79,396.45 236.55,395.85C234.92,395.42 229.11,394.75 223.64,394.38C215.75,393.83 213.29,393.29 211.76,391.76C210.36,390.36 210.01,389.10 210.49,387.17C210.86,385.70 211.27,384.40 211.40,384.27C211.53,384.14 213.18,384.48 215.07,385.03C216.95,385.58 222.34,386.31 227.04,386.65C234.31,387.18 235.84,387.01 237.29,385.56C238.23,384.63 239.00,383.43 239.00,382.91C239.00,382.38 237.99,381.55 236.75,381.05C235.51,380.55 230.34,379.38 225.25,378.45C220.16,377.51 216.00,376.36 216.00,375.89C216.00,375.42 213.39,373.71 210.19,372.10C206.99,370.48 203.89,368.56 203.29,367.83C202.68,367.10 201.43,364.02 200.50,361.00C199.56,357.98 197.75,352.12 196.46,348.00C195.16,343.88 193.61,338.56 193.00,336.19C192.34,333.64 191.40,332.03 190.69,332.26C190.04,332.47 188.91,333.86 188.19,335.34C187.47,336.82 187.16,338.93 187.51,340.02C187.85,341.12 189.28,343.36 190.67,345.01C192.06,346.67 193.43,349.82 193.73,352.02C194.06,354.52 193.65,357.62 192.63,360.30C191.73,362.66 188.95,366.59 186.46,369.04C181.93,373.49 181.93,373.49 182.47,379.99C182.76,383.57 183.46,392.57 184.01,400.00C184.57,407.43 185.27,415.38 185.56,417.68C186.10,421.87 186.10,421.87 182.34,420.83C180.27,420.26 176.31,420.04 173.54,420.36C170.77,420.67 166.36,421.32 163.74,421.81C161.12,422.29 158.69,422.98 158.33,423.34C157.97,423.69 158.33,424.78 159.13,425.74C159.93,426.71 161.36,429.22 162.31,431.32C163.65,434.30 164.52,435.07 166.23,434.82C167.50,434.63 169.04,433.23 169.88,431.50C170.67,429.85 171.64,427.82 172.03,427.00C172.60,425.81 174.88,425.50 183.12,425.50C191.52,425.50 193.96,425.84 195.93,427.29C197.27,428.27 199.20,430.44 200.20,432.10C201.21,433.76 203.49,435.74 205.27,436.51C208.21,437.79 208.65,437.74 210.11,436.02zM253.92,436.98C254.24,436.98 255.00,436.64 255.61,436.23C256.22,435.83 257.89,433.03 259.32,430.02C260.79,426.93 261.55,424.15 261.07,423.67C260.59,423.19 251.95,422.16 241.85,421.37C229.19,420.38 222.80,420.25 221.25,420.95C220.01,421.50 219.00,422.61 219.00,423.40C219.00,424.20 220.46,425.31 222.25,425.87C224.04,426.44 229.10,427.38 233.50,427.95C239.56,428.75 241.92,429.51 243.24,431.10C244.97,433.19 244.97,433.19 247.58,430.09C249.01,428.39 250.59,427.25 251.09,427.56C251.59,427.87 252.00,429.82 252.00,431.89C252.00,433.97 252.30,435.97 252.67,436.33C253.03,436.70 253.60,436.99 253.92,436.98zM182.17,435.97C182.54,435.99 183.55,435.73 184.42,435.39C185.29,435.06 186.00,433.70 186.00,432.37C186.00,430.77 185.16,429.58 183.53,428.83C181.64,427.97 180.70,428.00 179.53,428.98C178.69,429.67 178.00,431.07 178.00,432.07C178.00,433.08 178.79,434.36 179.75,434.92C180.71,435.48 181.80,435.95 182.17,435.97zM500.13,432.92C501.02,432.96 502.27,432.38 502.89,431.63C503.52,430.87 503.76,429.54 503.42,428.66C503.09,427.79 501.94,426.80 500.86,426.46C499.78,426.11 498.25,426.38 497.45,427.04C496.65,427.70 496.00,429.05 496.00,430.04C496.00,431.03 496.56,432.06 497.25,432.34C497.94,432.62 499.23,432.88 500.13,432.92zM518.89,426.00C519.41,426.00 521.34,425.21 523.17,424.25C525.00,423.29 526.71,422.36 526.97,422.20C527.23,422.03 526.80,421.50 526.02,421.01C525.23,420.53 523.22,420.39 521.55,420.70C519.87,421.01 518.10,421.62 517.62,422.07C517.13,422.51 517.01,423.57 517.34,424.43C517.67,425.29 518.36,426.00 518.89,426.00zM474.15,422.00C475.20,422.00 476.31,421.36 476.61,420.58C476.91,419.80 476.65,418.22 476.04,417.08C475.43,415.94 474.29,415.00 473.50,415.00C472.71,415.00 471.57,415.93 470.97,417.06C470.15,418.60 470.17,419.50 471.05,420.56C471.71,421.35 473.10,422.00 474.15,422.00zM307.39,420.00C310.93,420.00 314.55,419.73 315.42,419.39C316.29,419.06 317.00,417.98 317.00,417.00C317.00,416.02 316.33,414.96 315.51,414.64C314.70,414.33 311.08,414.35 307.48,414.68C303.88,415.02 300.69,415.70 300.38,416.20C300.07,416.69 300.07,417.75 300.38,418.55C300.79,419.61 302.67,420.00 307.39,420.00zM279.63,418.98C285.70,419.00 288.07,418.62 289.02,417.48C289.72,416.64 290.01,415.68 289.67,415.34C289.33,415.00 284.78,414.50 279.55,414.23C271.17,413.79 269.96,413.94 269.37,415.47C268.98,416.49 269.28,417.56 270.10,418.09C270.87,418.57 275.16,418.98 279.63,418.98zM498.50,419.00C499.19,419.00 500.32,418.32 501.00,417.50C501.68,416.68 501.85,415.95 501.37,415.88C500.89,415.82 501.81,415.48 503.42,415.13C505.02,414.78 506.51,413.97 506.73,413.31C506.95,412.66 505.99,411.39 504.61,410.48C503.06,409.47 501.28,409.09 499.96,409.51C498.79,409.89 497.23,411.61 496.50,413.35C495.57,415.55 495.48,416.88 496.21,417.75C496.78,418.44 497.81,419.00 498.50,419.00zM150.64,417.00C151.42,417.00 152.30,416.39 152.58,415.65C152.86,414.91 152.40,408.50 151.55,401.40C150.69,394.31 149.27,383.66 148.38,377.75C146.84,367.50 146.65,367.00 144.35,367.00C143.02,367.00 141.70,367.61 141.42,368.35C141.13,369.09 142.49,379.61 144.43,391.72C146.37,403.83 148.24,414.47 148.59,415.37C148.93,416.27 149.85,417.00 150.64,417.00zM179.62,415.50C180.45,414.76 180.25,409.23 178.88,394.53C177.85,383.54 176.34,372.25 175.53,369.44C174.15,364.70 173.73,364.23 169.77,363.05C167.42,362.34 162.92,361.53 159.77,361.25C154.85,360.80 153.94,360.98 153.34,362.57C152.95,363.58 153.19,370.73 153.88,378.45C154.57,386.18 155.67,397.68 156.33,404.00C157.52,415.50 157.52,415.50 168.01,416.00C174.33,416.30 178.95,416.10 179.62,415.50zM480.48,416.79C481.86,416.59 482.60,415.61 482.82,413.69C483.00,412.14 482.61,410.23 481.95,409.44C481.29,408.65 479.70,408.00 478.41,408.00C477.12,408.00 475.61,408.87 475.04,409.93C474.47,411.00 474.00,412.11 474.00,412.40C474.00,412.69 475.00,413.86 476.23,415.00C477.46,416.14 479.37,416.95 480.48,416.79zM489.77,407.00C489.95,407.00 491.43,406.31 493.05,405.47C494.67,404.64 496.00,403.30 496.00,402.51C496.00,401.72 495.13,400.60 494.07,400.04C493.00,399.47 490.58,399.00 488.69,399.00C486.79,399.00 484.77,399.58 484.18,400.28C483.59,400.99 483.43,402.03 483.81,402.59C484.19,403.15 485.61,404.38 486.97,405.31C488.33,406.24 489.59,407.00 489.77,407.00zM282.06,404.86C284.57,404.94 287.45,404.39 288.47,403.64C289.56,402.85 290.08,401.64 289.72,400.72C289.26,399.52 287.20,399.07 280.81,398.80C276.24,398.60 271.69,398.82 270.69,399.29C269.69,399.75 269.02,400.89 269.20,401.82C269.41,402.93 270.88,403.71 273.51,404.11C275.70,404.44 279.55,404.78 282.06,404.86zM309.50,404.24C312.25,403.96 315.29,403.32 316.25,402.83C317.21,402.33 318.00,401.27 318.00,400.46C318.00,399.29 316.31,399.00 309.61,399.00C303.51,399.00 301.07,399.37 300.70,400.34C300.42,401.08 300.48,402.14 300.84,402.69C301.20,403.25 302.18,403.94 303.00,404.23C303.82,404.52 306.75,404.53 309.50,404.24zM569.75,396.90C571.81,394.97 576.56,390.60 580.30,387.19C584.04,383.77 590.23,379.40 594.05,377.47C597.87,375.55 601.00,373.42 601.00,372.74C601.00,372.06 599.66,367.39 598.01,362.36C596.37,357.33 594.13,351.14 593.05,348.61C591.96,346.07 590.49,344.00 589.79,344.00C589.08,344.01 587.29,345.02 585.82,346.25C583.97,347.79 582.47,350.77 581.03,355.72C579.19,362.05 578.31,363.48 573.94,367.22C568.96,371.50 568.96,371.50 569.60,379.53C570.16,386.62 569.99,387.96 568.12,391.03C566.96,392.94 566.01,395.83 566.00,397.45C566.00,400.41 566.00,400.41 569.75,396.90zM475.64,397.00C476.27,397.00 477.79,396.18 479.02,395.19C480.58,393.92 481.06,392.77 480.61,391.34C480.25,390.22 478.79,388.77 477.37,388.12C475.94,387.47 473.92,387.21 472.88,387.54C471.85,387.87 470.49,389.09 469.86,390.25C468.89,392.08 469.13,392.69 471.62,394.68C473.20,395.95 475.01,396.99 475.64,397.00zM312.00,389.13C313.93,388.93 316.06,388.31 316.75,387.76C317.44,387.21 318.00,386.12 318.00,385.34C318.00,384.20 316.34,383.98 309.75,384.21C302.26,384.47 301.50,384.69 301.50,386.50C301.50,388.02 302.33,388.62 305.00,389.00C306.93,389.28 310.07,389.34 312.00,389.13zM447.69,389.92C448.34,389.96 451.01,388.15 453.62,385.90C456.23,383.64 459.42,381.31 460.71,380.72C462.00,380.14 462.92,379.25 462.75,378.76C462.59,378.27 457.97,376.07 452.48,373.86C446.99,371.65 438.28,367.86 433.12,365.42C427.17,362.62 422.34,361.00 419.94,361.00C416.77,361.00 415.63,361.62 413.04,364.75C411.34,366.81 409.28,370.72 408.47,373.43C407.66,376.14 407.01,379.97 407.02,381.93C407.02,383.89 407.42,386.12 407.90,386.88C408.38,387.64 409.24,387.97 409.81,387.62C410.38,387.26 411.13,385.69 411.47,384.11C411.82,382.54 413.18,380.24 414.50,379.00C416.89,376.75 416.89,376.75 428.20,381.78C434.41,384.54 441.07,387.48 443.00,388.32C444.93,389.15 447.04,389.87 447.69,389.92zM281.50,388.71C288.85,388.52 289.53,388.32 289.81,386.35C290.10,384.31 289.65,384.18 280.81,383.80C275.69,383.57 270.94,383.58 270.25,383.80C269.56,384.03 269.00,384.86 269.00,385.64C269.00,386.42 270.01,387.48 271.25,387.99C272.49,388.50 277.10,388.82 281.50,388.71zM388.07,383.00C388.58,383.00 389.00,381.50 389.00,379.66C389.00,377.82 389.64,374.18 390.43,371.56C391.22,368.95 393.05,365.01 394.51,362.81C395.96,360.61 397.34,359.00 397.56,359.23C397.79,359.46 396.99,361.99 395.77,364.87C394.09,368.84 393.82,370.50 394.64,371.79C395.23,372.73 396.33,373.50 397.08,373.50C397.82,373.50 399.44,371.70 400.67,369.50C401.90,367.30 404.95,363.17 407.45,360.32C409.95,357.47 412.00,354.88 412.00,354.57C412.00,354.26 410.62,354.00 408.93,354.00C407.25,354.00 404.91,354.51 403.73,355.14C402.13,356.00 401.50,356.00 401.21,355.14C401.00,354.51 399.88,354.00 398.72,354.00C397.56,354.00 394.86,355.21 392.73,356.68C390.60,358.16 388.26,360.54 387.52,361.97C386.78,363.40 385.87,366.20 385.49,368.18C385.12,370.17 385.34,374.32 385.98,377.40C386.62,380.48 387.56,383.00 388.07,383.00zM318.50,369.78C333.90,369.82 348.52,369.55 351.00,369.18C355.50,368.50 355.50,368.50 360.29,354.50C362.93,346.80 368.39,329.02 372.44,315.00C376.49,300.98 381.04,284.10 382.56,277.50C384.42,269.39 385.34,262.55 385.39,256.40C385.45,247.82 385.24,246.87 381.67,239.65C379.57,235.39 375.45,229.36 372.40,226.06C369.38,222.80 364.64,219.00 361.86,217.62C359.08,216.23 354.36,214.55 351.37,213.88C347.69,213.06 345.60,213.00 344.92,213.68C344.23,214.37 345.06,216.08 347.49,218.99C349.46,221.35 352.74,224.60 354.78,226.22C356.82,227.84 358.82,229.69 359.23,230.33C359.64,230.98 359.98,232.29 359.98,233.25C360.00,234.80 358.86,235.00 350.01,235.00C344.52,235.00 332.71,234.32 323.76,233.49C314.82,232.65 306.33,231.73 304.90,231.44C303.47,231.15 297.04,226.06 290.60,220.13C284.16,214.21 276.39,207.84 273.34,205.99C269.12,203.43 265.33,202.19 257.64,200.83C252.06,199.84 245.56,199.03 243.19,199.02C240.61,199.01 239.13,199.40 239.49,199.98C239.83,200.53 243.11,202.77 246.80,204.97C250.48,207.16 254.62,209.98 256.00,211.23C257.38,212.48 260.13,215.53 262.13,218.00C264.13,220.48 266.68,224.32 267.80,226.55C268.92,228.78 270.33,233.33 270.94,236.66C271.71,240.94 271.73,244.87 271.00,250.10C270.43,254.17 269.04,260.88 267.92,265.00C266.80,269.12 264.07,275.88 261.85,280.00C259.63,284.12 252.19,296.05 245.30,306.50C238.41,316.95 228.67,331.27 223.64,338.32C214.50,351.14 214.50,351.14 210.30,337.82C207.99,330.49 205.29,322.06 204.30,319.07C203.31,316.08 201.94,313.46 201.25,313.23C200.39,312.96 200.00,314.12 200.00,317.01C200.00,319.30 201.33,326.88 202.96,333.84C204.59,340.80 206.79,349.58 207.85,353.34C208.91,357.10 210.23,360.63 210.79,361.19C211.34,361.74 215.05,362.81 219.02,363.57C223.00,364.33 233.77,365.66 242.95,366.52C252.13,367.39 266.59,368.46 275.07,368.90C283.56,369.34 303.10,369.73 318.50,369.78zM381.74,359.80C382.43,359.23 383.00,357.67 383.00,356.35C383.00,355.02 382.32,353.68 381.49,353.36C380.66,353.04 379.31,353.33 378.49,354.01C377.67,354.69 377.00,356.07 377.00,357.07C377.00,358.08 377.78,359.34 378.74,359.87C379.89,360.52 380.91,360.49 381.74,359.80zM184.70,356.57C185.91,355.15 187.21,352.42 187.57,350.50C187.93,348.58 187.96,346.33 187.64,345.49C187.31,344.66 185.92,343.54 184.53,343.01C183.15,342.49 181.38,342.30 180.61,342.60C179.83,342.89 178.93,344.12 178.61,345.32C178.29,346.52 178.02,348.76 178.01,350.29C178.01,351.83 179.01,354.44 180.24,356.11C182.48,359.14 182.48,359.14 184.70,356.57zM146.58,353.06C149.79,350.24 150.41,350.08 156.25,350.54C159.69,350.81 163.45,351.24 164.61,351.50C166.33,351.88 167.40,350.82 170.36,345.83C172.36,342.46 174.00,339.35 174.00,338.93C174.00,338.51 171.86,337.49 169.25,336.66C166.64,335.84 160.79,334.60 156.26,333.90C148.18,332.67 147.96,332.69 145.56,334.95C144.21,336.22 142.41,339.29 141.56,341.79C140.32,345.41 140.23,347.15 141.11,350.41C141.71,352.66 142.42,354.85 142.68,355.28C142.94,355.71 144.70,354.71 146.58,353.06zM128.93,341.00C131.17,341.00 133.53,340.32 134.43,339.43C135.29,338.57 136.28,336.73 136.63,335.36C136.97,333.98 136.77,332.37 136.18,331.78C135.42,331.02 134.22,331.08 132.02,331.99C130.32,332.69 128.05,334.40 126.97,335.77C125.88,337.14 125.00,338.88 125.00,339.63C125.00,340.56 126.28,341.00 128.93,341.00zM530.01,339.98C529.72,340.45 528.02,339.64 526.23,338.17C524.07,336.40 523.01,334.66 523.05,333.00C523.13,330.53 523.14,330.53 524.02,332.72C524.51,333.94 526.06,335.23 527.47,335.58C528.88,335.93 531.37,336.03 533.01,335.78C534.66,335.54 536.00,335.73 536.00,336.20C536.00,336.67 534.77,337.52 533.27,338.09C531.77,338.66 530.30,339.51 530.01,339.98zM341.67,339.86C337.18,339.79 332.49,339.53 331.25,339.29C329.96,339.05 328.76,337.90 328.43,336.59C328.12,335.34 328.01,323.71 328.18,310.73C328.48,288.64 328.63,286.96 330.59,284.32C331.74,282.77 333.76,281.02 335.09,280.43C336.58,279.77 341.04,279.57 346.73,279.93C355.00,280.44 356.24,280.78 358.62,283.16C360.55,285.09 361.40,287.15 361.73,290.66C362.00,293.49 361.06,301.93 359.48,311.00C357.99,319.52 356.26,328.07 355.64,330.00C354.49,333.49 354.49,333.49 347.00,333.21C342.87,333.05 338.26,332.68 336.75,332.38C334.00,331.84 334.00,331.84 334.00,316.31C334.00,300.77 334.00,300.77 337.25,301.44C339.04,301.81 343.65,302.34 347.50,302.63C352.53,303.00 355.01,302.77 356.32,301.79C357.32,301.04 358.38,298.61 358.68,296.35C359.04,293.64 358.67,291.11 357.56,288.78C356.65,286.85 354.74,284.75 353.32,284.10C351.91,283.46 348.84,282.67 346.52,282.35C343.66,281.96 341.19,282.29 338.89,283.38C337.01,284.27 334.84,286.01 334.05,287.25C333.26,288.49 332.05,294.45 331.37,300.50C330.68,306.55 330.09,316.37 330.06,322.32C330.03,328.26 330.47,334.00 331.04,335.07C331.96,336.79 333.21,337.00 342.54,337.00C348.29,337.00 353.00,337.40 353.00,337.89C353.00,338.38 352.29,339.06 351.42,339.39C350.55,339.73 346.16,339.94 341.67,339.86zM183.02,335.00C183.44,335.00 184.11,334.21 184.50,333.25C184.89,332.29 186.10,329.02 187.19,326.00C188.29,322.98 191.62,313.37 194.59,304.65C197.57,295.93 200.00,287.72 200.00,286.40C200.00,284.72 199.44,284.00 198.12,284.00C196.83,284.00 195.61,285.49 194.22,288.75C193.11,291.36 190.17,299.12 187.69,306.00C185.21,312.88 182.70,321.11 182.11,324.31C181.53,327.50 180.77,330.56 180.44,331.10C180.10,331.64 180.37,332.74 181.04,333.54C181.70,334.34 182.59,335.00 183.02,335.00zM174.82,332.80C178.13,332.51 178.22,332.39 178.40,327.72C178.54,324.17 178.11,322.50 176.74,321.26C174.95,319.64 174.96,319.54 177.20,317.85C178.85,316.60 179.59,314.90 179.81,311.81C179.97,309.44 180.07,306.26 180.02,304.75C179.97,303.24 179.86,299.86 179.77,297.25C179.69,294.64 179.99,289.91 180.44,286.75C181.27,281.01 181.27,281.01 176.45,278.88C173.06,277.38 171.17,277.03 170.07,277.71C169.20,278.24 166.87,282.70 164.88,287.63C162.89,292.55 159.44,302.87 157.20,310.54C154.97,318.22 153.00,325.60 152.82,326.94C152.51,329.28 152.84,329.42 161.40,330.67C166.29,331.38 170.55,332.22 170.86,332.53C171.17,332.84 172.96,332.96 174.82,332.80zM547.58,324.00C546.68,324.00 545.69,323.35 545.38,322.55C545.07,321.75 545.09,320.66 545.42,320.14C545.74,319.61 544.77,318.26 543.26,317.15C540.98,315.47 540.69,314.80 541.60,313.31C542.30,312.16 544.15,311.39 546.66,311.20C549.50,310.99 551.37,311.50 553.30,313.02C554.79,314.19 556.00,315.47 556.00,315.88C556.00,316.28 554.48,318.27 552.62,320.30C550.75,322.34 548.49,324.00 547.58,324.00zM347.91,316.00C349.29,316.00 350.40,315.09 351.02,313.43C351.56,312.02 352.00,310.22 352.00,309.43C352.00,308.57 351.01,308.00 349.50,308.00C347.79,308.00 347.00,308.55 346.99,309.75C346.98,310.71 346.70,312.51 346.37,313.75C345.88,315.57 346.18,316.00 347.91,316.00zM548.42,306.53C541.52,306.51 537.49,306.09 536.85,305.32C536.16,304.49 536.64,303.63 538.46,302.43C540.49,301.10 542.48,300.85 547.53,301.25C551.09,301.54 555.12,302.51 556.50,303.41C557.87,304.31 559.00,305.39 559.00,305.80C559.00,306.22 554.24,306.54 548.42,306.53zM345.30,295.00C343.49,295.00 342.00,294.80 342.00,294.57C342.00,294.33 342.44,292.98 342.98,291.57C343.54,290.07 344.73,289.00 345.82,289.00C346.85,289.00 348.43,289.82 349.33,290.81C350.60,292.21 350.70,292.90 349.79,293.81C349.13,294.47 347.12,295.00 345.30,295.00zM231.25,283.92C232.49,283.28 235.19,281.15 237.25,279.18C240.05,276.51 241.00,276.03 241.00,277.30C241.00,278.23 241.39,279.00 241.87,279.00C242.34,279.00 244.03,277.99 245.61,276.75C247.20,275.51 249.54,273.38 250.81,272.00C252.09,270.62 254.48,266.72 256.12,263.33C257.77,259.93 259.61,254.16 260.22,250.51C261.05,245.51 261.02,242.23 260.11,237.30C259.45,233.69 257.75,228.46 256.34,225.67C254.92,222.89 251.14,217.98 247.93,214.77C244.56,211.40 239.78,207.87 236.62,206.43C233.62,205.05 228.76,203.64 225.83,203.30C220.50,202.67 220.50,202.67 226.59,208.67C231.33,213.34 233.42,216.42 236.03,222.58C239.29,230.29 239.38,230.87 239.40,244.50C239.41,254.73 238.95,260.25 237.67,264.99C236.70,268.56 234.36,274.32 232.46,277.78C230.56,281.24 229.00,284.29 229.00,284.57C229.00,284.85 230.01,284.55 231.25,283.92zM296.11,281.00C295.62,281.00 294.97,279.99 294.68,278.75C294.38,277.51 294.02,268.30 293.87,258.29C293.72,248.27 293.88,239.78 294.23,239.43C294.58,239.08 295.86,239.49 297.07,240.34C298.28,241.19 300.56,245.09 302.14,249.01C303.71,252.93 305.00,257.20 305.00,258.51C305.00,259.81 304.59,261.13 304.10,261.44C303.60,261.75 302.21,260.33 301.01,258.29C299.09,255.04 298.70,254.79 297.84,256.33C297.30,257.29 296.98,260.65 297.13,263.79C297.29,266.93 297.32,272.09 297.21,275.25C297.09,278.41 296.60,281.00 296.11,281.00zM373.40,280.00C373.18,280.00 373.02,278.99 373.04,277.75C373.06,276.51 373.46,269.80 373.94,262.83C374.42,255.87 375.27,249.35 375.83,248.35C376.74,246.71 376.91,246.81 377.54,249.29C377.92,250.80 377.93,255.07 377.57,258.77C377.20,262.47 376.21,268.76 375.35,272.75C374.50,276.74 373.62,280.00 373.40,280.00zM626.25,277.33C626.66,277.08 627.00,275.94 627.00,274.78C627.00,273.62 625.84,270.70 624.43,268.30C623.02,265.89 620.05,262.60 617.83,260.99C615.61,259.38 610.23,256.69 605.88,255.01C601.53,253.34 595.00,251.27 591.36,250.43C587.72,249.59 583.55,249.16 582.08,249.48C580.62,249.80 577.93,250.97 576.10,252.08C572.90,254.03 572.84,254.17 574.55,256.05C576.23,257.92 576.23,258.00 574.45,258.00C573.31,258.00 572.96,258.35 573.55,258.91C574.07,259.42 575.62,259.98 577.00,260.16C578.68,260.39 579.41,260.06 579.22,259.16C579.00,258.09 580.48,257.96 586.72,258.52C591.00,258.90 596.41,260.04 598.73,261.04C601.06,262.05 604.49,264.03 606.35,265.46C608.21,266.88 610.42,267.78 611.25,267.46C612.18,267.10 615.18,268.95 619.13,272.32C622.63,275.32 625.84,277.57 626.25,277.33zM210.11,275.92C211.25,275.98 212.91,273.01 215.77,265.75C218.00,260.11 220.36,252.82 221.02,249.54C221.69,246.26 221.97,241.43 221.66,238.79C221.35,236.16 220.15,231.87 219.00,229.26C217.85,226.66 215.95,223.51 214.79,222.27C213.62,221.03 210.16,219.08 207.09,217.93C204.02,216.78 198.55,215.59 194.95,215.29C190.08,214.88 187.61,215.15 185.35,216.32C183.67,217.19 180.82,219.58 179.02,221.63C177.21,223.69 174.91,227.20 173.89,229.43C172.87,231.67 172.03,235.56 172.02,238.07C172.01,240.58 172.67,244.90 173.50,247.67C174.32,250.44 176.08,254.31 177.41,256.27C178.74,258.23 179.57,260.10 179.25,260.42C178.93,260.74 176.83,261.01 174.58,261.02C172.34,261.02 169.89,261.42 169.14,261.89C168.40,262.36 168.19,263.00 168.68,263.31C169.18,263.61 176.48,265.70 184.91,267.94C193.34,270.19 202.09,272.88 204.37,273.93C206.64,274.98 209.23,275.87 210.11,275.92zM159.75,240.00C160.16,239.99 162.18,236.72 164.23,232.73C166.28,228.73 170.21,222.80 172.96,219.55C175.71,216.29 177.76,213.43 177.51,213.18C177.27,212.93 175.69,213.30 174.01,214.00C172.32,214.69 168.94,217.50 166.48,220.23C163.67,223.36 161.46,227.07 160.51,230.28C159.68,233.08 159.00,236.41 159.00,237.68C159.00,238.96 159.34,240.00 159.75,240.00zM231.33,230.07C231.92,229.48 231.81,227.30 231.06,224.31C230.39,221.67 228.97,218.07 227.89,216.32C226.81,214.57 224.37,211.78 222.47,210.11C220.58,208.45 217.27,206.61 215.12,206.03C212.87,205.43 210.27,205.33 208.97,205.82C206.89,206.58 207.14,206.89 212.11,209.69C215.08,211.37 219.42,214.81 221.76,217.35C224.09,219.89 227.00,224.00 228.20,226.48C229.57,229.29 230.75,230.65 231.33,230.07zM338.00,229.80C338.27,229.90 339.51,229.70 340.75,229.37C341.99,229.04 343.00,228.15 343.00,227.40C343.00,226.65 341.99,225.83 340.75,225.57C339.51,225.32 334.68,224.83 330.00,224.49C325.32,224.14 318.57,223.21 315.00,222.40C311.43,221.60 306.85,219.94 304.84,218.72C302.83,217.50 299.10,215.21 296.56,213.64C294.02,212.06 290.38,210.42 288.47,209.99C286.56,209.56 285.00,209.53 285.00,209.92C285.00,210.30 288.04,213.25 291.75,216.46C295.46,219.67 300.09,223.35 302.04,224.65C304.82,226.48 307.86,227.21 316.04,227.99C321.79,228.54 328.98,229.13 332.00,229.31C335.02,229.49 337.73,229.71 338.00,229.80zM324.33,216.98C326.96,217.00 328.04,216.61 327.76,215.75C327.53,215.06 325.88,214.36 324.08,214.18C322.28,214.00 320.08,214.14 319.18,214.48C317.78,215.02 317.76,215.23 319.03,216.04C319.84,216.55 322.23,216.98 324.33,216.98zM326.25,207.15C327.21,206.94 328.00,206.15 328.00,205.40C328.00,204.65 326.91,203.76 325.58,203.43C324.25,203.10 322.34,202.98 321.34,203.17C320.34,203.37 319.38,204.27 319.20,205.19C318.97,206.37 319.70,206.96 321.69,207.20C323.24,207.38 325.29,207.36 326.25,207.15zM303.00,205.83C303.82,205.91 305.15,205.56 305.94,205.06C307.14,204.30 307.16,203.89 306.03,202.53C305.00,201.29 303.25,200.98 298.59,201.21C293.97,201.43 292.50,201.86 292.50,203.00C292.50,204.02 293.93,204.69 297.00,205.10C299.48,205.43 302.18,205.76 303.00,205.83zM325.50,196.79C326.05,196.83 327.40,196.49 328.50,196.04C330.36,195.28 330.30,195.14 327.68,194.11C326.14,193.50 323.77,193.00 322.43,193.00C320.99,193.00 320.00,193.58 320.00,194.43C320.00,195.22 321.01,196.06 322.25,196.29C323.49,196.53 324.95,196.76 325.50,196.79zM298.00,195.00C301.88,195.00 305.18,194.53 305.55,193.91C305.92,193.31 305.73,192.33 305.13,191.73C304.52,191.12 301.42,190.44 298.22,190.21C293.80,189.89 292.11,190.16 291.12,191.35C290.41,192.21 290.12,193.38 290.47,193.96C290.83,194.53 294.21,195.00 298.00,195.00zM299.25,184.92C301.86,184.96 304.00,184.60 304.00,184.11C304.00,183.62 303.29,182.94 302.42,182.61C301.55,182.27 298.85,182.00 296.42,182.00C293.99,182.00 292.00,182.41 292.00,182.92C292.00,183.42 292.56,184.06 293.25,184.34C293.94,184.62 296.64,184.88 299.25,184.92zM363.76,183.16C365.00,182.94 368.33,180.36 371.16,177.42C373.99,174.49 378.69,168.92 381.59,165.06C384.50,161.19 388.90,154.31 391.37,149.76C393.84,145.22 396.17,140.24 396.55,138.71C397.24,135.92 397.24,135.92 393.55,137.68C390.13,139.31 389.54,139.32 385.46,137.85C383.04,136.98 380.82,136.51 380.53,136.80C380.24,137.09 380.00,138.92 380.00,140.87C380.00,143.25 379.67,144.07 378.99,143.39C378.43,142.83 377.69,137.36 377.34,131.23C376.80,121.91 376.99,119.32 378.46,115.45C379.61,112.46 381.33,110.16 383.37,108.92C385.09,107.87 388.15,107.01 390.17,107.00C392.18,107.00 395.90,107.88 398.42,108.96C403.00,110.93 403.00,110.93 403.00,108.05C403.00,106.46 402.72,104.44 402.38,103.54C402.04,102.65 400.48,101.27 398.93,100.46C397.37,99.66 394.08,99.00 391.62,99.00C388.87,99.00 386.53,98.39 385.56,97.42C384.69,96.55 384.24,95.43 384.55,94.92C384.86,94.41 387.23,94.00 389.82,94.00C392.40,94.00 396.00,94.43 397.81,94.95C400.35,95.67 401.23,95.57 401.64,94.51C401.93,93.75 400.93,90.38 399.43,87.02C397.92,83.66 395.41,79.84 393.85,78.53C392.30,77.22 388.43,75.61 385.27,74.95C382.11,74.30 375.31,72.72 370.15,71.44C365.00,70.16 360.52,68.85 360.19,68.53C359.87,68.20 362.28,68.22 365.55,68.56C368.82,68.90 375.06,69.82 379.41,70.60C383.76,71.38 387.58,71.75 387.91,71.41C388.23,71.08 386.11,68.60 383.19,65.91C380.27,63.22 374.64,59.48 370.69,57.61C366.74,55.73 360.12,53.44 356.00,52.52C351.88,51.60 342.88,50.60 336.00,50.30C328.89,50.00 321.09,50.22 317.91,50.82C314.84,51.40 309.79,53.07 306.70,54.54C303.60,56.00 297.91,59.86 294.04,63.10C290.18,66.35 286.56,69.00 286.01,69.00C285.45,69.00 285.00,68.57 285.00,68.05C285.00,67.54 287.50,65.07 290.56,62.58C293.61,60.09 298.81,56.62 302.10,54.87C305.68,52.96 307.72,51.32 307.17,50.77C306.63,50.23 303.76,50.32 300.01,51.00C296.57,51.62 291.45,53.16 288.63,54.42C285.81,55.67 281.07,58.63 278.10,60.99C275.13,63.36 270.51,67.39 267.85,69.96C265.18,72.53 263.00,75.22 263.00,75.94C263.00,76.92 264.31,77.13 268.13,76.76C270.95,76.49 275.11,76.68 277.38,77.18C279.64,77.69 283.18,79.20 285.23,80.55C287.28,81.90 289.54,83.00 290.25,83.00C290.96,83.00 292.44,81.32 293.52,79.26C294.61,77.20 297.04,73.80 298.92,71.70C300.80,69.61 304.17,66.84 306.42,65.56C308.66,64.28 311.74,62.95 313.25,62.60C314.76,62.25 315.99,62.31 315.97,62.73C315.96,63.15 313.69,65.03 310.94,66.90C308.18,68.77 303.81,72.62 301.21,75.47C298.62,78.31 295.87,81.83 295.10,83.28C293.85,85.64 293.98,86.74 296.35,93.92C298.34,99.94 299.00,103.95 299.00,110.07C299.00,114.55 298.29,120.98 297.42,124.36C296.55,127.74 294.13,134.10 292.05,138.50C289.88,143.07 286.01,148.98 283.02,152.27C278.95,156.77 278.04,158.35 278.91,159.40C279.54,160.15 283.21,161.05 287.27,161.44C291.24,161.82 298.42,162.98 303.22,164.02C308.02,165.05 312.91,166.42 314.10,167.05C315.28,167.69 318.20,169.69 320.57,171.50C322.95,173.32 327.73,175.72 331.20,176.85C334.66,177.98 340.43,179.66 344.00,180.58C347.57,181.50 352.98,182.54 356.00,182.90C359.02,183.26 362.52,183.37 363.76,183.16zM365.25,171.95C362.64,171.93 358.25,171.03 355.50,169.95C352.75,168.88 349.79,168.00 348.92,168.00C348.06,168.00 346.37,166.96 345.17,165.69C343.98,164.41 343.00,162.34 343.00,161.08C343.00,159.32 343.40,158.94 344.73,159.45C345.68,159.81 350.97,160.75 356.48,161.54C361.99,162.32 369.09,162.97 372.25,162.98C375.41,162.99 378.00,163.40 378.00,163.88C378.00,164.37 376.20,166.39 374.00,168.38C370.55,171.49 369.33,171.99 365.25,171.95zM373.99,156.40C372.62,156.70 369.75,156.32 367.60,155.55C365.46,154.77 363.01,153.44 362.16,152.59C361.31,151.74 360.97,150.70 361.39,150.27C361.82,149.85 365.50,149.44 369.59,149.37C373.71,149.29 377.66,148.70 378.46,148.03C379.26,147.37 380.38,147.12 380.95,147.47C381.65,147.90 381.52,149.04 380.56,150.88C379.78,152.40 378.54,154.14 377.81,154.74C377.08,155.35 375.37,156.09 373.99,156.40zM314.19,151.00C313.29,153.44 313.29,153.44 312.86,150.47C312.62,148.84 312.75,142.78 313.16,137.00C313.56,131.22 314.36,124.70 314.93,122.50C315.73,119.41 315.87,121.91 315.53,133.53C315.29,141.80 314.69,149.66 314.19,151.00zM253.11,145.00C253.60,145.00 254.00,144.06 254.00,142.91C254.00,140.93 254.35,140.86 261.34,141.52C267.60,142.10 269.25,141.91 272.59,140.19C274.74,139.09 277.68,136.90 279.12,135.34C280.57,133.78 282.91,130.70 284.34,128.50C285.76,126.30 287.66,121.35 288.56,117.50C289.59,113.08 290.03,108.05 289.74,103.86C289.46,99.81 288.39,95.38 287.01,92.52C285.70,89.82 283.04,86.59 280.75,84.93C278.56,83.35 275.17,81.75 273.22,81.38C271.13,80.99 268.94,81.18 267.85,81.86C266.85,82.49 264.82,83.00 263.35,83.00C261.88,83.00 258.78,84.11 256.47,85.47C253.92,86.96 251.58,89.36 250.54,91.55C249.60,93.54 249.09,95.42 249.41,95.74C249.73,96.06 251.14,95.80 252.54,95.16C253.95,94.52 256.40,94.00 257.99,94.00C259.58,94.00 261.16,94.45 261.50,95.00C261.84,95.55 262.99,96.00 264.06,96.00C265.13,96.00 266.00,95.55 266.00,95.00C266.00,94.45 266.45,94.00 267.00,94.00C267.55,94.00 269.65,96.29 271.66,99.09C274.63,103.23 275.48,103.89 276.21,102.60C276.69,101.73 276.79,99.42 276.43,97.47C276.06,95.53 274.64,92.26 273.26,90.22C271.05,86.95 271.01,86.73 272.90,88.43C274.08,89.49 276.39,93.09 278.02,96.43C279.66,99.77 281.29,104.65 281.64,107.28C282.07,110.48 281.72,114.12 280.59,118.28C279.66,121.70 277.35,126.62 275.46,129.22C273.57,131.81 270.83,134.72 269.37,135.68C267.55,136.87 264.79,137.40 260.61,137.37C257.25,137.35 253.26,136.98 251.75,136.55C249.83,136.00 249.00,136.13 249.00,136.98C249.00,137.65 249.73,139.73 250.61,141.60C251.50,143.47 252.63,145.00 253.11,145.00zM351.35,135.90C348.68,135.84 345.15,135.47 343.50,135.07C341.85,134.67 339.46,133.79 338.20,133.11C336.93,132.43 335.02,130.44 333.95,128.69C332.88,126.93 332.01,124.38 332.00,123.00C332.00,121.62 333.30,117.76 334.88,114.42C336.46,111.07 338.96,107.39 340.44,106.23C341.92,105.06 344.74,103.58 346.71,102.93C348.68,102.28 352.59,101.99 355.41,102.28C358.22,102.57 362.22,103.62 364.29,104.60C366.63,105.72 368.29,107.32 368.67,108.83C369.01,110.16 368.82,115.05 368.26,119.69C367.48,126.12 366.70,128.69 365.00,130.50C363.76,131.81 361.28,133.59 359.48,134.44C357.67,135.30 354.02,135.95 351.35,135.90zM393.03,125.14C394.11,123.84 395.00,122.01 395.00,121.08C395.00,120.15 394.41,118.58 393.69,117.60C392.89,116.50 391.45,115.94 389.94,116.16C388.39,116.37 387.39,117.25 387.21,118.56C387.04,119.69 387.83,121.44 388.96,122.46C390.08,123.48 391.01,125.03 391.03,125.90C391.06,127.12 391.54,126.93 393.03,125.14zM255.12,122.97C255.45,122.99 256.92,122.07 258.37,120.93C259.81,119.79 261.00,117.92 261.00,116.77C261.00,114.81 260.89,114.79 259.16,116.35C257.86,117.53 256.40,117.83 254.16,117.38C251.43,116.84 251.00,117.03 251.00,118.83C251.00,119.97 251.79,121.36 252.75,121.92C253.71,122.48 254.78,122.95 255.12,122.97zM350.70,123.00C351.39,123.00 352.64,121.67 353.47,120.05C354.31,118.43 355.00,116.01 355.00,114.67C355.00,113.34 354.33,111.69 353.51,111.01C352.66,110.30 350.95,110.05 349.51,110.41C348.13,110.75 347.00,111.67 347.00,112.44C347.00,113.20 347.56,114.02 348.25,114.25C349.02,114.51 348.63,115.13 347.25,115.87C346.01,116.53 345.00,117.70 345.00,118.48C345.00,119.25 346.00,120.59 347.22,121.44C348.44,122.30 350.01,123.00 350.70,123.00zM352.51,94.67C347.29,94.58 343.01,94.21 343.01,93.87C343.00,93.52 344.16,93.01 345.59,92.74C347.01,92.47 351.07,92.48 354.61,92.76C358.16,93.05 361.27,93.63 361.54,94.06C361.80,94.49 357.74,94.76 352.51,94.67zM339.72,67.75C331.05,67.69 324.32,67.28 324.76,66.84C325.21,66.39 327.91,65.59 330.78,65.04C334.25,64.38 338.72,64.40 344.18,65.08C348.69,65.65 353.07,66.50 353.93,66.98C354.86,67.50 349.16,67.81 339.72,67.75z"/>

</svg>