<svg xmlns="http://www.w3.org/2000/svg" xmlns:xlink="http://www.w3.org/1999/xlink" xmlns:svg="http://www.w3.org/2000/svg" xmlns:rdf="http://www.w3.org/1999/02/22-rdf-syntax-ns#" xmlns:cc="http://creativecommons.org/ns#" xmlns:dc="http://purl.org/dc/elements/1.1/" version="1.1" viewBox="0 0 768 768" width="768" height="768">
<style>svg {background-color: white; }</style>"
<metadata id="metadata1">
Created by https://svgstud.io and licensed under CC-BY-SA 4.0 license. Please attribute https://svgstud.io
</metadata>
<metadata id="prompt">
An AI-powered robotic interviewer generating intelligent, real-time responses to interview questions. The scene features a futuristic robot sitting at a desk, analyzing a candidate’s responses on a holographic screen while also scanning and reviewing a human resume. The background has a professional yet modern tech-inspired aesthetic, symbolizing AI-driven interviews, automated hiring processes, and intelligent resume evaluation.
</metadata>
<metadata id="version">
7
</metadata>
<metadata id="metadata2">
<rdf:RDF>
<cc:Work rdf:about="">
    <cc:license rdf:resource="http://creativecommons.org/licenses/by-sa/4.0/"/>
    <dc:creator>
        <cc:Agent>
            <dc:title>https://svgstud.io</dc:title>
        </cc:Agent>
    </dc:creator>
</cc:Work>
<cc:License rdf:about="http://creativecommons.org/licenses/by-sa/4.0/">
    <cc:permits rdf:resource="http://creativecommons.org/ns#Reproduction"/>
    <cc:permits rdf:resource="http://creativecommons.org/ns#Distribution"/>
    <cc:requires rdf:resource="http://creativecommons.org/ns#Notice"/>
    <cc:requires rdf:resource="http://creativecommons.org/ns#Attribution"/>
    <cc:permits rdf:resource="http://creativecommons.org/ns#DerivativeWorks"/>
    <cc:requires rdf:resource="http://creativecommons.org/ns#ShareAlike"/>
</cc:License>
</rdf:RDF>
</metadata>
<metadata id="uid">
60543d78c94caa74cd143d3483e7049684a474e1ae011e733c378fc69b41e86d
</metadata>
<path stroke="#1A8850" fill="#1A8850" fill-rule="evenodd" d="M127.15,768.00C102.50,768.00 102.50,768.00 102.50,740.75C102.50,725.76 102.15,712.26 101.73,710.75C101.10,708.50 100.38,707.99 97.73,707.93C95.95,707.89 93.60,707.50 92.50,707.05C91.36,706.59 89.96,706.68 89.25,707.25C88.45,707.88 88.00,710.91 88.00,715.56C88.00,719.59 87.56,723.16 87.01,723.49C86.47,723.83 77.36,722.76 66.76,721.12C56.17,719.48 37.83,716.73 26.00,715.02C14.17,713.30 3.49,711.69 2.25,711.43C0.07,710.98 -0.00,710.59 -0.00,699.16C-0.00,687.36 -0.00,687.36 14.75,689.17C22.86,690.17 36.47,691.90 45.00,693.02C53.53,694.14 63.78,695.50 67.79,696.03C71.80,696.56 75.96,697.00 77.04,697.00C78.12,697.00 79.00,696.60 79.00,696.11C79.00,695.62 77.99,694.97 76.75,694.66C75.51,694.36 63.25,692.53 49.50,690.60C35.75,688.67 20.00,686.60 14.50,685.99C9.00,685.38 3.49,684.68 2.25,684.42C0.44,684.05 -0.00,683.29 -0.00,680.48C-0.00,677.75 0.40,677.00 1.87,677.00C2.90,677.00 12.69,678.14 23.62,679.52C34.55,680.91 55.10,683.61 69.27,685.52C83.45,687.44 96.39,689.00 98.02,689.00C100.60,689.00 101.00,688.63 101.00,686.25C100.99,683.58 100.83,683.50 95.25,683.43C92.09,683.38 80.72,682.17 70.00,680.72C59.27,679.27 42.62,677.16 33.00,676.04C23.38,674.92 12.01,673.50 7.75,672.88C0.56,671.85 0.00,671.60 0.00,669.38C0.00,667.57 0.54,667.00 2.25,667.02C3.49,667.03 7.51,667.48 11.19,668.01C14.87,668.54 36.92,671.04 60.19,673.56C90.34,676.82 106.52,678.13 116.50,678.11C124.20,678.09 136.12,677.63 143.00,677.07C149.88,676.52 174.18,675.60 197.00,675.04C219.82,674.47 253.66,674.01 272.18,674.00C290.70,674.00 333.45,673.11 367.18,672.03C400.91,670.94 443.12,669.58 461.00,669.00C478.88,668.42 512.85,667.06 536.50,665.99C560.15,664.91 590.30,663.56 603.50,662.99C616.70,662.42 658.42,660.61 696.22,658.98C734.01,657.34 765.63,656.00 766.47,656.00C767.81,656.00 768.00,659.36 768.00,682.44C768.00,708.78 767.99,708.88 765.90,708.48C764.44,708.20 763.63,708.68 763.27,710.06C762.88,711.58 762.45,711.79 761.42,710.93C760.69,710.33 759.65,710.10 759.11,710.43C758.57,710.77 757.31,714.52 756.31,718.77C754.87,724.93 754.50,730.72 754.50,747.25C754.50,768.00 754.50,768.00 750.26,768.00C746.02,768.00 746.02,768.00 745.76,722.75C745.50,677.50 745.50,677.50 740.50,677.79C737.75,677.95 727.17,678.71 717.00,679.49C706.83,680.27 691.75,681.15 683.50,681.45C675.25,681.75 656.58,682.45 642.00,683.00C627.42,683.55 596.83,684.68 574.00,685.51C551.17,686.34 525.75,687.47 517.50,688.03C509.25,688.58 490.35,689.71 475.50,690.52C460.65,691.34 438.15,692.45 425.50,692.99C412.85,693.53 390.57,694.45 376.00,695.04C361.43,695.64 339.60,696.76 327.50,697.55C315.40,698.34 302.90,698.99 299.73,698.99C294.45,699.00 293.87,699.22 292.98,701.57C292.42,703.04 292.00,717.74 292.00,736.07C292.00,768.00 292.00,768.00 231.01,768.00C170.03,768.00 170.03,768.00 169.76,738.25C169.50,708.50 169.50,708.50 162.00,708.50C154.50,708.50 154.50,708.50 153.73,714.50C153.30,717.80 152.69,731.19 152.37,744.25C151.79,768.00 151.79,768.00 127.15,768.00zM765.48,768.00C763.40,768.00 763.04,767.61 763.43,765.75C763.68,764.51 764.17,759.41 764.51,754.41C764.85,749.41 765.73,743.11 766.47,740.41C767.76,735.73 767.83,736.28 767.91,751.75C768.00,768.00 768.00,768.00 765.48,768.00zM145.44,697.52C152.28,697.13 161.17,696.42 165.19,695.96C171.26,695.25 170.39,695.18 160.09,695.55C153.27,695.80 144.38,696.00 140.34,696.00C135.59,696.00 133.00,696.39 133.00,697.12C133.00,697.93 136.50,698.04 145.44,697.52zM118.25,689.84C122.57,689.96 124.00,689.65 124.00,688.61C124.00,687.84 123.29,686.94 122.42,686.61C121.55,686.27 117.50,686.00 113.42,686.00C107.64,686.00 106.00,686.32 106.00,687.44C106.00,688.31 107.28,689.03 109.25,689.28C111.04,689.50 115.09,689.75 118.25,689.84zM143.00,687.50C146.57,687.22 159.62,686.53 172.00,685.97C184.38,685.40 202.58,684.25 212.46,683.42C222.34,682.58 233.52,681.50 237.30,681.03C241.08,680.55 244.43,679.90 244.75,679.58C245.07,679.26 243.80,679.01 241.92,679.01C240.04,679.02 222.07,679.68 202.00,680.48C181.93,681.28 159.08,682.24 151.23,682.62C141.87,683.07 136.36,683.77 135.23,684.64C133.71,685.80 133.69,686.09 135.00,686.99C135.85,687.57 139.30,687.79 143.00,687.50zM290.50,687.59C294.90,687.24 318.75,686.06 343.50,684.97C368.25,683.88 403.35,682.32 421.50,681.51C439.65,680.70 466.88,679.58 482.00,679.02C497.12,678.46 516.25,677.56 524.50,677.01C532.75,676.47 553.67,675.35 571.00,674.52C588.33,673.70 615.55,672.56 631.50,672.00C647.45,671.43 671.98,670.32 686.00,669.53C700.02,668.74 721.00,667.58 732.61,666.95C744.23,666.32 755.25,665.42 757.11,664.95C759.16,664.44 753.95,664.31 744.00,664.63C734.92,664.92 719.40,665.57 709.50,666.08C699.60,666.59 681.15,667.46 668.50,668.01C655.85,668.57 637.62,669.48 628.00,670.04C618.38,670.59 593.17,671.71 572.00,672.51C550.83,673.31 524.95,674.40 514.50,674.94C504.05,675.48 481.32,676.19 464.00,676.51C446.68,676.84 418.55,677.76 401.50,678.56C384.45,679.35 361.05,680.47 349.50,681.03C337.95,681.60 324.00,682.51 318.50,683.05C313.00,683.60 302.88,684.74 296.01,685.60C289.13,686.46 283.28,687.40 283.01,687.69C282.73,687.98 286.10,687.94 290.50,687.59zM220.50,632.59C207.79,633.10 205.17,632.95 203.36,631.62C202.19,630.75 200.94,628.88 200.58,627.46C200.09,625.51 200.58,624.10 202.56,621.74C204.01,620.02 206.28,616.17 207.60,613.18C208.92,610.20 209.99,606.79 209.98,605.63C209.98,604.46 209.61,602.93 209.17,602.24C208.57,601.30 207.87,601.55 206.37,603.24C205.28,604.48 203.62,606.62 202.69,608.00C201.76,609.38 199.49,612.77 197.64,615.55C194.66,620.04 193.71,620.72 189.07,621.80C186.20,622.46 181.28,623.00 178.15,623.00C174.53,623.00 171.61,622.41 170.15,621.39C168.89,620.51 167.49,618.82 167.05,617.64C166.53,616.27 166.77,614.47 167.70,612.64C168.51,611.06 171.06,607.01 173.37,603.64C175.68,600.26 178.86,594.46 180.43,590.75C182.18,586.63 183.92,583.95 184.90,583.88C185.78,583.82 186.81,583.81 187.19,583.86C187.58,583.92 188.89,582.51 190.12,580.73C191.35,578.95 194.53,575.16 197.18,572.31C199.83,569.46 202.00,566.23 202.00,565.14C202.00,564.05 203.17,561.77 204.59,560.08C206.01,558.38 207.88,557.00 208.73,557.00C209.58,557.00 210.78,557.67 211.39,558.49C212.32,559.75 213.54,559.82 219.00,558.94C222.57,558.36 225.79,557.57 226.15,557.19C226.51,556.81 226.96,555.63 227.15,554.57C227.35,553.50 229.30,551.61 231.50,550.37C233.70,549.12 236.62,547.57 238.00,546.92C239.38,546.27 244.07,545.63 248.43,545.50C255.14,545.30 256.63,544.94 258.08,543.15C259.03,541.98 260.97,540.58 262.40,540.04C263.83,539.49 265.00,538.36 265.00,537.52C265.00,536.69 265.21,536.00 265.46,536.00C265.71,536.00 267.58,537.13 269.62,538.52C272.09,540.19 274.02,540.81 275.41,540.38C276.56,540.03 277.65,539.35 277.83,538.88C278.01,538.41 279.91,539.04 282.06,540.27C284.28,541.53 286.38,543.69 286.93,545.25C287.46,546.76 288.42,548.00 289.05,548.00C289.69,548.00 289.96,547.34 289.65,546.53C289.34,545.72 289.46,544.83 289.92,544.55C290.38,544.27 292.95,544.66 295.63,545.42C298.31,546.18 302.21,547.10 304.30,547.46C306.39,547.82 308.36,548.78 308.68,549.60C309.18,550.90 309.46,550.89 310.98,549.52C312.53,548.11 312.85,548.11 313.98,549.47C314.68,550.31 315.81,551.00 316.50,551.00C317.19,551.00 318.25,551.60 318.87,552.34C319.48,553.07 322.49,554.24 325.56,554.93C328.63,555.61 335.00,557.48 339.70,559.07C344.41,560.66 348.61,561.74 349.05,561.47C349.49,561.20 348.31,558.69 346.42,555.89C344.18,552.55 343.00,549.62 343.00,547.37C343.00,545.48 342.36,542.41 341.58,540.53C340.78,538.63 338.38,535.96 336.13,534.47C332.68,532.18 331.95,531.06 331.07,526.65C330.51,523.82 329.34,517.00 328.48,511.50C327.63,506.00 326.69,500.03 326.41,498.24C325.98,495.47 325.00,494.49 319.89,491.74C316.58,489.96 312.03,487.50 309.78,486.28C307.53,485.05 304.63,483.06 303.33,481.84C302.03,480.62 299.79,477.61 298.34,475.14C296.39,471.81 295.50,468.45 294.86,462.08C294.38,457.36 293.05,447.88 291.89,441.00C290.74,434.12 288.83,425.57 287.65,422.00C286.47,418.43 285.05,415.50 284.50,415.50C283.95,415.50 281.01,422.93 277.96,432.00C274.91,441.07 269.42,457.27 265.76,468.00C262.10,478.73 257.97,491.34 256.59,496.03C254.83,501.98 253.23,505.34 251.29,507.15C249.75,508.57 247.27,510.52 245.76,511.48C244.26,512.43 239.98,513.97 236.26,514.90C229.50,516.59 229.50,516.59 226.72,525.21C224.72,531.37 222.83,535.06 220.08,538.16C216.44,542.25 215.92,542.50 210.90,542.50C205.58,542.50 205.58,542.50 204.02,546.95C202.74,550.64 201.28,552.22 195.49,556.24C191.64,558.90 186.25,562.16 183.50,563.49C180.75,564.83 174.45,566.58 169.50,567.39C164.06,568.29 149.02,569.15 131.50,569.56C106.33,570.16 102.17,570.48 100.00,571.99C98.62,572.94 95.88,574.25 93.91,574.89C91.85,575.55 87.22,575.85 83.07,575.59C79.09,575.33 74.85,574.48 73.66,573.70C72.47,572.92 69.69,572.04 67.50,571.74C65.22,571.44 61.34,571.85 58.48,572.71C53.96,574.07 53.11,574.06 49.98,572.64C48.07,571.77 45.30,570.09 43.84,568.90C41.89,567.32 39.34,566.61 34.25,566.25C27.94,565.80 27.11,565.97 25.15,568.07C23.97,569.34 23.00,570.94 23.00,571.63C23.00,572.32 23.44,573.15 23.97,573.48C24.51,573.81 25.80,576.03 26.86,578.41C28.77,582.74 28.77,582.74 35.64,583.40C39.41,583.76 48.58,584.77 56.00,585.66C63.42,586.54 70.40,587.63 71.50,588.07C72.61,588.51 63.60,588.90 51.36,588.94C32.13,588.99 29.13,589.21 28.61,590.58C28.27,591.45 28.00,592.42 28.00,592.73C28.00,593.05 40.70,593.05 56.22,592.74C79.75,592.27 84.91,592.42 87.26,593.63C88.80,594.43 92.93,595.97 96.44,597.05C101.94,598.75 102.96,599.45 103.91,602.16C104.51,603.89 105.00,606.27 105.00,607.46C105.00,608.65 105.66,610.49 106.47,611.56C107.28,612.63 107.95,613.79 107.97,614.14C107.99,614.49 106.99,615.03 105.75,615.34C104.51,615.65 95.17,616.36 85.00,616.93C74.83,617.50 55.25,618.42 41.50,618.98C27.75,619.53 12.79,620.26 8.25,620.58C0.00,621.18 0.00,621.18 0.00,616.73C0.00,612.28 0.00,612.28 11.75,611.65C18.21,611.31 36.55,610.56 52.50,610.00C68.45,609.44 85.66,608.72 90.75,608.40C97.37,607.98 100.00,607.44 100.00,606.51C100.00,605.80 99.41,604.99 98.68,604.71C97.96,604.43 91.77,604.58 84.93,605.03C78.10,605.49 64.85,606.33 55.50,606.90C46.15,607.47 29.84,608.23 19.25,608.58C-0.00,609.23 -0.00,609.23 -0.00,601.24C0.00,593.25 0.00,593.25 3.12,592.62C4.84,592.28 7.32,592.00 8.62,592.00C9.93,592.00 11.00,591.55 11.00,591.00C11.00,590.45 8.52,590.00 5.49,590.00C-0.02,590.00 -0.02,590.00 0.24,550.25C0.50,510.50 0.50,510.50 4.00,510.54C6.49,510.56 8.03,509.90 9.35,508.25C11.21,505.92 11.21,505.92 12.97,509.21C13.94,511.02 15.52,512.65 16.47,512.84C17.43,513.03 18.66,512.74 19.20,512.20C19.85,511.55 19.77,510.43 18.96,508.93C17.74,506.64 17.74,506.64 20.62,508.86C22.20,510.08 25.07,512.16 27.00,513.49C28.93,514.81 34.77,517.01 40.00,518.37C45.23,519.74 52.12,521.17 55.32,521.55C59.57,522.06 62.48,523.18 66.15,525.70C68.91,527.60 71.81,528.90 72.58,528.61C73.36,528.31 74.00,527.42 74.00,526.64C74.00,525.85 74.71,524.94 75.58,524.61C76.45,524.27 80.41,524.00 84.37,524.00C91.56,524.00 91.60,524.02 95.84,528.34C98.19,530.73 101.56,534.89 103.35,537.59C106.17,541.86 106.97,542.46 109.54,542.18C111.17,542.01 113.57,541.18 114.87,540.33C116.17,539.49 124.95,536.19 134.37,533.00C143.79,529.81 158.81,524.85 167.75,521.98C176.69,519.12 184.00,516.36 184.00,515.86C184.00,515.35 182.68,512.32 181.06,509.12C179.44,505.92 176.98,501.94 175.58,500.28C174.18,498.62 171.72,496.71 170.11,496.05C167.75,495.07 166.05,495.13 161.26,496.35C158.00,497.19 147.05,501.54 136.92,506.03C126.79,510.51 113.64,516.44 107.69,519.20C101.74,521.96 96.62,523.95 96.30,523.63C95.98,523.32 96.80,522.65 98.11,522.15C99.43,521.65 107.03,518.30 115.00,514.71C122.97,511.13 135.35,505.40 142.50,501.99C149.65,498.58 157.85,494.96 160.72,493.96C164.36,492.68 166.82,492.37 168.81,492.95C170.38,493.40 173.43,494.90 175.58,496.28C177.74,497.66 181.14,500.52 183.15,502.64C185.16,504.76 188.65,509.17 190.92,512.44C193.18,515.71 195.70,520.63 196.52,523.37C197.33,526.12 198.00,529.86 198.00,531.68C198.00,533.51 198.45,535.00 199.00,535.00C199.55,535.00 200.00,533.61 200.00,531.91C200.00,530.22 199.29,525.83 198.42,522.16C197.55,518.50 195.82,513.48 194.57,511.00C193.33,508.52 190.47,505.15 188.22,503.50C185.97,501.85 184.09,500.05 184.06,499.49C184.03,498.94 186.03,497.26 188.50,495.77C190.97,494.27 193.00,492.64 193.00,492.15C193.00,491.65 192.32,490.68 191.50,490.00C190.68,489.32 190.00,487.66 190.00,486.33C190.00,484.99 190.69,482.57 191.53,480.94C192.37,479.31 197.29,465.05 202.45,449.24C207.61,433.43 214.10,413.07 216.88,404.00C219.65,394.93 222.56,384.65 223.34,381.17C224.77,374.83 224.77,374.83 221.89,371.89C220.31,370.27 218.12,367.19 217.02,365.04C215.93,362.90 213.96,357.40 212.64,352.82C211.33,348.25 209.94,341.95 209.57,338.84C209.18,335.64 209.37,330.43 210.02,326.84C210.65,323.35 212.55,317.57 214.25,314.00C215.98,310.36 219.79,304.92 222.92,301.63C225.99,298.40 230.97,294.08 234.00,292.02C237.03,289.96 241.78,287.12 244.57,285.71C247.36,284.30 252.54,282.35 256.07,281.37C260.79,280.06 266.09,279.59 276.00,279.60C283.43,279.60 292.20,280.18 295.50,280.88C298.80,281.57 303.37,282.83 305.65,283.67C309.69,285.16 309.97,285.12 316.15,282.19C319.74,280.49 325.98,278.64 330.50,277.93C334.90,277.24 345.36,276.64 353.75,276.59C365.56,276.52 369.00,276.21 369.00,275.20C369.00,274.48 367.65,273.43 366.00,272.85C363.49,271.97 363.00,271.27 363.00,268.52C363.00,266.72 362.32,264.68 361.50,264.00C360.65,263.29 360.00,261.11 360.00,258.97C360.00,255.59 360.23,255.25 362.16,255.75C363.63,256.14 364.09,255.95 363.60,255.16C363.20,254.52 362.29,254.00 361.56,254.00C360.84,254.00 359.68,253.32 359.00,252.50C358.00,251.30 354.95,251.00 343.63,250.98C331.93,250.96 328.78,250.63 325.33,249.06C323.03,248.02 320.49,246.12 319.67,244.83C318.86,243.55 316.39,237.10 314.19,230.50C311.99,223.90 305.87,209.15 300.59,197.72C295.31,186.29 290.52,174.82 289.94,172.22C289.29,169.36 289.13,162.78 289.52,155.50C290.08,144.95 289.91,142.84 288.14,138.00C287.03,134.97 284.93,129.63 283.47,126.12C281.65,121.75 280.96,118.60 281.27,116.12C281.53,114.13 282.72,110.03 283.92,107.00C285.12,103.97 287.44,96.34 289.07,90.03C290.70,83.72 293.01,76.52 294.19,74.03C295.37,71.54 299.75,66.16 303.92,62.07C308.08,57.98 314.54,52.67 318.25,50.27C321.97,47.87 329.62,43.69 335.25,41.00C340.89,38.31 349.54,34.94 354.48,33.52C359.41,32.10 367.96,30.23 373.48,29.36C379.80,28.37 389.96,27.80 401.00,27.81C412.10,27.81 422.31,28.41 428.92,29.44C434.65,30.33 442.75,31.75 446.92,32.59C451.09,33.44 458.18,35.39 462.68,36.92C467.19,38.46 475.29,42.13 480.68,45.08C488.14,49.16 492.60,52.52 499.24,59.08C506.96,66.70 508.57,68.94 512.92,78.11C516.30,85.24 518.65,92.12 520.41,100.07C521.82,106.43 523.66,117.45 524.49,124.56C525.32,131.67 526.00,142.47 526.00,148.55C526.00,155.32 525.22,163.86 523.99,170.56C522.89,176.58 521.06,184.30 519.92,187.72C518.54,191.87 516.33,195.64 513.28,199.03C510.70,201.91 506.27,205.34 503.10,206.92C500.02,208.46 495.70,210.29 493.50,210.99C491.30,211.68 488.71,212.94 487.75,213.78C486.47,214.90 486.00,216.83 486.00,221.02C486.00,225.17 485.47,227.41 484.05,229.21C482.98,230.57 480.05,232.47 477.55,233.43C473.39,235.02 473.00,235.46 473.00,238.54C473.00,240.74 472.21,242.68 470.75,244.09C468.50,246.26 468.50,246.26 471.25,245.61C473.76,245.02 474.00,245.21 474.00,247.80C474.00,249.61 473.06,251.46 471.40,252.90C469.13,254.87 468.88,255.69 469.41,259.33C469.74,261.62 470.19,264.70 470.40,266.18C470.62,267.65 471.09,269.34 471.45,269.93C471.85,270.57 476.22,271.04 482.31,271.09C492.26,271.18 492.39,271.21 488.00,272.43C485.52,273.11 481.93,274.49 480.00,275.48C478.07,276.47 474.48,278.65 472.00,280.33C469.52,282.00 464.58,286.02 461.02,289.27C457.45,292.51 451.82,296.66 448.52,298.50C445.21,300.33 436.65,303.64 429.50,305.86C422.35,308.07 413.69,310.42 410.25,311.07C406.81,311.73 404.00,312.65 404.00,313.13C404.00,313.61 405.31,314.00 406.91,314.00C408.51,314.00 413.31,313.33 417.58,312.52C421.84,311.70 432.12,309.17 440.42,306.90C448.71,304.63 456.40,302.30 457.50,301.73C458.60,301.16 461.99,298.40 465.04,295.60C469.52,291.47 473.44,289.27 485.54,284.07C500.25,277.75 500.68,277.64 511.20,277.20C517.08,276.95 522.68,277.05 523.64,277.42C525.06,277.96 524.16,279.18 518.79,284.03C515.16,287.30 509.74,293.70 506.74,298.24C503.73,302.78 500.82,307.40 500.26,308.50C499.70,309.60 498.07,313.95 496.62,318.17C495.07,322.70 494.00,328.01 494.01,331.17C494.01,334.10 494.45,339.17 494.98,342.44C495.52,345.71 496.66,349.09 497.52,349.94C498.89,351.32 499.18,351.33 500.01,350.00C500.52,349.18 500.68,346.23 500.36,343.46C500.04,340.68 500.31,335.84 500.96,332.69C501.61,329.55 502.53,327.21 502.99,327.49C503.45,327.78 504.12,329.92 504.49,332.26C504.85,334.59 506.06,339.88 507.18,344.00C508.30,348.12 510.32,353.86 511.68,356.75C513.04,359.64 514.79,362.00 515.57,362.00C516.36,362.00 517.00,361.72 517.00,361.37C517.00,361.02 515.68,356.86 514.08,352.12C512.47,347.38 510.85,340.08 510.47,335.90C510.06,331.24 510.25,326.03 510.97,322.40C511.62,319.16 514.12,312.45 516.53,307.50C519.03,302.38 523.41,295.60 526.71,291.76C529.89,288.05 535.20,283.00 538.50,280.54C541.79,278.08 547.19,275.03 550.50,273.78C555.64,271.83 558.23,271.52 568.50,271.63C577.48,271.73 582.22,272.28 587.33,273.83C591.09,274.97 597.16,277.54 600.83,279.54C604.50,281.54 608.17,283.83 609.00,284.63C609.83,285.43 607.05,284.50 602.84,282.55C598.62,280.61 592.57,278.34 589.38,277.51C586.19,276.68 581.75,276.00 579.51,276.00C577.28,276.00 574.44,276.70 573.22,277.56C572.00,278.41 571.00,279.74 571.00,280.51C571.00,281.27 571.76,282.33 572.70,282.85C573.86,283.50 572.27,283.67 567.70,283.40C564.01,283.18 557.96,282.81 554.25,282.58C550.54,282.35 545.25,282.63 542.50,283.21C538.26,284.10 536.50,285.28 530.95,290.92C526.07,295.88 523.17,300.05 519.61,307.22C516.01,314.49 514.60,318.66 513.90,324.18C513.32,328.82 513.34,334.12 513.96,338.65C514.51,342.58 515.89,348.31 517.04,351.38C518.19,354.45 519.53,357.21 520.03,357.52C520.52,357.82 524.43,356.92 528.71,355.52C532.99,354.12 540.33,352.26 545.00,351.39C549.67,350.51 553.77,349.63 554.11,349.43C554.44,349.23 554.33,346.68 553.87,343.78C553.40,340.88 552.97,335.04 552.91,330.81C552.81,324.93 553.43,321.08 555.54,314.47C557.34,308.80 559.78,303.80 562.62,299.94C565.01,296.70 568.70,292.95 570.84,291.60C572.97,290.26 576.47,288.69 578.61,288.13C580.75,287.56 586.77,287.23 592.00,287.39C598.76,287.60 602.51,288.21 605.00,289.49C606.92,290.49 611.04,293.90 614.14,297.07C617.24,300.23 621.03,305.12 622.55,307.91C624.07,310.71 625.70,313.00 626.16,313.00C626.62,313.00 627.01,312.21 627.03,311.25C627.06,309.78 627.20,309.74 627.92,311.00C628.39,311.82 629.37,315.88 630.09,320.00C630.88,324.50 631.43,335.70 631.46,348.00C631.50,367.09 631.34,368.91 629.19,374.45C627.92,377.72 626.14,381.64 625.24,383.17C623.72,385.75 623.72,386.42 625.33,392.72C626.29,396.45 628.16,405.26 629.50,412.29C630.84,419.33 632.16,425.45 632.43,425.89C632.70,426.33 642.05,427.00 653.21,427.38C664.37,427.77 679.80,428.72 687.50,429.51C695.20,430.29 706.67,431.89 713.00,433.05C719.33,434.21 726.30,435.95 728.50,436.93C730.70,437.90 733.94,440.17 735.70,441.99C737.47,443.80 739.70,446.91 740.66,448.89C741.89,451.43 742.38,454.72 742.31,460.00C742.25,464.12 741.05,476.27 739.65,487.00C738.24,497.73 736.18,514.38 735.07,524.00C733.96,533.62 731.92,553.20 730.54,567.50C729.15,581.80 727.34,601.44 726.50,611.13C725.66,620.83 725.25,629.49 725.59,630.38C726.07,631.63 725.55,632.03 723.36,632.12C721.79,632.18 717.58,632.16 714.00,632.07C710.42,631.99 701.20,631.49 693.50,630.97C685.80,630.45 666.00,629.35 649.50,628.52C633.00,627.68 609.15,626.31 596.50,625.46C583.85,624.62 563.38,623.07 551.00,622.02C538.62,620.98 523.55,619.83 517.50,619.48C511.45,619.12 493.68,618.70 478.00,618.54C458.30,618.34 446.57,617.78 440.00,616.71C434.77,615.86 425.27,614.38 418.88,613.43C410.45,612.17 403.98,611.85 395.38,612.25C387.18,612.63 382.11,613.37 379.00,614.65C375.71,616.00 371.95,616.50 365.00,616.50C355.65,616.50 355.33,616.42 346.00,611.74C340.77,609.12 335.70,606.98 334.73,606.99C333.75,606.99 332.44,608.12 331.82,609.50C330.82,611.70 330.05,612.00 325.49,612.00C322.63,612.00 318.77,611.49 316.90,610.86C315.03,610.24 312.31,608.63 310.87,607.29C309.31,605.85 307.98,603.30 307.63,601.07C307.02,597.29 307.02,597.29 301.04,596.66C297.76,596.32 294.26,596.32 293.28,596.67C292.30,597.02 289.48,598.88 287.00,600.81C284.52,602.73 278.34,608.57 273.25,613.78C268.16,618.99 264.00,623.53 264.00,623.87C264.00,624.22 303.94,624.51 352.75,624.52C412.66,624.53 442.47,624.88 444.50,625.60C446.91,626.45 442.97,626.89 424.50,627.86C411.85,628.52 384.40,629.53 363.50,630.10C342.60,630.68 305.25,631.33 280.50,631.57C255.75,631.80 228.75,632.26 220.50,632.59zM721.07,628.44C721.47,627.37 723.19,611.65 724.91,593.50C726.62,575.35 728.49,555.10 729.06,548.50C729.63,541.90 731.43,525.08 733.05,511.13C734.67,497.18 736.00,484.62 736.00,483.22C736.00,481.81 735.74,480.92 735.43,481.24C735.11,481.56 734.46,484.44 733.98,487.66C733.50,490.87 732.19,500.70 731.07,509.50C729.95,518.30 728.14,534.73 727.04,546.00C725.93,557.27 724.35,573.48 723.51,582.00C722.67,590.52 721.37,604.48 720.61,613.00C719.86,621.52 719.49,628.92 719.80,629.44C720.10,629.96 720.68,629.51 721.07,628.44zM234.18,627.98C234.56,627.99 236.06,627.55 237.50,627.00C239.45,626.26 240.06,625.41 239.82,623.75C239.55,621.85 238.89,621.50 235.50,621.50C232.04,621.50 231.45,621.83 231.16,623.89C230.98,625.20 231.43,626.66 232.16,627.12C232.90,627.59 233.81,627.98 234.18,627.98zM689.37,625.65C691.09,625.59 692.76,624.74 693.53,623.53C694.24,622.41 695.29,617.23 695.87,612.00C696.45,606.77 697.84,596.65 698.96,589.50C700.08,582.35 701.68,571.33 702.51,565.00C703.34,558.67 704.66,549.00 705.45,543.50C706.23,538.00 707.39,529.00 708.03,523.50C708.66,518.00 709.79,509.90 710.55,505.50C711.30,501.10 712.14,496.15 712.41,494.50C712.69,492.85 713.60,488.12 714.44,484.00C715.29,479.88 717.11,471.11 718.49,464.53C720.57,454.66 720.81,451.96 719.89,449.16C719.27,447.30 717.04,444.04 714.92,441.92C712.81,439.81 709.60,437.65 707.79,437.13C704.50,436.18 704.50,436.18 707.35,436.09C708.92,436.04 711.72,436.72 713.58,437.60C715.43,438.48 718.44,440.85 720.26,442.85C722.07,444.86 724.67,447.22 726.03,448.09C727.39,448.97 729.85,450.02 731.49,450.42C733.14,450.83 735.05,451.63 735.74,452.20C736.43,452.78 737.01,454.20 737.03,455.37C737.06,457.25 737.18,457.30 738.05,455.81C738.68,454.73 738.70,452.63 738.12,450.04C737.62,447.79 736.48,444.85 735.59,443.49C734.70,442.14 732.94,440.35 731.67,439.52C730.40,438.69 726.47,437.36 722.93,436.57C719.40,435.77 707.50,434.19 696.50,433.05C685.50,431.91 667.06,430.31 655.53,429.51C644.00,428.70 634.25,428.37 633.87,428.77C633.49,429.17 634.02,432.74 635.03,436.69C636.05,440.65 637.61,445.01 638.51,446.37C639.96,448.58 640.45,448.74 643.15,447.80C644.81,447.22 649.42,446.96 653.40,447.21C658.20,447.52 662.19,448.45 665.26,449.99C668.23,451.47 670.31,453.33 671.08,455.20C671.93,457.25 672.09,461.55 671.61,469.80C671.23,476.24 670.03,491.40 668.94,503.50C667.85,515.60 666.26,529.10 665.41,533.50C664.57,537.90 663.36,543.23 662.74,545.35C661.73,548.80 661.49,549.02 660.34,547.44C659.31,546.05 658.96,545.98 658.61,547.10C658.36,547.87 657.70,550.75 657.13,553.50C656.57,556.25 655.61,561.60 655.00,565.40C654.39,569.19 652.94,575.19 651.78,578.73C650.16,583.64 649.95,585.35 650.88,585.93C651.55,586.34 652.10,587.54 652.10,588.59C652.11,589.64 651.86,593.42 651.57,597.00C651.27,600.58 650.50,607.46 649.86,612.30C649.18,617.51 649.07,621.47 649.60,621.99C650.10,622.48 658.60,623.53 668.50,624.31C678.40,625.10 687.79,625.70 689.37,625.65zM526.68,615.83C533.86,615.96 536.20,615.66 537.43,614.43C538.29,613.56 539.00,612.27 539.00,611.55C539.00,610.83 538.31,609.67 537.46,608.97C536.61,608.26 533.58,607.32 530.71,606.87C527.46,606.35 523.06,606.47 519.00,607.19C515.43,607.82 511.71,609.00 510.75,609.82C509.79,610.64 509.00,612.11 509.00,613.10C509.00,614.47 509.98,614.97 513.25,615.27C515.59,615.48 521.63,615.73 526.68,615.83zM250.84,612.00C251.31,612.00 253.59,609.75 255.91,606.99C258.69,603.69 260.03,601.22 259.82,599.75C259.64,598.52 258.82,597.39 257.99,597.23C257.01,597.05 255.34,599.18 253.24,603.32C251.46,606.83 250.00,610.22 250.00,610.85C250.00,611.48 250.38,612.00 250.84,612.00zM239.93,610.00C241.42,610.00 242.79,608.38 244.99,604.03C246.64,600.74 248.00,597.39 248.00,596.56C248.00,595.74 247.13,594.60 246.07,594.04C245.00,593.47 242.95,593.00 241.50,593.00C240.05,593.00 238.00,593.47 236.93,594.04C235.52,594.79 235.00,596.14 235.00,599.07C235.00,601.27 235.65,604.62 236.45,606.53C237.43,608.88 238.56,610.00 239.93,610.00zM229.02,609.00C229.61,609.00 230.75,607.44 231.55,605.53C232.35,603.62 233.00,601.37 233.00,600.53C233.00,599.69 232.59,599.00 232.08,599.00C231.58,599.00 230.18,600.59 228.98,602.53C227.79,604.46 227.06,606.71 227.37,607.53C227.68,608.34 228.42,609.00 229.02,609.00zM503.00,601.74C506.02,601.74 511.88,601.42 516.00,601.03C523.50,600.32 523.50,600.32 515.50,600.25C511.10,600.21 505.25,600.53 502.50,600.95C497.50,601.73 497.50,601.73 503.00,601.74zM594.75,601.96C596.54,601.98 598.00,601.56 598.00,601.02C598.00,600.48 596.76,599.76 595.25,599.43C593.74,599.09 591.72,598.60 590.76,598.34C589.80,598.08 588.50,598.19 587.87,598.58C587.13,599.04 587.56,599.75 589.11,600.61C590.43,601.33 592.96,601.95 594.75,601.96zM214.50,600.59C215.05,600.46 216.82,598.40 218.43,596.01C220.41,593.07 221.38,590.36 221.43,587.59C221.49,584.17 221.18,583.50 219.54,583.50C218.16,583.50 217.40,584.40 216.96,586.56C216.61,588.24 215.13,591.38 213.67,593.54C212.20,595.70 211.00,598.00 211.00,598.65C211.00,599.30 211.56,600.06 212.25,600.33C212.94,600.61 213.95,600.72 214.50,600.59zM380.50,600.60C381.77,600.54 382.62,599.68 382.82,598.25C383.04,596.71 382.63,596.00 381.51,596.00C380.62,596.00 377.89,596.50 375.44,597.12C373.00,597.73 371.00,598.61 371.00,599.06C371.00,599.51 372.69,600.06 374.75,600.29C376.81,600.51 379.40,600.65 380.50,600.60zM199.43,598.00C200.09,598.00 201.80,596.76 203.23,595.25C204.66,593.74 205.92,591.83 206.03,591.00C206.15,590.17 206.18,588.94 206.12,588.25C206.05,587.56 205.12,587.00 204.05,587.00C202.98,587.00 200.97,588.48 199.59,590.29C197.91,592.49 197.27,594.32 197.66,595.79C197.97,597.01 198.77,598.00 199.43,598.00zM355.25,596.92C356.76,596.96 358.00,596.59 358.00,596.09C358.00,595.58 356.11,593.78 353.80,592.09C351.49,590.39 349.02,589.00 348.30,589.00C347.59,589.00 347.00,589.81 347.00,590.81C347.00,591.80 347.56,593.33 348.25,594.19C348.94,595.06 350.18,596.01 351.00,596.31C351.82,596.60 353.74,596.88 355.25,596.92zM606.44,595.69C606.95,595.51 607.55,594.86 607.75,594.24C607.96,593.61 605.81,591.92 602.97,590.48C600.13,589.04 597.52,588.14 597.19,588.48C596.85,588.82 597.04,589.86 597.61,590.80C598.18,591.73 600.19,593.29 602.07,594.25C603.96,595.21 605.92,595.86 606.44,595.69zM267.75,592.49C268.99,591.06 270.00,588.79 270.00,587.44C270.00,586.10 269.44,585.03 268.75,585.07C268.06,585.11 266.17,586.74 264.55,588.69C261.67,592.15 261.65,592.27 263.55,593.67C265.31,594.96 265.72,594.84 267.75,592.49zM323.18,591.00C323.69,591.00 323.98,589.09 323.81,586.75C323.59,583.78 323.05,582.50 322.00,582.50C321.10,582.50 320.37,583.62 320.18,585.31C320.00,586.86 320.39,588.77 321.05,589.56C321.71,590.35 322.67,591.00 323.18,591.00zM406.61,589.32C407.79,588.87 408.02,587.94 407.53,585.61C407.17,583.90 406.63,580.62 406.34,578.32C406.05,576.02 404.96,573.37 403.93,572.43C402.15,570.83 402.00,570.83 401.38,572.45C401.01,573.40 401.41,575.63 402.25,577.41C403.10,579.18 403.57,581.79 403.30,583.20C403.03,584.62 403.31,586.71 403.92,587.85C404.62,589.16 405.61,589.70 406.61,589.32zM497.50,588.44C507.40,588.19 526.08,587.53 539.00,586.97C551.92,586.40 567.11,585.68 572.75,585.37C578.39,585.06 583.00,584.45 583.00,584.01C583.00,583.57 578.39,583.40 572.75,583.63C567.11,583.85 547.65,584.74 529.50,585.60C511.35,586.46 492.68,587.54 488.00,588.02C481.46,588.68 483.65,588.78 497.50,588.44zM278.60,586.84C279.55,586.65 280.52,585.95 280.74,585.29C280.96,584.62 279.99,583.79 278.59,583.43C276.41,582.89 276.19,582.51 277.10,580.81C277.68,579.72 277.93,578.60 277.65,578.32C277.37,578.04 275.77,578.11 274.08,578.48C272.40,578.85 270.75,579.59 270.42,580.13C270.09,580.67 271.18,581.62 272.84,582.25C274.51,582.87 276.09,584.24 276.36,585.28C276.66,586.42 277.55,587.04 278.60,586.84zM351.75,582.99C362.06,582.98 372.19,582.70 374.25,582.36C376.46,581.99 378.00,581.17 378.00,580.37C378.00,579.28 375.38,579.00 365.25,579.01C358.24,579.01 348.11,579.30 342.75,579.66C335.55,580.13 333.00,580.65 333.00,581.65C333.00,582.74 336.68,583.00 351.75,582.99zM260.08,579.99C260.40,580.00 260.97,579.70 261.34,579.33C261.70,578.96 261.26,577.84 260.34,576.83C259.43,575.82 258.42,573.35 258.09,571.34C257.55,567.99 257.21,567.68 254.00,567.54C252.07,567.45 249.93,567.57 249.23,567.81C248.37,568.09 248.73,568.95 250.37,570.47C251.70,571.70 253.52,572.99 254.43,573.33C255.33,573.68 256.84,575.32 257.79,576.98C258.73,578.63 259.76,579.99 260.08,579.99zM286.82,579.92C287.54,579.96 289.00,579.53 290.07,578.96C291.13,578.40 292.00,577.05 292.00,575.96C292.00,574.88 291.61,574.00 291.12,574.00C290.64,574.00 289.68,574.67 289.00,575.50C288.32,576.33 286.69,577.00 285.38,577.00C284.07,577.00 283.00,577.41 283.00,577.92C283.00,578.42 283.56,579.06 284.25,579.34C284.94,579.62 286.09,579.88 286.82,579.92zM305.72,579.00C307.01,579.00 308.35,578.26 308.69,577.36C309.08,576.34 308.60,575.18 307.43,574.33C306.28,573.49 304.45,573.18 302.77,573.55C300.66,574.01 300.00,573.78 300.00,572.58C300.00,571.71 299.64,571.00 299.20,571.00C298.76,571.00 297.86,571.54 297.20,572.20C296.54,572.86 296.00,573.99 296.00,574.70C296.00,575.41 296.79,576.01 297.75,576.03C298.71,576.05 300.37,576.72 301.44,577.53C302.51,578.34 304.44,579.00 305.72,579.00zM389.50,578.42C391.70,578.11 394.29,577.63 395.26,577.35C396.24,577.08 396.77,576.44 396.46,575.93C396.14,575.42 392.76,575.00 388.94,575.00C385.12,575.00 382.00,575.43 382.00,575.95C382.00,576.47 382.79,577.37 383.75,577.95C384.71,578.52 387.30,578.73 389.50,578.42zM419.49,578.53C420.60,578.21 423.67,577.52 426.31,576.99C428.96,576.46 431.89,575.55 432.81,574.96C434.10,574.15 433.23,573.99 429.19,574.30C426.27,574.53 424.25,574.37 424.69,573.94C425.14,573.51 427.07,572.76 429.00,572.26C430.96,571.76 432.50,570.74 432.50,569.94C432.50,568.91 431.37,568.54 428.50,568.63C426.30,568.70 422.25,568.92 419.50,569.11C416.75,569.30 413.16,569.05 411.53,568.56C408.55,567.67 408.55,567.67 410.41,570.59C411.43,572.19 413.43,574.76 414.87,576.30C416.68,578.25 418.09,578.93 419.49,578.53zM234.25,577.96C235.21,577.98 236.00,577.63 236.00,577.19C236.00,576.74 234.63,575.36 232.95,574.12C231.28,572.88 229.18,572.01 228.29,572.19C227.39,572.36 226.48,573.07 226.25,573.76C226.01,574.46 227.31,575.67 229.16,576.47C231.00,577.27 233.29,577.94 234.25,577.96zM354.91,574.94C377.50,574.79 377.50,574.79 372.71,572.36C369.92,570.94 365.31,569.68 361.71,569.35C358.29,569.04 350.44,569.29 344.26,569.92C338.08,570.54 332.33,571.32 331.49,571.64C330.28,572.11 330.20,572.54 331.13,573.66C332.10,574.82 336.44,575.06 354.91,574.94zM449.21,574.00C449.93,574.00 452.07,573.55 453.97,573.01C455.88,572.46 466.90,571.33 478.47,570.49C490.03,569.64 503.77,568.52 509.00,567.98C514.23,567.45 529.44,566.11 542.82,565.01C556.20,563.90 571.36,563.00 576.51,563.00C581.67,563.00 586.09,562.66 586.34,562.25C586.60,561.84 586.22,557.67 585.50,553.00C584.78,548.33 583.50,541.62 582.65,538.11C581.80,534.59 579.83,529.64 578.27,527.11C575.96,523.35 573.98,521.76 567.59,518.50C560.47,514.87 559.04,514.50 552.12,514.50C545.47,514.50 541.58,515.41 521.50,521.68C508.85,525.63 488.60,531.60 476.50,534.95C464.40,538.30 450.08,542.34 444.68,543.94C439.28,545.54 431.53,547.15 427.47,547.54C423.40,547.92 419.27,548.84 418.28,549.58C416.67,550.81 416.82,550.94 419.89,550.97C421.76,550.99 425.36,552.01 427.89,553.25C430.43,554.49 435.20,558.20 438.50,561.50C441.80,564.80 445.27,568.96 446.20,570.75C447.14,572.54 448.49,574.00 449.21,574.00zM236.94,571.00C239.66,571.00 242.13,570.60 242.43,570.12C242.73,569.63 241.71,568.71 240.17,568.07C238.19,567.25 236.58,567.21 234.68,567.93C233.21,568.49 232.00,569.41 232.00,569.98C232.00,570.54 234.22,571.00 236.94,571.00zM383.50,570.91C389.01,570.95 391.03,570.67 390.00,570.00C389.18,569.47 384.68,569.06 380.00,569.09C374.33,569.12 372.17,569.43 373.50,570.00C374.60,570.47 379.10,570.88 383.50,570.91zM110.01,565.90C111.40,565.95 123.10,565.53 136.01,564.96C148.93,564.39 163.60,563.27 168.60,562.48C173.61,561.69 178.79,560.57 180.10,560.00C182.37,559.00 182.34,558.97 179.50,559.38C177.85,559.62 172.22,560.30 167.00,560.89C161.78,561.48 147.82,562.45 136.00,563.05C124.17,563.64 112.92,564.51 111.00,564.96C108.16,565.64 107.98,565.81 110.01,565.90zM267.50,564.59C268.60,564.41 271.65,563.65 274.29,562.91C277.99,561.87 279.50,561.83 280.95,562.74C282.41,563.65 283.07,563.63 283.88,562.65C284.64,561.72 284.36,560.90 282.85,559.60C281.45,558.41 280.07,558.06 278.64,558.55C277.46,558.95 273.16,559.55 269.08,559.89C265.00,560.23 261.50,560.99 261.30,561.58C261.10,562.18 261.97,563.18 263.22,563.80C264.47,564.43 266.40,564.78 267.50,564.59zM235.02,562.00C235.56,562.00 236.00,560.90 236.00,559.55C236.00,558.20 235.48,555.95 234.84,554.55C234.20,553.15 233.10,552.00 232.40,552.00C231.69,552.00 230.85,552.43 230.52,552.97C230.19,553.50 230.85,555.75 231.98,557.97C233.11,560.18 234.48,562.00 235.02,562.00zM21.17,561.00C22.65,561.00 22.91,560.49 22.43,558.59C21.83,556.19 21.86,556.18 28.16,556.71C33.04,557.12 34.24,556.97 33.38,556.06C32.77,555.40 29.04,554.76 25.10,554.63C20.11,554.46 17.59,554.79 16.82,555.71C16.00,556.70 16.18,557.54 17.52,559.02C18.50,560.11 20.15,561.00 21.17,561.00zM326.87,561.00C328.77,561.00 330.13,560.80 329.89,560.56C329.65,560.31 327.75,558.96 325.68,557.56C323.61,556.15 321.71,555.00 321.46,555.00C321.21,555.00 321.00,555.81 321.00,556.80C321.00,557.79 321.54,559.14 322.20,559.80C322.86,560.46 324.96,561.00 326.87,561.00zM600.87,560.00C601.86,560.00 602.89,559.78 603.15,559.51C603.42,559.24 602.88,555.98 601.94,552.26C600.60,546.93 599.84,545.50 598.37,545.50C596.77,545.50 596.52,546.24 596.63,550.58C596.69,553.38 597.27,556.64 597.91,557.83C598.55,559.02 599.88,560.00 600.87,560.00zM615.07,559.00C615.58,559.00 616.00,558.13 616.00,557.06C616.00,556.00 615.29,552.06 614.41,548.31C613.41,544.00 612.95,538.38 613.16,533.00C613.44,526.13 613.93,523.89 615.75,521.35C616.99,519.61 618.00,517.65 618.00,516.98C618.00,516.15 616.93,515.98 614.54,516.43C612.64,516.78 609.10,517.95 606.67,519.03C604.25,520.10 601.72,521.63 601.06,522.43C600.39,523.23 599.99,524.93 600.17,526.19C600.40,527.80 601.26,528.59 603.01,528.79C604.53,528.97 606.45,528.23 607.83,526.94C609.10,525.76 610.38,525.05 610.69,525.35C610.99,525.66 610.47,529.06 609.52,532.90C608.41,537.46 608.04,541.40 608.48,544.20C608.85,546.57 610.27,550.86 611.65,553.75C613.02,556.64 614.56,559.00 615.07,559.00zM293.61,557.00C294.37,557.00 295.00,556.43 295.00,555.72C295.00,555.02 294.30,553.44 293.44,552.22C292.59,551.00 291.29,550.00 290.55,550.00C289.82,550.00 288.91,550.78 288.55,551.74C288.10,552.89 288.62,554.08 290.05,555.24C291.24,556.21 292.85,557.00 293.61,557.00zM242.71,553.97C243.38,553.99 244.84,553.02 245.96,551.81C247.08,550.61 248.00,549.26 248.00,548.81C248.00,548.37 246.05,548.00 243.67,548.00C241.28,548.00 239.05,548.28 238.71,548.62C238.37,548.96 238.86,550.30 239.80,551.59C240.73,552.88 242.04,553.95 242.71,553.97zM643.52,553.00C644.88,553.00 646.38,552.16 646.96,551.07C647.53,550.00 648.00,547.54 648.00,545.60C648.00,543.08 647.11,541.06 644.90,538.53C643.19,536.59 640.94,535.00 639.90,535.00C638.85,535.00 638.00,535.41 638.00,535.90C638.00,536.40 639.35,537.27 641.00,537.85C643.71,538.79 644.00,539.31 643.99,543.20C643.99,545.56 643.34,548.74 642.55,550.25C641.18,552.89 641.22,553.00 643.52,553.00zM304.75,551.94C305.99,551.97 307.00,551.60 307.00,551.12C307.00,550.64 305.76,549.75 304.25,549.16C302.74,548.56 300.15,547.75 298.50,547.37C295.71,546.72 295.60,546.79 296.97,548.45C297.77,549.42 299.35,550.59 300.47,551.05C301.58,551.50 303.51,551.90 304.75,551.94zM75.25,550.75C75.94,550.52 76.50,548.81 76.50,546.96C76.50,544.33 75.90,543.24 73.81,542.06C72.33,541.23 70.75,540.92 70.31,541.36C69.86,541.81 70.51,542.99 71.75,544.00C73.07,545.06 74.00,546.93 74.00,548.49C74.00,550.19 74.46,551.01 75.25,550.75zM354.20,551.00C356.47,551.00 357.07,550.60 356.81,549.25C356.63,548.29 355.44,547.35 354.17,547.17C352.90,546.99 351.16,547.11 350.31,547.43C349.07,547.91 349.01,548.31 350.01,549.51C350.69,550.33 352.57,551.00 354.20,551.00zM92.25,549.73C93.07,549.45 93.46,547.36 93.39,543.68C93.32,540.33 92.61,537.05 91.63,535.56C90.53,533.87 88.11,532.51 84.24,531.39C81.08,530.48 77.94,529.52 77.25,529.26C76.56,529.00 76.00,529.47 76.00,530.31C76.00,531.23 77.31,532.13 79.25,532.55C81.04,532.94 83.71,534.52 85.19,536.06C86.67,537.60 88.38,540.81 88.99,543.18C89.60,545.56 90.30,548.10 90.55,548.83C90.80,549.57 91.56,549.97 92.25,549.73zM263.36,549.71C263.97,549.51 264.88,547.90 265.39,546.13C266.02,543.94 265.96,542.56 265.20,541.80C264.38,540.98 263.68,541.02 262.54,541.96C261.69,542.67 261.00,544.05 261.00,545.04C261.00,546.03 261.28,547.57 261.62,548.46C261.97,549.35 262.75,549.92 263.36,549.71zM7.73,543.00C8.72,543.00 8.94,542.34 8.46,540.75C8.10,539.51 6.72,537.39 5.41,536.04C3.83,534.40 2.69,533.91 2.03,534.57C1.37,535.23 1.92,536.81 3.68,539.28C5.13,541.33 6.95,543.00 7.73,543.00zM437.94,539.00C438.83,539.00 440.56,538.29 441.79,537.43C443.03,536.57 443.77,535.44 443.46,534.93C443.14,534.42 441.11,534.00 438.94,534.00C435.79,534.00 435.00,534.37 435.00,535.83C435.00,536.84 435.30,537.97 435.67,538.33C436.03,538.70 437.06,539.00 437.94,539.00zM618.97,539.00C619.32,539.00 620.61,536.93 621.84,534.40C623.57,530.83 623.81,529.48 622.91,528.40C622.28,527.63 621.18,527.00 620.48,527.00C619.77,527.00 618.70,528.42 618.10,530.15C617.49,531.88 617.00,534.28 617.00,535.48C617.00,536.68 617.30,537.97 617.67,538.33C618.03,538.70 618.62,539.00 618.97,539.00zM372.00,534.68C391.50,534.50 391.50,534.50 391.13,514.50C390.93,503.50 390.59,494.32 390.39,494.09C390.18,493.86 387.42,494.31 384.26,495.09C380.37,496.04 372.58,496.50 360.32,496.50C342.13,496.50 342.13,496.50 339.26,493.75C337.68,492.24 335.43,491.00 334.25,491.00C333.08,491.00 331.87,491.40 331.58,491.88C331.28,492.36 331.70,494.10 332.52,495.75C333.40,497.51 334.54,504.94 335.30,513.87C336.22,524.73 337.01,529.44 338.10,530.53C338.94,531.36 342.52,532.68 346.06,533.45C350.57,534.44 358.35,534.81 372.00,534.68zM37.75,531.83C38.99,531.92 40.00,531.61 40.00,531.12C40.00,530.64 39.43,529.77 38.74,529.20C38.05,528.63 34.34,528.04 30.49,527.90C24.99,527.70 23.50,527.95 23.50,529.07C23.50,530.09 25.24,530.67 29.50,531.08C32.80,531.40 36.51,531.74 37.75,531.83zM62.84,531.60C63.38,531.26 63.72,530.33 63.60,529.51C63.49,528.70 62.45,526.95 61.30,525.63C59.61,523.68 57.83,523.09 52.01,522.50C47.08,522.01 44.46,522.14 43.68,522.92C42.86,523.74 42.84,524.53 43.63,525.78C44.48,527.13 46.44,527.56 52.75,527.79C59.90,528.05 60.85,528.31 61.33,530.14C61.62,531.27 62.31,531.93 62.84,531.60zM93.75,531.88C94.44,531.94 95.00,531.62 95.00,531.15C95.00,530.69 94.12,529.51 93.04,528.54C91.96,527.56 89.04,526.53 86.54,526.25C84.04,525.97 82.01,526.14 82.01,526.62C82.02,527.10 84.38,528.46 87.26,529.63C90.14,530.80 93.06,531.81 93.75,531.88zM406.95,531.03C407.90,530.52 410.32,528.28 412.34,526.05C415.86,522.15 416.00,521.71 416.00,514.59C416.00,507.52 415.86,507.06 412.88,504.55C411.16,503.11 408.46,501.26 406.88,500.44C404.00,498.95 404.00,498.95 404.01,513.22C404.02,521.08 404.30,528.50 404.62,529.73C405.09,531.47 405.59,531.75 406.95,531.03zM647.57,532.00C647.81,532.00 648.00,531.15 648.00,530.11C648.00,529.06 646.69,526.81 645.10,525.11C643.50,523.40 641.70,522.00 641.10,522.00C640.49,522.00 640.00,522.73 640.00,523.63C640.00,524.53 641.61,526.78 643.57,528.63C645.54,530.48 647.34,532.00 647.57,532.00zM16.75,530.98C17.44,530.99 18.00,529.90 18.00,528.56C18.00,527.22 17.52,525.82 16.94,525.46C16.36,525.11 14.82,525.08 13.52,525.41C11.15,526.00 11.15,526.00 13.33,528.48C14.52,529.85 16.06,530.97 16.75,530.98zM585.89,528.00C586.93,528.00 588.06,527.29 588.39,526.42C588.73,525.55 589.00,523.88 589.00,522.72C589.00,521.46 591.09,518.64 594.14,515.78C596.97,513.12 599.05,510.71 598.76,510.43C598.47,510.14 597.06,510.20 595.63,510.56C594.19,510.92 591.11,512.91 588.78,514.98C585.41,517.96 584.77,519.02 585.69,520.12C586.56,521.18 586.50,521.97 585.42,523.44C584.64,524.51 584.00,525.97 584.00,526.69C584.00,527.41 584.85,528.00 585.89,528.00zM36.69,525.82C37.35,525.92 38.18,525.52 38.54,524.93C38.90,524.35 38.97,523.63 38.68,523.35C38.40,523.07 34.98,522.43 31.09,521.95C27.20,521.46 23.32,521.32 22.47,521.65C21.61,521.98 21.08,522.75 21.29,523.37C21.49,523.99 24.77,524.76 28.58,525.07C32.39,525.39 36.04,525.73 36.69,525.82zM435.75,524.92C439.00,525.00 439.00,525.00 439.00,519.70C439.00,516.78 438.46,513.86 437.80,513.20C437.14,512.54 435.39,512.00 433.91,512.00C432.37,512.00 430.95,512.68 430.61,513.58C430.27,514.45 430.00,517.11 430.00,519.50C430.00,522.03 430.52,524.04 431.25,524.34C431.94,524.62 433.96,524.88 435.75,524.92zM444.84,524.80C446.09,524.56 446.58,523.17 446.80,519.24C447.07,514.64 446.87,514.00 445.19,514.00C443.67,514.00 443.14,514.95 442.64,518.60C442.29,521.14 442.27,523.64 442.60,524.16C442.92,524.68 443.93,524.97 444.84,524.80zM212.09,522.00C213.63,522.00 215.05,521.32 215.39,520.42C215.73,519.55 216.00,517.30 216.00,515.42C216.00,513.50 215.49,512.00 214.84,512.00C214.21,512.00 212.18,513.15 210.34,514.55C208.50,515.95 207.00,517.66 207.00,518.35C207.00,519.04 207.54,520.14 208.20,520.80C208.86,521.46 210.61,522.00 212.09,522.00zM575.64,518.00C576.41,518.00 577.52,516.95 578.11,515.66C578.94,513.84 578.77,512.47 577.33,509.43C576.32,507.28 574.67,505.37 573.67,505.17C572.66,504.98 570.56,505.35 568.99,506.00C567.43,506.65 565.88,507.86 565.57,508.68C565.25,509.51 565.25,510.59 565.56,511.09C565.87,511.59 567.39,512.00 568.94,512.00C571.13,512.00 572.03,512.67 573.00,515.00C573.68,516.65 574.87,518.00 575.64,518.00zM638.65,518.00C639.39,518.00 640.00,517.13 640.00,516.07C640.00,515.01 638.76,513.17 637.25,511.97C634.50,509.80 634.50,509.80 634.17,511.98C633.99,513.18 634.62,515.03 635.57,516.08C636.53,517.14 637.92,518.00 638.65,518.00zM489.49,516.64C493.38,516.53 494.55,516.12 494.81,514.75C495.08,513.37 494.45,513.00 491.82,513.02C490.00,513.02 486.48,513.64 484.00,514.39C480.04,515.60 479.80,515.82 482.00,516.27C483.38,516.54 486.75,516.71 489.49,516.64zM624.19,509.97C626.77,509.99 629.15,509.57 629.47,509.05C629.79,508.53 629.17,507.63 628.09,507.05C627.01,506.47 624.10,506.00 621.62,506.00C619.15,506.00 616.86,506.42 616.54,506.94C616.22,507.45 616.75,508.34 617.73,508.91C618.70,509.48 621.61,509.95 624.19,509.97zM498.69,506.91C499.90,506.96 501.15,506.56 501.48,506.03C501.81,505.50 501.05,504.84 499.79,504.58C498.53,504.31 495.12,503.62 492.20,503.05C489.29,502.47 486.16,502.00 485.25,502.00C484.22,502.00 483.96,502.35 484.55,502.93C485.07,503.44 487.98,504.53 491.00,505.34C494.02,506.15 497.49,506.86 498.69,506.91zM595.89,505.51C597.88,505.14 599.91,504.44 600.42,503.95C600.97,503.41 600.87,501.52 600.16,499.15C599.52,497.00 598.37,494.72 597.62,494.10C596.70,493.34 595.44,493.26 593.83,493.87C592.50,494.38 590.86,495.47 590.17,496.29C589.17,497.50 589.26,498.61 590.61,501.98C592.24,506.05 592.39,506.15 595.89,505.51zM197.90,502.00C198.98,502.00 200.55,501.31 201.39,500.47C202.23,499.63 202.66,498.28 202.35,497.47C202.04,496.66 201.02,496.00 200.08,496.00C199.15,496.00 197.55,496.61 196.53,497.36C195.39,498.19 194.92,499.35 195.31,500.36C195.65,501.26 196.82,502.00 197.90,502.00zM549.86,502.00C550.30,502.00 551.65,500.94 552.87,499.64C554.09,498.34 558.69,495.58 563.08,493.52C567.47,491.46 575.89,488.45 581.78,486.83C589.55,484.69 595.73,483.72 604.25,483.30C614.69,482.79 616.00,482.52 616.00,480.92C616.00,479.93 613.58,466.83 610.62,451.81C607.65,436.79 603.52,415.39 601.43,404.26C599.34,393.13 597.28,383.45 596.86,382.77C596.31,381.88 593.20,381.56 586.29,381.68C580.91,381.77 571.95,382.75 566.39,383.84C559.13,385.27 553.79,387.10 547.39,390.32C542.50,392.79 537.10,396.32 535.38,398.16C533.67,400.00 531.82,402.34 531.28,403.36C530.60,404.65 530.88,407.98 532.19,414.36C533.23,419.39 535.64,432.21 537.54,442.87C539.44,453.52 542.37,469.49 544.06,478.37C545.75,487.24 547.57,496.19 548.11,498.25C548.64,500.31 549.43,502.00 549.86,502.00zM250.81,499.00C251.20,499.00 256.79,483.36 263.23,464.25C269.66,445.14 276.07,425.51 277.46,420.64C278.86,415.76 280.00,410.48 280.00,408.89C280.00,407.30 279.61,406.00 279.12,406.00C278.64,406.00 277.80,406.56 277.27,407.25C276.73,407.94 274.46,413.68 272.23,420.00C269.99,426.32 267.43,433.72 266.53,436.43C265.63,439.14 263.35,446.86 261.46,453.58C259.57,460.30 256.60,469.78 254.88,474.65C253.15,479.52 250.95,486.24 249.99,489.58C248.82,493.65 248.54,496.22 249.17,497.33C249.68,498.25 250.42,499.00 250.81,499.00zM508.17,496.84C509.09,496.93 510.54,496.73 511.39,496.40C512.34,496.04 514.37,491.22 516.57,484.15C518.55,477.74 521.31,469.66 522.69,466.18C524.07,462.70 524.95,459.62 524.66,459.33C524.37,459.04 523.10,459.52 521.84,460.40C520.58,461.28 518.64,462.00 517.53,461.99C516.41,461.98 513.25,460.92 510.50,459.63C507.73,458.34 503.26,454.88 500.48,451.89C497.71,448.93 494.42,445.15 493.15,443.50C490.85,440.50 490.85,440.50 493.18,444.89C494.45,447.31 498.29,452.40 501.69,456.20C505.10,460.01 507.70,463.66 507.46,464.31C507.22,464.97 505.45,471.31 503.52,478.42C501.58,485.53 500.00,492.36 500.00,493.61C500.00,495.41 500.66,495.95 503.25,496.28C505.04,496.50 507.25,496.75 508.17,496.84zM371.69,492.82C377.30,492.92 382.14,492.58 382.45,492.08C382.77,491.57 382.28,491.00 381.37,490.83C380.46,490.65 372.02,490.71 362.61,490.96C348.04,491.35 346.69,491.50 353.50,492.02C357.90,492.36 366.09,492.72 371.69,492.82zM463.75,492.94C464.99,492.98 466.00,492.81 466.00,492.58C466.00,492.34 461.16,490.26 455.25,487.96C449.34,485.65 441.35,482.17 437.50,480.24C433.65,478.30 426.94,475.19 422.59,473.33C418.24,471.46 413.06,469.55 411.09,469.07C409.11,468.59 402.32,466.79 396.00,465.07C389.68,463.35 380.23,461.28 375.00,460.45C369.77,459.63 357.18,458.68 347.00,458.35C335.79,457.98 325.06,458.17 319.78,458.83C314.98,459.43 309.69,460.63 308.03,461.49C306.21,462.43 305.00,463.84 305.00,465.03C305.00,466.11 305.24,467.00 305.54,467.00C305.84,467.00 307.97,465.99 310.29,464.75C314.31,462.60 315.53,462.50 337.00,462.55C349.38,462.57 366.59,463.17 375.26,463.87C387.53,464.86 393.61,465.89 402.76,468.55C410.80,470.88 419.12,474.33 429.19,479.49C437.26,483.63 447.84,488.34 452.69,489.96C457.53,491.57 462.51,492.91 463.75,492.94zM642.83,488.64C643.01,487.07 642.41,482.35 641.49,478.14C640.58,473.94 638.54,465.10 636.96,458.50C635.38,451.90 632.04,436.60 629.53,424.50C627.02,412.40 624.23,399.35 623.35,395.50C622.46,391.65 621.03,387.69 620.17,386.71C619.31,385.72 617.69,385.05 616.56,385.23C615.42,385.40 614.56,385.99 614.64,386.52C614.72,387.06 617.35,398.98 620.49,413.00C623.64,427.02 627.51,443.68 629.11,450.00C630.70,456.32 633.58,467.09 635.50,473.92C637.43,480.76 639.79,487.51 640.75,488.92C642.50,491.50 642.50,491.50 642.83,488.64zM216.15,487.00C217.31,487.00 218.55,485.63 219.55,483.25C220.42,481.19 222.86,474.10 224.99,467.50C227.11,460.90 229.80,451.95 230.97,447.60C232.20,443.06 232.73,439.33 232.22,438.82C231.72,438.32 229.80,441.46 227.72,446.22C225.72,450.77 221.59,460.78 218.54,468.46C215.49,476.14 213.00,483.16 213.00,484.05C213.00,484.94 213.30,485.97 213.67,486.33C214.03,486.70 215.15,487.00 216.15,487.00zM205.47,482.68C209.44,482.50 209.44,482.50 215.51,467.50C218.85,459.25 223.53,448.23 225.92,443.00C228.31,437.77 231.97,428.74 234.05,422.92C236.14,417.11 239.91,407.51 242.43,401.60C244.96,395.69 246.78,390.45 246.48,389.96C246.17,389.47 241.60,387.68 236.31,385.99C231.02,384.30 226.33,383.27 225.88,383.72C225.44,384.16 221.52,396.45 217.17,411.01C212.83,425.58 207.57,444.02 205.49,452.00C203.40,459.98 201.01,467.94 200.18,469.71C199.35,471.47 198.37,472.73 198.00,472.50C197.63,472.27 196.57,473.67 195.65,475.61C194.72,477.55 194.22,479.55 194.53,480.05C194.84,480.56 196.54,481.40 198.30,481.92C200.06,482.44 203.29,482.78 205.47,482.68zM349.33,482.86C353.60,482.96 355.06,482.66 354.75,481.75C354.48,480.93 351.70,480.40 346.67,480.21C342.17,480.04 339.00,480.32 339.00,480.89C339.00,481.42 340.01,482.06 341.25,482.29C342.49,482.53 346.12,482.79 349.33,482.86zM383.96,480.00C384.97,480.00 386.05,479.32 386.36,478.50C386.68,477.68 386.68,476.32 386.36,475.50C386.04,474.66 384.55,474.00 383.00,474.00C381.47,474.00 379.96,474.66 379.65,475.47C379.34,476.28 379.77,477.63 380.61,478.47C381.45,479.31 382.96,480.00 383.96,480.00zM436.38,465.59C442.36,465.28 447.84,464.55 448.54,463.96C449.25,463.38 454.14,454.17 459.41,443.49C464.69,432.82 469.00,423.62 469.00,423.05C469.00,422.47 466.69,417.84 463.86,412.75C461.04,407.66 456.91,400.81 454.68,397.53C452.45,394.24 449.49,390.50 448.10,389.22C446.71,387.93 441.94,384.68 437.50,382.00C433.05,379.31 428.71,376.30 427.85,375.31C426.67,373.95 426.50,372.72 427.15,370.33C427.65,368.50 429.67,365.84 431.94,364.05C434.68,361.88 436.30,359.53 437.34,356.22C438.15,353.63 440.26,344.75 442.03,336.50C443.79,328.25 445.83,320.05 446.56,318.27C447.28,316.50 447.54,314.84 447.13,314.58C446.72,314.33 442.80,315.16 438.42,316.44C434.05,317.71 423.95,319.92 415.98,321.35C408.02,322.79 396.84,324.42 391.14,324.98C385.45,325.54 378.11,326.00 374.83,326.00C371.55,326.00 368.05,326.44 367.05,326.97C366.05,327.51 364.92,328.74 364.53,329.72C364.14,330.70 362.09,337.02 359.98,343.76C356.18,355.88 356.15,356.08 357.70,360.63C358.81,363.88 359.11,367.21 358.71,371.91C358.40,375.58 357.29,380.85 356.23,383.63C355.17,386.41 352.83,390.84 351.02,393.47C349.21,396.09 346.45,398.98 344.87,399.87C342.01,401.50 342.01,401.50 342.02,426.50C342.03,441.21 342.44,452.12 343.02,453.00C343.89,454.33 344.11,454.33 344.98,453.00C345.53,452.18 345.98,450.38 346.00,449.00C346.02,447.62 346.41,445.90 346.87,445.17C347.54,444.12 350.24,443.98 359.61,444.49C366.15,444.85 375.77,445.84 381.00,446.69C386.23,447.53 392.75,449.07 395.50,450.11C398.25,451.15 406.12,455.18 413.00,459.07C425.50,466.14 425.50,466.14 436.38,465.59zM299.29,455.74C299.95,455.52 300.64,454.36 300.82,453.17C301.00,451.93 300.50,450.75 299.65,450.42C298.83,450.11 297.63,447.61 296.97,444.87C296.31,442.13 295.59,440.08 295.37,440.30C295.14,440.52 295.44,443.14 296.03,446.10C296.61,449.07 297.31,452.54 297.58,453.82C297.85,455.10 298.62,455.96 299.29,455.74zM334.91,454.80C337.50,454.50 337.50,454.50 338.00,428.50C338.27,414.20 338.71,402.05 338.96,401.50C339.21,400.95 338.56,398.02 337.53,395.00C336.36,391.59 335.68,387.03 335.75,383.00C335.81,379.43 336.78,373.57 337.90,370.00C339.02,366.43 341.34,361.81 343.04,359.75C345.64,356.61 346.77,356.00 349.97,356.00C353.80,356.00 353.80,356.00 355.52,348.25C356.46,343.99 358.31,337.52 359.62,333.88C360.93,330.24 362.00,327.03 362.00,326.76C362.00,326.48 358.33,325.94 353.84,325.55C349.35,325.15 342.81,323.95 339.30,322.87C334.76,321.46 331.67,319.69 328.55,316.70C325.62,313.89 323.96,311.31 323.51,308.91C323.14,306.93 323.32,303.56 323.91,301.41C324.49,299.26 326.68,295.26 328.77,292.52C330.85,289.78 334.98,285.84 337.95,283.77C343.34,280.00 343.34,280.00 335.76,280.00C329.53,280.00 326.56,280.61 319.19,283.43C314.25,285.31 307.13,289.05 303.36,291.73C299.59,294.41 295.87,296.99 295.10,297.46C294.19,298.01 293.92,297.94 294.34,297.26C294.70,296.68 294.28,295.94 293.41,295.60C292.55,295.27 290.41,295.00 288.67,295.00C286.93,295.01 284.04,295.90 282.25,296.99C280.02,298.35 279.00,299.73 279.00,301.40C279.00,302.74 279.56,304.02 280.25,304.26C280.94,304.49 283.07,304.26 285.00,303.74C286.93,303.22 289.29,302.10 290.26,301.24C291.22,300.38 292.17,299.86 292.36,300.09C292.56,300.32 291.62,302.95 290.29,305.95C288.52,309.93 287.63,311.02 287.00,310.00C286.26,308.79 285.73,308.80 283.35,310.05C281.81,310.85 278.91,313.13 276.90,315.13C274.81,317.21 272.56,320.84 271.65,323.63C270.77,326.31 269.76,330.41 269.40,332.74C268.97,335.55 269.17,337.50 270.00,338.49C270.68,339.32 272.48,340.00 274.00,340.00C275.52,340.00 277.20,339.44 277.74,338.75C278.28,338.06 279.00,335.38 279.34,332.79C279.67,330.20 280.93,326.01 282.12,323.47C283.35,320.85 284.58,319.33 284.97,319.96C285.36,320.58 287.89,317.41 290.80,312.64C293.63,308.01 297.13,302.81 298.58,301.09C300.03,299.36 302.06,297.50 303.10,296.95C304.68,296.10 304.58,296.52 302.50,299.59C301.14,301.60 300.30,303.68 300.63,304.21C300.98,304.78 303.17,304.91 305.87,304.52C308.42,304.16 311.51,303.61 312.75,303.32C314.67,302.86 315.00,303.19 315.00,305.53C315.00,307.05 314.08,311.37 312.96,315.13C311.84,318.90 309.85,323.22 308.55,324.74C306.22,327.45 305.97,327.50 294.87,327.50C283.56,327.50 283.56,327.50 282.36,331.50C281.57,334.12 281.13,343.93 281.09,360.00C281.06,373.48 281.45,388.43 281.95,393.22C282.48,398.26 284.45,406.83 286.60,413.48C288.65,419.82 290.52,424.81 290.76,424.57C291.00,424.33 291.14,414.65 291.06,403.07C290.99,391.15 291.32,382.00 291.83,382.00C292.32,382.00 293.44,385.71 294.32,390.25C295.19,394.79 297.03,405.93 298.41,415.00C299.78,424.07 301.22,435.01 301.60,439.30C302.19,446.01 302.51,446.99 303.89,446.30C304.78,445.86 308.73,445.57 312.67,445.65C316.62,445.73 321.46,446.33 323.44,446.98C325.42,447.63 328.20,449.71 329.67,451.63C331.68,454.27 332.94,455.03 334.91,454.80zM469.19,451.50C470.47,449.30 473.26,443.77 475.38,439.20C477.50,434.64 478.96,430.63 478.63,430.30C478.30,429.96 475.81,434.37 473.11,440.10C470.41,445.82 467.90,451.62 467.53,453.00C467.09,454.67 467.64,454.17 469.19,451.50zM480.54,417.78C480.68,417.63 480.20,414.31 479.45,410.41C478.71,406.51 477.65,398.92 477.10,393.55C476.55,388.17 475.86,383.52 475.55,383.22C475.25,382.92 474.68,382.98 474.30,383.37C473.91,383.76 473.70,386.97 473.83,390.51C473.96,394.05 474.95,400.44 476.04,404.72C477.12,409.00 478.52,413.75 479.14,415.28C479.76,416.81 480.39,417.94 480.54,417.78zM506.57,410.00C506.92,410.00 506.93,407.30 506.60,404.00C506.27,400.70 505.73,395.30 505.40,392.00C505.07,388.70 504.33,386.00 503.75,386.00C503.06,386.00 502.90,389.11 503.27,395.25C503.58,400.34 504.31,405.74 504.89,407.25C505.47,408.76 506.23,410.00 506.57,410.00zM348.95,388.29C349.95,387.07 351.25,383.25 351.86,379.79C352.46,376.33 353.02,372.38 353.09,371.00C353.16,369.62 353.17,367.94 353.11,367.25C353.05,366.56 352.52,366.00 351.94,366.00C351.36,366.00 350.01,367.98 348.94,370.41C347.87,372.83 346.71,377.52 346.36,380.83C346.01,384.15 346.05,387.67 346.44,388.68C347.10,390.38 347.27,390.36 348.95,388.29zM618.25,379.95C618.66,379.98 619.00,379.28 619.00,378.40C619.00,377.52 617.47,375.27 615.60,373.40C613.73,371.53 611.37,370.02 610.35,370.04C609.33,370.05 607.40,370.68 606.06,371.42C603.65,372.76 603.71,372.83 610.56,376.34C614.38,378.30 617.84,379.92 618.25,379.95zM554.18,375.99C554.35,375.98 556.75,375.31 559.50,374.48C562.25,373.66 565.74,372.49 567.25,371.87C568.76,371.26 570.00,370.08 570.00,369.25C570.00,368.04 569.17,367.88 565.75,368.42C563.41,368.79 559.92,369.86 558.00,370.80C556.08,371.73 554.35,373.29 554.18,374.25C554.00,375.21 554.00,376.00 554.18,375.99zM260.79,371.10C261.05,370.33 260.71,366.59 260.03,362.78C259.25,358.44 258.23,355.64 257.30,355.28C256.47,354.97 255.41,355.33 254.94,356.10C254.47,356.86 254.35,358.61 254.68,359.99C255.02,361.37 256.42,364.75 257.80,367.50C259.28,370.45 260.51,371.93 260.79,371.10zM243.32,367.93C244.76,367.99 244.98,367.53 244.41,365.75C244.02,364.51 243.31,361.93 242.84,360.00C242.38,358.07 241.71,351.51 241.35,345.40C240.84,336.60 241.07,332.77 242.46,326.90C243.43,322.83 245.95,315.85 248.06,311.40C250.97,305.27 253.37,301.95 257.87,297.78C261.15,294.74 265.81,291.30 268.23,290.13C270.65,288.96 274.49,288.00 276.77,288.00C279.04,288.00 282.05,287.48 283.45,286.84C284.85,286.20 286.00,285.13 286.00,284.46C286.00,283.80 284.59,282.97 282.88,282.62C281.16,282.28 276.18,282.00 271.82,282.00C267.46,282.00 260.66,282.73 256.70,283.63C252.74,284.52 247.03,286.50 244.00,288.03C240.97,289.56 236.39,292.94 233.80,295.54C231.22,298.14 228.08,300.77 226.83,301.40C225.58,302.02 222.86,304.95 220.79,307.91C218.73,310.87 216.13,315.72 215.02,318.68C213.67,322.29 213.01,326.47 213.02,331.29C213.03,335.25 213.67,341.49 214.44,345.14C215.22,348.80 216.79,353.63 217.94,355.87C219.12,358.20 221.41,360.69 223.26,361.66C225.04,362.59 229.88,364.37 234.00,365.61C238.12,366.85 242.32,367.89 243.32,367.93zM526.50,365.97C527.05,365.97 530.40,365.07 533.94,363.96C537.48,362.85 543.44,361.24 547.19,360.39C550.93,359.54 554.00,358.38 554.00,357.81C554.00,357.16 552.61,357.04 550.25,357.48C548.19,357.86 542.45,359.49 537.50,361.09C532.55,362.69 527.83,364.44 527.00,364.98C526.17,365.53 525.95,365.97 526.50,365.97zM602.00,350.73C605.67,350.83 606.84,350.60 605.50,350.06C604.40,349.62 600.64,348.92 597.13,348.51C593.63,348.11 585.98,348.16 580.13,348.64C569.50,349.50 569.50,349.50 583.00,350.04C590.42,350.34 598.98,350.65 602.00,350.73zM627.02,351.00C627.54,351.00 628.26,349.81 628.63,348.36C628.99,346.90 629.00,340.26 628.64,333.61C628.28,326.95 627.53,319.86 626.97,317.85C626.42,315.84 625.31,313.95 624.51,313.64C623.72,313.34 622.78,313.54 622.44,314.10C622.10,314.65 622.36,322.40 623.02,331.30C623.68,340.21 624.63,348.29 625.14,349.25C625.65,350.21 626.50,351.00 627.02,351.00zM474.12,337.49C475.06,330.88 476.97,320.82 478.37,315.14C479.77,309.46 482.09,302.81 483.53,300.36C486.14,295.90 486.14,295.90 479.32,299.37C475.50,301.31 470.47,304.96 467.89,307.67C465.36,310.32 461.93,314.52 460.27,317.00C458.62,319.48 455.18,325.65 452.63,330.73C450.08,335.81 448.00,340.87 448.00,341.98C448.00,343.09 448.56,344.00 449.25,344.00C449.94,343.99 454.69,343.31 459.82,342.48C464.95,341.65 469.56,341.23 470.07,341.54C470.58,341.86 471.00,342.95 471.00,343.98C471.00,345.00 471.32,346.66 471.71,347.67C472.15,348.79 473.08,344.85 474.12,337.49zM256.11,342.00C257.46,342.00 258.02,340.89 258.51,337.25C258.85,334.64 259.60,330.07 260.17,327.09C260.74,324.11 262.07,319.66 263.13,317.20C264.19,314.73 266.42,310.69 268.09,308.22C270.22,305.05 270.81,303.41 270.06,302.66C269.31,301.91 267.43,303.22 263.70,307.07C259.71,311.19 257.73,314.34 255.70,319.83C253.75,325.09 253.00,328.99 253.00,333.89C253.00,337.62 253.30,340.97 253.67,341.33C254.03,341.70 255.13,342.00 256.11,342.00zM375.50,315.65C390.45,315.51 398.14,315.07 399.50,314.26C400.60,313.60 401.05,312.98 400.50,312.88C399.95,312.79 386.68,312.65 371.00,312.58C355.32,312.51 341.60,312.06 340.50,311.59C338.62,310.77 338.60,310.82 340.16,312.48C341.13,313.52 344.23,314.58 347.66,315.04C350.87,315.48 363.40,315.75 375.50,315.65zM491.03,314.00C491.60,314.00 492.35,313.21 492.71,312.25C493.06,311.29 494.40,309.11 495.68,307.41C496.95,305.70 498.00,303.86 498.00,303.30C498.00,302.74 499.60,300.20 501.55,297.64C503.50,295.09 504.54,293.00 503.86,293.00C503.18,293.00 500.47,295.32 497.85,298.16C495.22,301.00 492.38,305.36 491.54,307.84C490.69,310.32 490.00,312.73 490.00,313.18C490.00,313.63 490.46,314.00 491.03,314.00zM338.98,302.00C339.52,302.00 341.06,299.86 342.39,297.25C343.73,294.64 346.32,291.11 348.16,289.41C350.00,287.71 353.04,285.26 354.92,283.97C356.81,282.67 357.82,281.44 357.18,281.23C356.54,281.01 354.49,281.34 352.62,281.96C350.75,282.58 347.59,284.66 345.60,286.60C343.61,288.53 341.09,291.87 339.99,294.02C338.90,296.16 338.00,298.84 338.00,299.96C338.00,301.08 338.44,302.00 338.98,302.00zM443.31,283.69C448.71,283.65 453.35,283.25 453.62,282.81C453.89,282.36 448.35,282.04 441.31,282.10C433.47,282.16 429.47,282.51 431.00,282.99C432.38,283.42 437.91,283.74 443.31,283.69zM340.77,243.90C352.85,243.74 360.00,243.13 366.50,241.72C371.45,240.65 380.68,238.53 387.00,237.01C393.32,235.49 406.92,231.92 417.22,229.09C427.51,226.25 437.63,223.22 439.72,222.37C441.80,221.51 445.85,219.05 448.72,216.89C451.59,214.74 454.46,211.97 455.10,210.74C456.14,208.72 455.97,208.77 453.38,211.19C451.80,212.66 448.47,214.74 445.98,215.80C443.50,216.86 437.87,218.94 433.48,220.41C429.09,221.89 421.23,224.17 416.00,225.50C410.77,226.82 399.75,229.07 391.50,230.50C383.25,231.94 373.90,233.77 370.71,234.59C367.53,235.41 364.54,235.83 364.06,235.54C363.58,235.24 364.71,231.14 366.56,226.41C368.42,221.69 372.06,214.60 374.66,210.66C377.26,206.72 380.05,201.70 380.86,199.50C381.67,197.30 382.37,191.83 382.41,187.33C382.46,182.84 382.92,179.24 383.42,179.33C383.93,179.43 384.83,177.83 385.43,175.79C386.03,173.75 386.96,171.66 387.51,171.15C388.05,170.63 393.90,168.98 400.50,167.48C407.10,165.97 413.29,164.33 414.25,163.83C415.80,163.03 416.00,161.18 416.00,147.52C416.00,139.05 415.66,131.91 415.25,131.66C414.84,131.41 411.91,130.88 408.75,130.48C404.76,129.99 403.00,130.11 403.00,130.88C403.00,131.50 403.68,132.00 404.50,132.00C405.46,132.00 406.00,132.96 406.00,134.67C406.00,136.13 404.38,140.30 402.41,143.92C400.44,147.54 397.40,152.00 395.66,153.84C393.92,155.67 390.71,158.10 388.51,159.23C384.92,161.08 383.33,161.23 372.51,160.71C365.91,160.40 357.35,159.42 353.50,158.53C349.65,157.65 344.25,155.71 341.50,154.21C337.62,152.11 335.94,150.38 334.00,146.50C331.79,142.07 331.50,140.24 331.51,130.50C331.52,122.00 331.91,118.78 333.24,116.34C334.18,114.60 336.66,111.77 338.73,110.06C340.80,108.34 344.98,106.18 348.00,105.25C351.79,104.10 357.08,103.57 365.00,103.57C373.00,103.57 378.22,104.10 382.17,105.29C386.57,106.62 388.75,108.05 391.92,111.65C394.17,114.20 396.53,118.05 397.18,120.20C397.82,122.36 399.09,124.51 400.00,125.00C400.90,125.48 404.70,126.41 408.44,127.06C413.70,127.98 415.40,127.98 415.97,127.05C416.38,126.39 417.00,121.83 417.35,116.92C417.69,112.01 418.67,104.95 419.51,101.24C420.36,97.53 422.39,92.14 424.04,89.26C425.68,86.38 429.17,82.33 431.80,80.25C434.43,78.18 439.58,75.13 443.26,73.49C447.97,71.38 449.95,69.96 449.97,68.66C449.99,67.64 449.10,65.67 448.00,64.27C446.90,62.87 446.00,61.12 446.00,60.37C446.00,59.40 447.43,59.00 450.92,59.00C454.71,59.00 456.53,59.57 458.81,61.50C460.44,62.87 462.51,65.83 463.41,68.07C464.31,70.31 465.49,75.60 466.03,79.82C466.58,84.04 467.26,88.96 467.56,90.75C467.89,92.76 468.67,94.00 469.62,94.00C470.88,94.00 471.04,93.01 470.52,88.25C470.17,85.09 469.46,79.47 468.94,75.77C468.42,72.07 467.06,66.56 465.92,63.53C464.69,60.24 461.83,55.79 458.84,52.52C456.08,49.50 450.83,44.76 447.16,42.00C443.37,39.14 438.34,36.36 435.50,35.56C432.75,34.79 423.52,33.87 415.00,33.52C406.10,33.15 393.54,33.36 385.50,34.01C377.80,34.63 366.43,36.00 360.24,37.05C354.04,38.11 344.99,40.47 340.12,42.30C335.25,44.12 327.74,47.62 323.44,50.06C318.43,52.90 312.49,57.56 306.97,63.00C302.23,67.67 297.52,73.30 296.51,75.49C295.50,77.68 293.66,83.17 292.42,87.68C291.18,92.19 288.94,98.61 287.44,101.96C285.94,105.30 284.91,108.25 285.16,108.49C285.41,108.74 287.39,108.46 289.56,107.86C291.73,107.26 296.10,107.04 299.28,107.37C302.45,107.70 306.34,108.64 307.91,109.45C309.48,110.26 311.90,112.28 313.29,113.93C314.68,115.59 316.31,119.23 316.91,122.02C317.51,124.81 317.98,131.69 317.95,137.30C317.93,142.91 317.31,150.43 316.57,154.00C315.84,157.57 315.18,159.72 315.12,158.77C315.01,157.18 314.66,157.21 310.94,159.15C307.59,160.89 305.70,161.18 300.03,160.77C293.17,160.28 293.17,160.28 292.58,163.42C292.26,165.14 292.64,169.02 293.44,172.03C294.24,175.04 298.01,184.47 301.83,193.00C308.59,208.09 308.85,208.49 311.64,208.21C313.21,208.06 319.82,207.53 326.32,207.05C332.82,206.57 342.01,206.47 346.74,206.84C351.47,207.20 355.50,207.98 355.69,208.57C355.89,209.16 354.87,210.27 353.43,211.04C351.99,211.81 349.99,214.07 348.97,216.06C347.95,218.06 345.53,221.09 343.58,222.80C341.63,224.50 338.43,226.20 336.46,226.57C334.49,226.94 330.84,227.02 328.36,226.74C325.24,226.39 322.94,225.36 320.92,223.43C319.32,221.89 318.00,220.23 318.00,219.74C318.00,219.26 318.68,218.18 319.50,217.36C320.32,216.53 321.00,215.45 321.00,214.95C321.00,214.46 319.67,213.36 318.05,212.53C316.43,211.69 314.18,211.00 313.05,211.00C311.92,211.00 311.00,211.46 311.00,212.01C311.00,212.57 312.55,216.88 314.45,221.58C316.35,226.29 318.21,232.21 318.59,234.75C319.02,237.60 320.20,240.29 321.67,241.76C324.01,244.10 324.34,244.13 340.77,243.90zM475.00,222.65C480.93,222.53 482.50,222.19 482.50,221.00C482.50,219.80 481.01,219.50 475.00,219.52C470.88,219.53 466.15,219.94 464.50,220.43C461.50,221.32 461.50,221.32 464.50,222.06C466.15,222.47 470.88,222.73 475.00,222.65zM327.62,217.00C330.10,217.00 333.00,216.53 334.07,215.96C335.13,215.40 336.00,214.55 336.00,214.08C336.00,213.61 333.04,213.35 329.43,213.52C325.81,213.68 322.62,214.05 322.33,214.34C322.04,214.63 322.10,215.35 322.46,215.93C322.82,216.52 325.15,217.00 327.62,217.00zM482.56,212.34C483.31,212.05 484.21,210.91 484.56,209.81C484.91,208.70 484.73,207.33 484.17,206.77C483.60,206.20 482.43,206.01 481.57,206.34C480.71,206.67 480.00,208.00 480.00,209.30C480.00,210.60 480.27,211.94 480.60,212.26C480.93,212.59 481.81,212.63 482.56,212.34zM444.98,205.57C448.30,205.50 448.49,205.29 449.27,201.00C449.72,198.53 449.95,193.27 449.78,189.31C449.52,183.31 449.06,181.70 447.01,179.51C445.14,177.52 443.95,177.04 442.03,177.52C440.64,177.87 438.44,179.13 437.15,180.32C435.86,181.52 432.55,187.16 429.80,192.85C427.03,198.56 425.18,203.58 425.65,204.05C426.12,204.52 429.88,205.07 434.00,205.27C438.13,205.48 443.06,205.61 444.98,205.57zM402.91,204.74C407.26,204.45 411.55,203.79 412.44,203.30C413.33,202.80 417.00,197.91 420.59,192.44C427.13,182.50 427.13,182.50 422.60,186.92C419.40,190.05 417.93,190.93 417.61,189.92C417.35,189.14 416.95,184.97 416.72,180.65C416.43,175.41 415.82,172.50 414.89,171.91C414.13,171.43 411.48,171.03 409.00,171.03C406.52,171.03 404.00,171.36 403.40,171.77C402.79,172.17 401.81,173.43 401.21,174.58C400.61,175.72 398.96,182.44 397.56,189.50C396.15,196.57 395.00,203.01 395.00,203.82C395.00,205.03 396.38,205.19 402.91,204.74zM326.00,194.90C324.62,194.92 322.15,193.82 320.50,192.47C318.85,191.12 316.89,190.01 316.15,190.00C315.41,190.00 313.50,189.07 311.90,187.93C309.72,186.38 309.01,185.08 309.04,182.68C309.05,180.93 309.71,178.38 310.50,177.00C311.29,175.62 311.95,175.09 311.96,175.82C311.98,176.54 311.49,178.08 310.87,179.24C309.95,180.96 310.08,181.60 311.62,182.76C313.08,183.87 315.19,184.02 321.00,183.46C325.12,183.06 329.85,182.79 331.49,182.85C333.14,182.91 335.77,183.49 337.33,184.14C339.65,185.10 340.35,185.05 341.08,183.91C341.57,183.13 341.98,181.38 342.00,180.00C342.02,178.02 342.23,177.81 343.00,179.00C343.53,179.82 343.98,182.34 343.98,184.60C344.00,187.49 343.39,189.24 341.91,190.58C340.76,191.63 337.27,193.02 334.16,193.68C331.05,194.33 327.38,194.88 326.00,194.90zM495.00,194.00C495.55,194.00 496.88,193.12 497.96,192.04C499.04,190.96 500.86,188.15 502.02,185.79C504.13,181.50 504.13,181.50 499.06,186.68C496.28,189.52 494.00,192.33 494.00,192.93C494.00,193.52 494.45,194.00 495.00,194.00zM507.64,190.82C508.55,190.65 510.12,189.38 511.15,188.00C512.17,186.62 513.55,182.93 514.20,179.78C514.86,176.64 515.04,173.71 514.60,173.28C514.16,172.85 512.58,173.97 511.07,175.76C509.57,177.55 507.81,181.30 507.17,184.09C506.53,186.87 506.00,189.60 506.00,190.15C506.00,190.70 506.74,191.00 507.64,190.82zM499.80,171.98C501.06,171.99 503.43,171.31 505.05,170.47C506.81,169.57 508.00,168.15 508.00,166.97C508.00,165.89 507.70,165.00 507.34,165.00C506.97,165.00 504.26,165.76 501.30,166.70C497.03,168.04 495.11,168.17 491.99,167.34C489.62,166.71 488.30,166.67 488.66,167.25C488.98,167.78 491.10,169.05 493.37,170.08C495.64,171.11 498.53,171.97 499.80,171.98zM471.10,156.50C471.46,154.85 471.82,151.37 471.88,148.77C471.95,146.17 472.72,142.23 473.61,140.02C474.49,137.81 475.62,136.00 476.11,136.00C476.60,136.00 477.01,138.14 477.02,140.75C477.02,143.36 477.41,146.10 477.88,146.84C478.39,147.64 478.91,144.27 479.20,138.34C479.50,132.13 480.27,127.37 481.28,125.42C482.15,123.73 484.69,120.71 486.91,118.70C489.13,116.69 492.12,114.76 493.55,114.40C494.99,114.04 498.66,114.04 501.72,114.40C506.86,115.00 507.18,114.92 505.89,113.37C505.13,112.45 503.07,111.09 501.32,110.36C499.58,109.63 497.87,108.15 497.52,107.07C497.17,105.97 494.20,103.75 490.79,102.05C485.69,99.50 483.50,99.00 477.54,99.00C471.86,99.00 469.33,99.53 465.20,101.59C462.34,103.01 458.38,106.05 456.39,108.34C454.41,110.63 451.97,114.35 450.98,116.62C449.99,118.89 448.48,123.48 447.62,126.82C446.54,131.06 446.26,134.97 446.70,139.70C447.22,145.30 447.82,146.97 450.09,149.25C451.61,150.77 453.02,152.79 453.21,153.75C453.41,154.71 454.11,152.80 454.76,149.50C455.41,146.20 456.64,139.68 457.48,135.00C458.52,129.29 460.42,123.72 463.26,118.02C466.59,111.38 468.58,108.72 472.50,105.72C476.84,102.39 478.05,101.94 481.64,102.31C483.92,102.54 488.31,104.18 491.40,105.94C494.49,107.71 496.79,109.53 496.51,109.99C496.22,110.45 492.73,111.36 488.75,112.03C484.76,112.69 480.37,113.81 479.00,114.52C477.62,115.22 475.65,116.72 474.63,117.86C473.60,119.00 473.02,120.61 473.34,121.45C473.66,122.29 472.59,125.79 470.96,129.24C468.40,134.67 468.00,136.65 468.00,144.10C468.00,148.83 468.55,154.23 469.21,156.10C470.43,159.50 470.43,159.50 471.10,156.50zM518.89,156.00C519.38,156.00 520.06,155.29 520.39,154.42C520.73,153.55 521.00,149.02 521.00,144.36C521.00,139.70 520.49,133.86 519.87,131.39C519.23,128.88 517.43,125.59 515.79,123.94C514.17,122.32 512.42,121.00 511.90,121.00C511.38,121.00 511.64,122.33 512.48,123.96C513.32,125.59 514.91,130.65 516.00,135.21C517.09,139.77 517.99,146.31 517.99,149.75C518.00,153.19 518.40,156.00 518.89,156.00zM510.13,150.78C510.50,150.20 511.10,146.44 511.47,142.43C512.05,136.30 511.83,134.42 510.13,130.57C509.02,128.06 507.67,126.00 507.13,126.00C506.59,126.00 506.89,127.46 507.80,129.25C508.98,131.59 509.45,135.21 509.46,142.17C509.47,147.49 509.77,151.37 510.13,150.78zM493.82,150.00C494.19,150.00 494.50,146.62 494.50,142.50C494.50,138.33 494.09,135.14 493.57,135.31C493.06,135.48 492.22,136.29 491.71,137.10C491.11,138.04 491.21,140.67 491.96,144.29C492.61,147.43 493.45,150.00 493.82,150.00zM302.95,133.11C304.33,131.32 304.71,131.26 306.44,132.55C307.51,133.35 308.75,134.00 309.19,134.00C309.64,134.00 310.00,133.36 310.00,132.57C310.00,131.79 309.29,130.44 308.43,129.57C307.56,128.71 305.58,128.00 304.01,128.00C302.44,128.00 300.45,128.27 299.58,128.61C298.71,128.94 298.00,129.69 298.00,130.28C298.00,130.86 298.77,132.19 299.70,133.23C301.37,135.07 301.44,135.07 302.95,133.11zM362.75,134.94C362.89,134.97 363.00,134.55 363.00,134.00C363.00,133.45 362.32,133.00 361.50,133.00C360.68,133.00 360.00,132.64 360.00,132.20C360.00,131.76 360.54,130.86 361.20,130.20C361.86,129.54 363.22,129.00 364.21,129.00C365.21,129.00 366.90,128.46 367.96,127.79C369.55,126.80 370.25,126.92 371.94,128.45C373.07,129.47 374.00,131.11 374.00,132.10C374.00,133.08 374.40,134.13 374.89,134.43C375.37,134.73 376.28,134.36 376.91,133.61C377.69,132.67 377.74,131.45 377.07,129.68C376.40,127.91 374.92,126.79 372.30,126.07C370.21,125.49 367.30,125.01 365.84,125.01C364.09,125.00 362.29,126.06 360.59,128.08C359.17,129.77 358.00,131.58 358.00,132.11C358.00,132.63 359.01,133.47 360.25,133.97C361.49,134.47 362.61,134.90 362.75,134.94zM441.21,120.43C441.92,120.14 444.66,116.04 447.30,111.33C449.94,106.62 451.91,102.57 451.67,102.34C451.43,102.10 449.69,103.39 447.78,105.20C445.88,107.02 443.08,110.64 441.56,113.26C440.04,115.88 439.05,118.69 439.36,119.50C439.67,120.30 440.50,120.73 441.21,120.43zM767.52,112.00C767.25,112.00 766.76,110.88 766.41,109.50C765.99,107.82 765.08,106.99 763.64,106.97C762.46,106.95 760.69,106.32 759.70,105.57C758.36,104.56 758.23,104.08 759.20,103.73C760.00,103.44 759.42,102.76 757.72,101.96C755.67,100.99 755.28,100.42 756.22,99.76C757.05,99.18 756.32,99.00 754.16,99.27C751.70,99.57 750.52,99.20 749.67,97.84C749.04,96.83 747.75,96.00 746.81,96.00C745.87,96.00 743.89,94.88 742.41,93.50C740.92,92.12 739.32,91.00 738.85,91.00C738.38,91.00 738.00,90.44 738.00,89.75C737.99,89.06 735.09,87.09 731.53,85.38C727.98,83.66 725.36,81.97 725.71,81.63C726.05,81.28 725.11,81.00 723.62,81.00C721.87,81.00 719.62,79.76 717.32,77.52C715.35,75.61 713.35,74.29 712.87,74.58C712.39,74.88 712.00,74.70 712.00,74.18C712.00,73.67 710.62,72.97 708.93,72.64C707.23,72.30 706.15,71.57 706.49,71.01C706.84,70.46 706.29,70.00 705.28,70.00C704.27,70.00 702.67,69.10 701.73,68.00C700.79,66.90 699.40,66.00 698.65,66.00C697.89,66.00 695.75,64.66 693.89,63.02C692.02,61.37 689.71,60.02 688.75,60.02C687.79,60.01 687.00,59.58 687.00,59.07C687.00,58.55 686.11,57.85 685.02,57.51C683.93,57.16 683.08,56.57 683.14,56.19C683.19,55.81 683.18,54.91 683.12,54.19C683.05,53.47 682.60,53.13 682.12,53.43C681.64,53.72 680.07,52.79 678.63,51.36C676.50,49.23 675.41,48.86 672.76,49.36C670.24,49.83 669.90,49.73 671.25,48.93C672.21,48.37 673.00,47.36 673.00,46.70C673.00,45.89 671.15,45.55 667.25,45.66C661.98,45.81 661.83,45.76 665.50,45.05C669.29,44.32 669.16,44.27 663.00,44.00C656.95,43.74 656.78,43.67 660.50,43.00C664.50,42.28 664.50,42.28 659.00,41.99C653.50,41.70 653.50,41.70 658.00,41.00C662.50,40.30 662.50,40.30 657.50,40.02C652.63,39.74 652.59,39.72 656.00,39.00C659.50,38.26 659.50,38.26 655.50,38.03C652.07,37.83 651.86,37.70 654.00,37.09C656.41,36.40 656.38,36.36 653.12,35.69C651.27,35.31 647.89,34.96 645.62,34.90C642.08,34.81 641.85,34.69 644.00,34.00C646.33,33.25 646.26,33.18 643.00,32.98C639.50,32.76 639.50,32.76 642.50,32.00C645.50,31.24 645.50,31.24 642.00,31.02C638.74,30.82 638.67,30.75 641.00,30.00C643.50,29.20 643.50,29.20 641.00,29.00C638.50,28.80 638.50,28.80 641.00,28.00C642.99,27.36 642.37,27.15 638.00,26.96C632.50,26.72 632.50,26.72 636.50,26.00C640.50,25.28 640.50,25.28 635.00,24.99C629.50,24.70 629.50,24.70 634.00,24.00C638.50,23.30 638.50,23.30 634.00,23.03C629.79,22.78 629.69,22.71 632.50,22.00C635.00,21.36 634.50,21.19 629.50,20.98C623.73,20.73 623.65,20.69 627.50,20.00C631.50,19.28 631.50,19.28 627.50,19.07C624.29,18.90 623.89,18.69 625.50,18.00C627.20,17.27 627.02,17.13 624.37,17.07C622.18,17.02 620.74,16.25 619.62,14.54C618.73,13.18 618.00,11.38 618.00,10.54C618.00,9.53 617.05,8.99 615.25,8.98C613.73,8.98 613.00,8.64 613.61,8.23C614.23,7.83 614.45,6.83 614.11,6.00C613.78,5.17 612.60,4.34 611.50,4.15C610.40,3.96 609.17,3.28 608.77,2.65C608.36,2.02 608.02,1.16 608.02,0.75C608.01,0.34 644.00,0.00 688.00,0.00C768.00,0.00 768.00,0.00 768.00,56.00C768.00,86.80 767.78,112.00 767.52,112.00zM513.76,102.94C513.95,100.98 513.42,94.82 512.59,89.25C511.75,83.69 510.12,77.10 508.95,74.61C507.78,72.13 504.94,68.35 502.63,66.23C500.32,64.10 495.84,61.09 492.66,59.54C488.33,57.42 486.60,57.00 485.74,57.86C484.89,58.71 485.13,60.10 486.74,63.41C488.61,67.26 489.61,68.08 494.69,69.94C497.89,71.11 501.04,72.25 501.69,72.48C502.35,72.71 503.61,73.99 504.49,75.34C505.37,76.69 507.16,82.90 508.46,89.15C509.76,95.39 511.41,101.85 512.13,103.50C513.42,106.50 513.42,106.50 513.76,102.94zM384.44,94.70C383.85,94.89 383.07,94.73 382.69,94.35C382.31,93.98 382.00,92.05 382.01,90.08C382.01,88.11 382.86,83.74 383.88,80.36C384.91,76.98 387.39,71.74 389.39,68.73C391.40,65.71 395.29,61.13 398.05,58.55C400.81,55.97 405.48,52.75 408.44,51.40C411.39,50.05 417.27,48.28 421.49,47.47C425.72,46.66 431.72,46.01 434.84,46.02C437.95,46.02 441.18,46.47 442.00,47.00C443.07,47.69 441.89,47.97 437.91,47.98C434.84,47.99 428.82,48.90 424.53,49.99C420.25,51.09 413.37,53.61 409.25,55.59C404.68,57.79 399.73,61.20 396.54,64.34C392.09,68.75 391.09,70.45 389.73,76.00C388.85,79.58 387.54,85.17 386.82,88.43C386.09,91.69 385.02,94.51 384.44,94.70zM490.07,91.00C490.58,91.00 490.99,89.31 490.98,87.25C490.97,85.19 490.14,80.35 489.13,76.50C488.13,72.65 486.27,67.12 485.01,64.21C483.75,61.30 481.78,58.26 480.64,57.46C479.49,56.66 477.53,56.00 476.28,56.00C474.85,56.00 474.00,56.60 474.00,57.61C474.00,58.50 476.14,61.56 478.75,64.43C481.49,67.43 484.21,71.72 485.19,74.57C486.12,77.28 487.39,82.09 488.01,85.25C488.63,88.41 489.56,91.00 490.07,91.00zM478.81,50.52C479.03,50.31 478.90,49.65 478.53,49.05C478.16,48.46 475.98,46.97 473.68,45.75C471.38,44.52 468.65,43.17 467.61,42.74C465.96,42.06 465.89,42.17 467.06,43.58C467.80,44.46 470.66,46.48 473.41,48.05C476.17,49.62 478.60,50.74 478.81,50.52zM0.93,7.00C0.42,7.00 0.00,5.42 0.00,3.50C0.00,0.00 0.00,0.00 11.57,0.00C20.27,0.00 23.50,0.36 24.57,1.43C25.36,2.21 26.00,3.16 26.00,3.53C26.00,3.91 22.40,4.05 18.00,3.85C12.05,3.58 10.00,3.81 10.00,4.74C10.00,5.43 9.55,6.00 9.00,6.00C8.45,6.00 8.00,5.55 8.00,5.00C8.00,4.45 7.29,4.00 6.43,4.00C5.56,4.00 4.18,4.67 3.36,5.50C2.53,6.33 1.44,7.00 0.93,7.00z"/>

</svg>