<svg xmlns="http://www.w3.org/2000/svg" xmlns:xlink="http://www.w3.org/1999/xlink" xmlns:svg="http://www.w3.org/2000/svg" xmlns:rdf="http://www.w3.org/1999/02/22-rdf-syntax-ns#" xmlns:cc="http://creativecommons.org/ns#" xmlns:dc="http://purl.org/dc/elements/1.1/" version="1.1" viewBox="0 0 768 768" width="768" height="768">
<style>svg {background-color: white; }</style>"
<metadata id="metadata1">
Created by https://svgstud.io and licensed under CC-BY-SA 4.0 license. Please attribute https://svgstud.io
</metadata>
<metadata id="prompt">
Speech Recognition Integration Utilizes the Vosk system for real-time transcription of spoken questions
</metadata>
<metadata id="version">
7
</metadata>
<metadata id="metadata2">
<rdf:RDF>
<cc:Work rdf:about="">
    <cc:license rdf:resource="http://creativecommons.org/licenses/by-sa/4.0/"/>
    <dc:creator>
        <cc:Agent>
            <dc:title>https://svgstud.io</dc:title>
        </cc:Agent>
    </dc:creator>
</cc:Work>
<cc:License rdf:about="http://creativecommons.org/licenses/by-sa/4.0/">
    <cc:permits rdf:resource="http://creativecommons.org/ns#Reproduction"/>
    <cc:permits rdf:resource="http://creativecommons.org/ns#Distribution"/>
    <cc:requires rdf:resource="http://creativecommons.org/ns#Notice"/>
    <cc:requires rdf:resource="http://creativecommons.org/ns#Attribution"/>
    <cc:permits rdf:resource="http://creativecommons.org/ns#DerivativeWorks"/>
    <cc:requires rdf:resource="http://creativecommons.org/ns#ShareAlike"/>
</cc:License>
</rdf:RDF>
</metadata>
<metadata id="uid">
b4d5ed258e4f30df433ab37ad267825c9037b52bc00215b3998129776724b9fe
</metadata>
<path stroke="#1A8850" fill="#1A8850" fill-rule="evenodd" d="M383.50,688.57C365.90,688.79 354.09,688.47 346.95,687.56C341.15,686.83 331.25,685.25 324.95,684.06C318.65,682.87 308.77,680.60 303.00,679.01C297.23,677.42 287.32,674.35 281.00,672.18C274.68,670.02 264.10,665.75 257.50,662.71C250.90,659.66 241.90,655.17 237.50,652.73C233.10,650.29 226.35,646.37 222.50,644.02C218.65,641.68 211.38,636.90 206.35,633.40C201.32,629.90 191.64,622.38 184.85,616.68C178.06,610.99 167.81,601.42 162.09,595.41C156.36,589.41 149.15,581.57 146.06,577.98C142.97,574.39 137.68,567.83 134.30,563.39C130.92,558.95 124.60,549.96 120.25,543.41C115.91,536.86 110.31,527.90 107.80,523.50C105.30,519.10 101.20,511.41 98.70,506.42C96.20,501.42 91.90,491.97 89.16,485.42C86.42,478.86 82.59,468.32 80.64,462.00C78.70,455.68 76.21,446.90 75.12,442.50C74.03,438.10 72.21,429.32 71.08,423.00C69.95,416.68 68.52,405.88 67.90,399.00C67.22,391.59 66.99,377.94 67.31,365.50C67.61,353.95 68.57,339.32 69.44,333.00C70.31,326.68 72.14,315.84 73.51,308.93C74.89,302.01 78.30,289.21 81.10,280.48C83.90,271.75 88.42,259.40 91.15,253.05C93.87,246.70 98.94,236.10 102.42,229.50C105.90,222.90 111.07,213.77 113.91,209.22C116.74,204.66 121.84,197.01 125.23,192.22C128.63,187.42 134.76,179.27 138.86,174.11C142.96,168.94 152.21,158.64 159.41,151.22C166.61,143.80 176.78,134.14 182.00,129.75C187.22,125.36 196.22,118.40 202.00,114.29C207.78,110.17 217.90,103.61 224.50,99.71C231.10,95.82 242.35,89.83 249.50,86.42C256.65,83.01 266.55,78.62 271.50,76.67C276.45,74.72 285.90,71.50 292.50,69.50C299.10,67.50 309.45,64.80 315.50,63.50C321.55,62.20 331.23,60.44 337.00,59.60C342.77,58.76 355.23,57.58 364.67,56.97C377.13,56.18 386.18,56.17 397.67,56.97C406.38,57.57 418.23,58.75 424.00,59.59C429.77,60.43 437.72,61.78 441.66,62.58C445.59,63.39 454.37,65.57 461.16,67.43C467.95,69.29 479.29,72.91 486.35,75.47C493.42,78.03 504.66,82.67 511.35,85.78C518.03,88.88 529.35,94.76 536.50,98.82C543.65,102.89 554.00,109.40 559.50,113.29C565.00,117.19 573.77,123.77 579.00,127.93C584.23,132.09 594.52,141.35 601.88,148.50C609.24,155.65 619.83,166.90 625.42,173.50C631.01,180.10 637.87,188.65 640.68,192.50C643.49,196.35 649.02,204.45 652.97,210.50C656.93,216.55 664.61,230.50 670.04,241.50C675.48,252.50 682.01,267.35 684.57,274.50C687.12,281.65 690.97,294.48 693.12,303.00C695.27,311.52 697.95,324.57 699.08,332.00C700.37,340.46 701.35,353.20 701.71,366.12C702.06,379.07 701.83,391.54 701.07,399.62C700.41,406.71 699.00,417.45 697.95,423.50C696.89,429.55 694.70,439.90 693.08,446.50C691.46,453.10 688.35,463.45 686.16,469.50C683.98,475.55 680.63,484.10 678.73,488.50C676.83,492.90 672.77,501.50 669.70,507.62C666.63,513.73 661.05,523.86 657.31,530.12C653.56,536.38 647.05,546.23 642.83,552.00C638.61,557.78 632.17,566.10 628.53,570.50C624.89,574.90 616.64,583.82 610.20,590.33C603.77,596.83 594.23,605.85 589.00,610.36C583.77,614.87 575.90,621.28 571.50,624.62C567.10,627.95 559.45,633.36 554.50,636.64C549.55,639.93 541.90,644.70 537.50,647.25C533.10,649.81 522.98,655.02 515.00,658.85C507.02,662.68 496.23,667.39 491.00,669.32C485.77,671.26 476.10,674.40 469.50,676.32C462.90,678.23 452.32,680.94 446.00,682.33C439.68,683.73 428.88,685.63 422.00,686.56C413.80,687.67 400.56,688.36 383.50,688.57zM386.00,655.45C396.18,655.27 408.32,654.62 413.00,654.02C417.68,653.41 427.12,651.79 434.00,650.41C440.88,649.04 451.23,646.56 457.00,644.91C462.77,643.25 473.80,639.40 481.50,636.34C489.20,633.29 500.23,628.27 506.00,625.20C511.77,622.13 520.55,617.17 525.50,614.19C530.45,611.20 538.33,606.02 543.00,602.68C547.67,599.34 554.65,594.05 558.50,590.92C562.35,587.79 569.09,581.94 573.49,577.92C577.88,573.90 585.71,566.08 590.90,560.55C596.09,555.02 603.74,546.22 607.91,540.99C612.09,535.76 618.81,526.39 622.86,520.17C626.91,513.95 633.68,502.02 637.91,493.67C642.14,485.32 647.49,473.32 649.81,467.00C652.12,460.67 654.92,452.35 656.01,448.50C657.11,444.65 659.11,435.88 660.46,429.00C661.81,422.12 663.45,412.23 664.10,407.00C664.76,401.77 665.30,387.82 665.30,376.00C665.30,364.18 664.75,350.00 664.07,344.50C663.40,339.00 661.94,329.77 660.84,324.00C659.74,318.23 657.52,308.61 655.89,302.63C654.27,296.66 651.33,287.43 649.36,282.13C647.39,276.84 643.92,268.45 641.65,263.50C639.38,258.55 635.35,250.45 632.69,245.50C630.03,240.55 623.65,230.20 618.51,222.50C613.37,214.79 606.11,204.89 602.40,200.50C598.68,196.10 591.63,188.12 586.73,182.77C581.83,177.42 572.42,168.42 565.82,162.77C559.21,157.12 548.57,148.74 542.16,144.13C535.74,139.53 526.00,133.09 520.50,129.81C515.00,126.53 505.55,121.45 499.50,118.53C493.45,115.61 483.32,111.20 477.00,108.74C470.68,106.29 460.77,102.87 455.00,101.15C449.23,99.43 439.32,96.93 433.00,95.60C426.68,94.26 417.23,92.57 412.00,91.83C406.21,91.02 393.91,90.53 380.50,90.59C363.24,90.65 355.38,91.15 344.00,92.87C336.02,94.08 324.35,96.44 318.05,98.10C311.75,99.77 300.95,103.18 294.05,105.68C287.15,108.18 276.04,112.82 269.37,115.99C262.69,119.16 252.80,124.35 247.39,127.54C241.98,130.72 233.94,135.81 229.52,138.84C225.11,141.88 218.14,146.87 214.03,149.93C209.92,152.99 199.41,162.47 190.67,170.98C181.93,179.49 171.33,190.74 167.10,195.98C162.88,201.22 156.69,209.32 153.36,214.00C150.02,218.68 144.58,227.00 141.28,232.50C137.97,238.00 133.18,246.65 130.63,251.73C128.08,256.81 124.14,265.58 121.87,271.23C119.60,276.88 116.27,286.26 114.46,292.09C112.66,297.91 110.27,306.91 109.16,312.09C108.04,317.26 106.39,326.23 105.49,332.00C104.57,337.91 103.62,351.90 103.32,364.00C102.93,379.74 103.21,389.40 104.34,400.04C105.19,408.04 106.86,419.25 108.04,424.95C109.22,430.65 111.49,439.95 113.08,445.61C114.67,451.27 118.49,462.33 121.57,470.20C124.66,478.06 130.10,490.12 133.67,497.00C137.25,503.88 144.36,515.80 149.49,523.50C154.62,531.20 162.76,542.45 167.59,548.50C172.42,554.55 183.08,566.17 191.28,574.31C199.47,582.46 210.75,592.78 216.34,597.24C221.93,601.71 231.90,608.90 238.50,613.23C245.10,617.55 255.68,623.73 262.00,626.96C268.32,630.18 278.00,634.61 283.50,636.79C289.00,638.98 297.77,642.12 303.00,643.79C308.23,645.45 317.79,647.99 324.25,649.43C330.71,650.88 340.84,652.71 346.75,653.51C352.66,654.31 359.75,655.14 362.50,655.37C365.25,655.59 375.82,655.63 386.00,655.45zM373.50,602.36C364.15,602.61 350.07,602.44 342.20,601.98C334.34,601.52 321.06,600.17 312.70,598.97C304.34,597.78 291.64,595.33 284.48,593.53C277.33,591.74 269.23,589.13 266.48,587.74C263.74,586.35 260.62,584.24 259.54,583.05C258.16,581.52 257.47,579.01 257.18,574.46C256.95,570.93 257.07,566.43 257.44,564.46C257.81,562.48 259.68,559.15 261.61,557.01C263.53,554.88 267.34,551.71 270.06,549.96C272.79,548.21 278.49,545.43 282.73,543.79C286.96,542.14 296.26,539.28 303.39,537.44C315.47,534.31 316.67,533.77 320.93,529.65C323.44,527.21 327.52,524.34 330.00,523.27C332.48,522.20 335.18,520.51 336.00,519.51C337.22,518.03 337.56,513.12 337.83,492.91C338.15,468.12 338.15,468.12 334.33,467.11C332.22,466.56 327.53,465.43 323.91,464.61C320.28,463.78 314.43,462.02 310.91,460.69C307.38,459.36 301.35,456.68 297.50,454.73C293.65,452.78 287.17,448.83 283.11,445.96C279.04,443.09 272.21,437.40 267.93,433.31C263.65,429.22 258.35,423.54 256.15,420.69C253.96,417.83 250.36,412.52 248.15,408.88C245.94,405.23 242.98,399.51 241.56,396.15C240.15,392.80 238.21,387.04 237.24,383.35C235.49,376.66 235.49,376.66 229.97,375.55C226.94,374.95 222.90,373.54 220.98,372.43C219.07,371.31 216.39,368.40 215.03,365.95C212.95,362.22 212.49,359.84 212.16,351.30C211.82,342.36 212.05,340.53 213.97,336.57C215.17,334.08 217.49,330.92 219.13,329.55C220.76,328.17 224.26,326.28 226.90,325.34C231.71,323.63 231.71,323.63 232.36,311.66C232.71,305.07 233.00,293.76 233.00,286.52C233.00,279.13 233.70,269.22 234.59,263.93C235.46,258.74 237.47,250.58 239.05,245.79C240.64,241.00 243.59,233.80 245.61,229.79C247.63,225.78 251.41,219.35 254.02,215.50C256.63,211.65 262.08,204.80 266.13,200.29C270.18,195.77 276.65,189.46 280.51,186.28C284.36,183.09 290.75,178.32 294.71,175.69C298.67,173.06 306.10,168.95 311.21,166.57C316.32,164.18 324.20,161.07 328.73,159.64C333.25,158.21 341.35,156.15 346.73,155.06C352.10,153.96 362.95,152.51 370.84,151.84C381.98,150.88 388.33,150.87 399.39,151.79C407.21,152.43 418.05,153.88 423.49,155.00C428.93,156.12 435.20,157.55 437.44,158.17C439.67,158.80 445.88,161.08 451.24,163.23C456.60,165.38 464.17,168.89 468.06,171.03C471.96,173.17 477.95,176.93 481.37,179.37C484.80,181.82 491.06,187.05 495.30,191.01C499.53,194.96 505.72,201.80 509.03,206.21C512.35,210.61 517.27,218.78 519.96,224.36C522.65,229.94 525.80,238.38 526.96,243.11C528.11,247.85 529.48,256.40 530.00,262.11C530.51,267.83 530.95,280.60 530.98,290.50C531.00,300.40 531.30,310.85 531.65,313.73C532.08,317.32 532.78,319.09 533.89,319.39C534.77,319.63 537.20,320.11 539.27,320.46C541.39,320.82 544.63,322.49 546.68,324.29C548.68,326.05 551.13,329.29 552.14,331.49C553.50,334.50 553.96,338.00 553.98,345.54C554.00,353.99 553.64,356.28 551.75,360.04C550.15,363.21 548.32,365.08 545.43,366.50C543.19,367.60 540.31,368.95 539.04,369.50C537.31,370.25 535.92,372.80 533.50,379.64C531.72,384.66 528.54,391.97 526.42,395.88C524.31,399.79 520.34,405.98 517.60,409.64C514.86,413.31 508.88,419.92 504.32,424.35C499.76,428.77 491.63,435.66 486.26,439.65C480.89,443.64 472.00,449.15 466.50,451.88C461.00,454.62 452.33,458.26 447.23,459.98C442.14,461.70 432.82,464.17 426.53,465.47C420.24,466.78 412.49,468.16 409.30,468.55C406.11,468.93 402.94,469.70 402.25,470.25C401.31,470.99 401.00,477.08 401.00,494.40C401.00,513.25 401.28,517.95 402.48,519.67C403.30,520.84 405.95,522.95 408.37,524.37C410.79,525.79 414.66,529.20 416.97,531.96C419.82,535.37 422.33,537.29 424.83,537.97C426.85,538.52 433.23,540.07 439.00,541.41C444.77,542.75 453.41,545.26 458.19,547.00C462.96,548.73 468.99,551.54 471.58,553.26C474.84,555.42 476.88,557.74 478.26,560.86C479.84,564.42 480.14,566.76 479.75,572.26C479.42,576.86 478.61,580.08 477.34,581.84C476.28,583.30 472.51,585.96 468.96,587.75C465.41,589.55 458.07,592.13 452.66,593.50C447.25,594.86 436.67,596.87 429.16,597.95C421.65,599.04 409.88,600.37 403.00,600.92C396.12,601.46 382.85,602.11 373.50,602.36zM343.00,586.45C354.27,586.24 365.07,585.67 367.00,585.19C370.50,584.30 370.50,584.30 367.00,583.67C365.07,583.33 357.43,582.33 350.00,581.45C342.57,580.57 329.75,578.78 321.50,577.47C313.25,576.16 303.35,574.37 299.50,573.50C295.65,572.62 288.09,570.47 282.70,568.72C274.29,565.99 272.77,565.75 271.97,567.02C271.45,567.83 271.02,569.95 271.02,571.73C271.00,573.98 271.68,575.40 273.25,576.43C274.49,577.24 280.68,579.23 287.00,580.85C293.33,582.47 302.55,584.29 307.50,584.91C312.45,585.52 317.85,586.20 319.50,586.43C321.15,586.65 331.73,586.66 343.00,586.45zM389.50,576.42C401.05,576.22 415.14,575.38 420.80,574.55C426.47,573.71 436.37,571.86 442.80,570.43C449.24,569.00 456.35,567.02 458.62,566.03C460.89,565.04 463.07,563.70 463.47,563.05C463.87,562.40 463.95,561.62 463.65,561.31C463.34,561.01 453.51,562.16 441.80,563.86C430.08,565.57 415.77,567.40 410.00,567.92C404.23,568.44 394.32,569.12 388.00,569.43C381.68,569.73 372.94,569.65 368.58,569.24C364.22,568.83 360.50,568.02 360.30,567.42C360.11,566.83 361.17,565.79 362.67,565.10C364.17,564.42 369.96,559.73 375.54,554.68C381.12,549.63 386.26,544.63 386.96,543.57C388.03,541.95 387.97,541.45 386.53,540.40C385.59,539.71 381.75,538.63 378.00,538.00C374.10,537.34 370.54,536.13 369.69,535.17C368.49,533.81 368.08,527.60 367.50,501.86C366.77,470.21 366.77,470.21 359.64,469.76C355.71,469.51 352.05,469.71 351.50,470.20C350.89,470.75 350.40,481.94 350.23,498.80C350.09,514.03 349.74,527.51 349.47,528.74C349.10,530.41 347.83,531.27 344.53,532.10C341.84,532.77 339.49,534.13 338.57,535.54C337.73,536.82 335.55,539.00 333.73,540.39C331.51,542.09 324.49,544.55 312.37,547.90C302.45,550.64 291.36,554.07 287.74,555.51C284.12,556.96 280.92,558.76 280.64,559.50C280.35,560.25 280.72,561.36 281.47,561.97C282.21,562.59 286.79,564.17 291.66,565.49C296.52,566.80 305.27,568.79 311.11,569.90C316.94,571.02 329.99,572.84 340.11,573.95C350.22,575.07 360.75,576.16 363.50,576.38C366.25,576.60 377.95,576.62 389.50,576.42zM380.50,450.90C391.93,450.94 403.49,450.40 409.51,449.54C415.01,448.76 421.76,447.63 424.51,447.03C427.25,446.44 433.77,444.57 439.00,442.88C444.23,441.19 452.14,438.11 456.60,436.04C461.05,433.97 468.48,429.75 473.10,426.67C477.72,423.60 485.35,417.50 490.06,413.13C494.77,408.76 500.99,401.76 503.88,397.57C506.78,393.38 510.65,386.70 512.48,382.73C514.32,378.75 516.61,372.80 517.58,369.50C519.12,364.23 519.39,357.54 519.75,314.50C520.03,280.53 519.80,262.59 518.98,256.00C518.33,250.78 516.67,242.90 515.28,238.50C513.90,234.10 511.29,227.57 509.49,224.00C507.69,220.43 504.21,214.77 501.75,211.44C499.29,208.11 494.86,202.92 491.89,199.90C488.93,196.89 483.80,192.38 480.50,189.88C477.20,187.38 471.77,183.75 468.43,181.81C465.10,179.87 458.80,176.68 454.43,174.73C450.07,172.78 444.30,170.45 441.61,169.56C438.93,168.66 433.53,167.44 429.61,166.84C424.31,166.03 421.41,166.05 418.20,166.93C415.63,167.63 412.37,169.63 410.12,171.88C408.04,173.96 405.35,177.71 404.14,180.21C402.93,182.72 401.50,187.41 400.97,190.64C400.44,193.86 400.01,200.47 400.01,205.33C400.00,214.16 400.00,214.16 422.76,213.44C442.91,212.81 445.68,212.91 446.85,214.32C447.57,215.19 447.89,216.78 447.55,217.84C447.21,218.91 445.71,220.25 444.22,220.82C442.72,221.39 433.18,222.85 423.00,224.06C412.82,225.28 403.47,226.66 402.21,227.13C400.02,227.94 399.94,228.36 400.21,237.74C400.50,247.50 400.50,247.50 412.50,247.00C419.10,246.73 429.45,246.51 435.50,246.50C446.50,246.50 446.50,246.50 446.80,249.09C446.97,250.51 446.42,252.24 445.59,252.92C444.76,253.61 436.49,255.24 427.20,256.53C417.92,257.82 409.02,259.16 407.41,259.50C405.81,259.85 403.49,260.33 402.25,260.58C400.12,261.01 400.00,261.51 400.00,270.05C400.00,277.42 400.29,279.18 401.62,279.68C402.50,280.02 412.38,279.48 423.56,278.48C440.22,276.99 444.17,276.90 445.44,277.95C446.30,278.66 447.00,280.08 447.00,281.10C447.00,282.12 445.97,283.63 444.72,284.45C443.46,285.27 433.45,287.39 422.47,289.15C411.49,290.91 401.94,292.78 401.25,293.30C400.44,293.92 400.00,296.99 400.00,302.12C400.00,310.00 400.00,310.00 404.75,309.99C407.36,309.99 414.88,309.31 421.46,308.49C428.04,307.67 436.25,307.00 439.71,307.00C446.00,307.00 446.00,307.00 446.00,309.96C446.00,311.93 445.31,313.30 443.95,314.03C442.82,314.63 432.91,316.61 421.93,318.41C410.95,320.22 401.65,322.01 401.28,322.39C400.90,322.77 400.44,325.87 400.25,329.29C400.07,332.70 400.34,336.13 400.85,336.89C401.65,338.07 404.99,337.96 422.99,336.14C434.65,334.96 444.60,334.25 445.10,334.56C445.59,334.87 446.00,336.40 446.00,337.98C446.00,340.43 445.39,341.06 441.75,342.39C439.41,343.25 429.41,345.32 419.53,347.00C409.65,348.67 401.19,350.41 400.73,350.87C400.27,351.33 400.03,354.36 400.20,357.60C400.50,363.50 400.50,363.50 404.76,363.81C407.11,363.98 415.07,363.42 422.46,362.56C429.86,361.70 437.97,361.00 440.48,361.00C443.52,361.00 445.25,361.48 445.61,362.42C445.91,363.20 445.67,364.74 445.09,365.84C444.50,366.94 441.88,368.52 439.26,369.36C436.64,370.19 430.23,371.55 425.00,372.37C419.77,373.20 412.28,374.38 408.34,375.01C401.19,376.15 401.19,376.15 400.54,382.82C400.18,386.50 400.35,393.48 400.91,398.35C401.47,403.22 402.74,408.82 403.72,410.79C404.70,412.76 406.67,415.23 408.10,416.27C410.52,418.04 411.40,418.09 420.53,417.00C425.94,416.35 433.13,414.97 436.52,413.92C439.90,412.88 444.58,410.64 446.92,408.94C449.81,406.85 452.03,404.03 453.84,400.18C456.50,394.50 456.50,394.50 457.00,300.00C457.45,214.71 457.66,205.21 459.15,202.50C460.05,200.85 461.63,198.77 462.65,197.88C463.67,196.99 465.18,196.04 466.00,195.77C466.82,195.50 468.66,195.86 470.09,196.58C471.51,197.30 473.81,199.37 475.19,201.19C476.58,203.01 478.91,206.85 480.36,209.72C481.81,212.59 483.00,216.07 483.00,217.47C483.00,219.84 482.69,220.00 477.96,220.00C472.92,220.00 472.92,220.00 473.21,229.25C473.50,238.50 473.50,238.50 488.50,238.53C496.75,238.55 504.01,238.88 504.63,239.27C505.25,239.65 506.00,240.91 506.31,242.06C506.63,243.32 506.16,244.84 505.11,245.89C503.83,247.17 499.60,248.08 488.94,249.37C478.29,250.66 474.17,251.55 473.25,252.75C472.56,253.65 472.01,256.88 472.02,259.94C472.02,263.00 472.41,266.09 472.86,266.81C473.51,267.83 477.46,268.06 490.60,267.81C507.50,267.50 507.50,267.50 507.80,270.61C508.06,273.21 507.66,273.89 505.30,274.80C503.76,275.40 495.99,276.85 488.03,278.02C480.07,279.19 473.21,280.37 472.78,280.63C472.35,280.90 472.01,283.68 472.02,286.81C472.02,289.94 472.42,293.11 472.89,293.85C473.60,294.98 476.31,294.92 489.36,293.47C501.93,292.07 505.27,291.98 506.49,292.99C507.32,293.68 508.00,295.30 508.00,296.59C508.00,297.88 507.19,299.36 506.19,299.90C505.20,300.43 498.11,302.07 490.44,303.55C482.77,305.03 475.71,306.65 474.75,307.15C473.34,307.89 473.00,309.42 473.00,315.04C473.00,321.63 473.12,322.00 475.29,322.00C476.55,322.00 482.62,321.30 488.79,320.44C494.95,319.59 501.90,319.02 504.24,319.19C508.03,319.47 508.53,319.80 508.81,322.19C509.03,324.11 508.46,325.31 506.81,326.38C505.54,327.21 499.10,329.06 492.50,330.48C485.90,331.90 478.81,333.52 476.75,334.07C473.00,335.08 473.00,335.08 473.00,343.54C473.00,350.93 473.22,352.00 474.75,352.00C475.71,351.99 482.12,350.88 489.00,349.52C495.88,348.16 502.93,347.04 504.68,347.02C506.98,347.01 508.04,347.55 508.49,348.96C508.83,350.04 508.63,351.82 508.04,352.92C507.35,354.22 504.24,355.78 499.24,357.35C494.98,358.69 487.78,360.79 483.22,362.01C478.33,363.32 474.60,364.90 474.10,365.87C473.64,366.77 472.96,374.81 472.58,383.75C472.16,393.61 472.26,400.00 472.82,400.00C473.33,400.00 477.07,397.01 481.13,393.36C485.18,389.71 490.75,385.24 493.50,383.42C496.25,381.60 499.81,379.80 501.40,379.41C504.23,378.72 504.29,378.79 503.67,381.88C503.33,383.62 501.15,387.85 498.85,391.28C496.54,394.70 492.64,399.88 490.18,402.78C487.71,405.69 482.96,410.23 479.60,412.88C476.25,415.53 469.66,420.00 464.97,422.80C460.28,425.61 452.18,429.55 446.97,431.57C441.76,433.58 433.27,436.31 428.10,437.62C422.93,438.94 413.57,440.68 407.30,441.51C401.03,442.33 389.20,443.00 381.02,443.00C372.84,443.00 362.62,442.53 358.32,441.95C354.02,441.38 348.38,440.22 345.80,439.39C342.94,438.47 339.90,436.51 338.05,434.40C336.37,432.49 335.00,430.14 335.00,429.18C335.00,427.57 336.46,427.43 352.25,427.46C365.84,427.48 370.69,427.12 375.09,425.76C378.17,424.81 381.93,423.06 383.45,421.86C386.04,419.83 386.18,419.32 385.66,414.09C385.35,411.02 384.65,404.90 384.10,400.50C383.56,396.10 383.08,388.72 383.05,384.11C383.00,375.72 383.00,375.72 370.25,376.41C363.24,376.79 348.50,377.09 337.50,377.06C326.50,377.04 314.01,376.58 309.74,376.04C305.47,375.49 299.71,374.07 296.95,372.88C294.06,371.64 290.43,368.98 288.43,366.65C286.52,364.42 284.31,360.42 283.53,357.78C282.71,355.03 281.65,344.09 281.04,332.23C280.46,320.83 279.55,295.34 279.03,275.58C278.41,252.21 277.70,239.43 277.01,239.00C276.26,238.54 276.23,235.81 276.92,229.92C277.45,225.29 278.75,219.03 279.81,216.00C280.86,212.97 283.39,207.19 285.42,203.15C287.46,199.10 288.91,195.57 288.64,195.30C288.37,195.03 286.19,196.86 283.79,199.36C281.40,201.85 277.33,208.08 274.75,213.20C271.81,219.02 269.13,226.34 267.59,232.77C266.23,238.43 264.58,249.45 263.92,257.27C263.09,267.16 262.93,283.96 263.38,312.30C263.74,334.75 264.50,356.42 265.06,360.47C265.62,364.53 267.44,372.04 269.10,377.17C270.76,382.30 273.71,389.43 275.66,393.00C277.61,396.57 281.29,402.43 283.83,406.00C286.38,409.57 292.16,416.17 296.69,420.66C301.22,425.15 308.69,431.33 313.27,434.38C317.86,437.43 325.78,441.54 330.86,443.50C335.95,445.46 344.92,447.92 350.80,448.95C358.64,450.34 366.58,450.86 380.50,450.90zM349.18,362.87C366.71,362.95 379.94,362.59 381.48,362.01C384.08,361.02 384.08,361.02 383.94,346.44C383.83,334.61 383.53,331.76 382.33,331.30C381.52,330.99 374.25,331.25 366.18,331.88C358.11,332.51 338.70,333.92 323.06,335.00C307.42,336.09 294.21,337.39 293.70,337.90C293.20,338.40 292.95,342.50 293.15,347.01C293.48,354.13 293.83,355.44 295.86,357.08C297.14,358.12 299.85,359.42 301.88,359.97C303.91,360.51 308.71,361.36 312.54,361.85C316.37,362.35 332.86,362.80 349.18,362.87zM228.88,352.07C230.05,351.44 231.12,349.05 231.85,345.38C232.48,342.24 233.00,338.42 233.00,336.89C233.00,335.37 232.55,333.84 231.99,333.49C231.44,333.15 230.17,333.13 229.17,333.45C228.17,333.76 226.38,335.77 225.18,337.90C223.98,340.03 223.00,343.40 223.00,345.39C223.00,347.68 223.74,349.74 225.02,351.02C226.56,352.56 227.49,352.81 228.88,352.07zM538.62,344.00C539.38,344.00 540.90,343.10 542.00,342.00C543.10,340.90 544.00,339.66 543.99,339.25C543.99,338.84 543.52,336.83 542.96,334.78C542.39,332.73 540.94,330.37 539.74,329.53C538.54,328.69 536.69,328.00 535.64,328.00C533.87,328.00 533.78,328.53 534.41,334.71C534.79,338.40 535.58,342.00 536.17,342.71C536.76,343.42 537.86,344.00 538.62,344.00zM299.75,322.99C302.36,322.98 309.68,322.54 316.00,322.00C322.32,321.46 339.57,320.35 354.32,319.53C369.08,318.70 381.56,317.77 382.07,317.45C382.58,317.14 383.00,311.28 383.00,304.44C383.00,292.00 383.00,292.00 380.19,292.00C378.64,292.00 367.95,292.88 356.44,293.96C344.92,295.04 330.77,296.62 325.00,297.48C319.23,298.34 310.90,299.72 306.50,300.54C302.10,301.37 297.71,302.29 296.75,302.59C295.24,303.06 295.00,304.48 295.00,313.07C295.00,323.00 295.00,323.00 299.75,322.99zM296.14,289.00C296.77,289.00 302.50,288.13 308.89,287.06C315.28,286.00 325.45,284.65 331.50,284.06C337.55,283.47 350.15,282.54 359.50,282.00C368.85,281.46 377.96,281.01 379.75,281.01C383.00,281.00 383.00,281.00 383.00,270.56C383.00,264.82 382.65,259.90 382.23,259.64C381.81,259.38 376.07,259.58 369.48,260.08C362.89,260.59 351.20,261.70 343.50,262.56C335.80,263.42 323.43,265.24 316.00,266.60C308.57,267.97 300.81,269.53 298.75,270.08C295.00,271.08 295.00,271.08 295.00,280.04C295.00,286.07 295.37,289.00 296.14,289.00zM299.77,256.70C301.82,256.40 309.35,255.22 316.50,254.08C323.65,252.94 338.05,251.53 348.50,250.93C358.95,250.33 370.88,249.54 375.00,249.17C382.50,248.50 382.50,248.50 382.80,240.00C382.96,235.32 382.84,230.49 382.52,229.24C381.99,227.10 381.62,227.02 374.73,227.56C370.75,227.87 359.85,228.80 350.50,229.62C341.15,230.45 327.65,232.20 320.50,233.52C313.35,234.84 304.80,236.75 301.50,237.75C295.50,239.58 295.50,239.58 295.20,246.94C295.04,251.00 295.16,254.98 295.47,255.79C295.89,256.87 297.02,257.11 299.77,256.70zM302.73,222.88C307.00,221.86 315.00,220.34 320.50,219.52C326.00,218.69 342.25,217.48 356.61,216.84C382.71,215.66 382.71,215.66 383.30,203.96C383.70,195.99 384.57,190.24 386.03,185.88C387.21,182.37 389.11,177.93 390.26,176.00C391.42,174.07 394.16,170.51 396.35,168.09C400.34,163.67 400.34,163.67 397.92,162.74C396.55,162.21 390.31,162.10 383.50,162.47C376.90,162.84 367.68,163.79 363.00,164.58C358.32,165.38 350.90,167.20 346.50,168.63C342.10,170.07 335.97,172.52 332.88,174.07C329.79,175.63 323.66,179.61 319.27,182.92C314.88,186.23 308.95,191.76 306.10,195.22C303.25,198.67 299.62,204.20 298.04,207.50C296.46,210.80 294.86,215.61 294.48,218.18C294.10,220.75 294.06,223.28 294.37,223.80C294.72,224.36 298.10,223.98 302.73,222.88z"/>

</svg>