<svg xmlns="http://www.w3.org/2000/svg" xmlns:xlink="http://www.w3.org/1999/xlink" xmlns:svg="http://www.w3.org/2000/svg" xmlns:rdf="http://www.w3.org/1999/02/22-rdf-syntax-ns#" xmlns:cc="http://creativecommons.org/ns#" xmlns:dc="http://purl.org/dc/elements/1.1/" version="1.1" viewBox="0 0 768 768" width="768" height="768">
<style>svg {background-color: white; }</style>"
<metadata id="metadata1">
Created by https://svgstud.io and licensed under CC-BY-SA 4.0 license. Please attribute https://svgstud.io
</metadata>
<metadata id="prompt">
"Imagine a sleek website interface where an AI-powered system scans and analyzes your resume in real time. The digital display highlights key details like work experience, skills, and achievements, then generates personalized, context-aware responses for interview preparation. The scene is set with a modern, professional aesthetic that merges human talent with cutting-edge AI insights, symbolizing a seamless and intelligent recruitment process."
</metadata>
<metadata id="version">
7
</metadata>
<metadata id="metadata2">
<rdf:RDF>
<cc:Work rdf:about="">
    <cc:license rdf:resource="http://creativecommons.org/licenses/by-sa/4.0/"/>
    <dc:creator>
        <cc:Agent>
            <dc:title>https://svgstud.io</dc:title>
        </cc:Agent>
    </dc:creator>
</cc:Work>
<cc:License rdf:about="http://creativecommons.org/licenses/by-sa/4.0/">
    <cc:permits rdf:resource="http://creativecommons.org/ns#Reproduction"/>
    <cc:permits rdf:resource="http://creativecommons.org/ns#Distribution"/>
    <cc:requires rdf:resource="http://creativecommons.org/ns#Notice"/>
    <cc:requires rdf:resource="http://creativecommons.org/ns#Attribution"/>
    <cc:permits rdf:resource="http://creativecommons.org/ns#DerivativeWorks"/>
    <cc:requires rdf:resource="http://creativecommons.org/ns#ShareAlike"/>
</cc:License>
</rdf:RDF>
</metadata>
<metadata id="uid">
2ca292ad92be4f0e63fe7888242937563ad89189c061242293f0107411c8322d
</metadata>
<path stroke="#1A8850" fill="#1A8850" fill-rule="evenodd" d="M464.00,624.50C344.38,624.50 210.50,624.27 166.50,624.00C86.50,623.50 86.50,623.50 82.00,621.14C79.53,619.85 75.77,617.15 73.66,615.14C71.55,613.14 68.63,609.25 67.16,606.50C64.50,601.50 64.50,601.50 64.50,426.00C64.50,258.37 64.58,250.26 66.33,245.24C67.44,242.06 70.08,237.88 72.99,234.70C75.65,231.79 80.14,228.15 82.97,226.61C87.09,224.37 90.16,223.63 98.31,222.89C103.91,222.39 116.04,222.23 125.26,222.55C134.48,222.87 142.93,222.84 144.04,222.49C145.24,222.11 147.50,218.95 149.65,214.67C151.62,210.73 155.71,203.68 158.74,199.00C161.84,194.21 168.22,186.55 173.37,181.45C178.39,176.47 185.37,170.45 188.88,168.07C192.38,165.70 199.38,161.80 204.42,159.41C209.46,157.02 217.39,154.14 222.04,153.02C226.69,151.89 235.45,150.69 241.50,150.35C248.06,149.98 256.08,150.21 261.36,150.92C266.24,151.57 273.89,153.26 278.36,154.67C282.84,156.08 290.32,159.16 295.00,161.51C299.68,163.86 306.43,167.93 310.00,170.56C313.57,173.19 319.36,178.08 322.86,181.42C326.36,184.76 332.38,191.70 336.24,196.83C340.10,201.96 345.37,209.84 347.96,214.33C352.65,222.50 352.65,222.50 392.07,223.00C431.50,223.50 431.50,223.50 436.50,226.16C439.25,227.62 442.99,230.29 444.81,232.09C446.64,233.89 449.27,237.32 450.68,239.71C452.65,243.07 453.48,246.46 454.33,254.61C455.44,265.16 455.44,265.16 553.47,264.33C607.39,263.87 657.85,263.52 665.61,263.55C679.49,263.59 679.84,263.65 686.36,266.86C691.18,269.23 694.21,271.62 697.47,275.63C699.94,278.65 702.42,282.86 702.99,284.97C703.69,287.55 703.94,340.40 703.76,446.65C703.50,604.50 703.50,604.50 701.33,608.50C700.14,610.70 697.44,614.17 695.33,616.20C693.23,618.24 689.25,620.94 686.50,622.20C681.50,624.50 681.50,624.50 464.00,624.50zM262.45,615.00C263.61,615.00 265.56,614.30 266.78,613.44C268.33,612.35 269.00,610.87 269.00,608.48C269.00,606.27 268.23,604.37 266.81,603.04C265.61,601.92 263.62,601.00 262.38,601.00C261.15,601.00 259.21,602.19 258.07,603.63C256.93,605.08 256.00,607.19 256.00,608.32C256.00,609.45 256.98,611.41 258.17,612.69C259.37,613.96 261.30,615.00 262.45,615.00zM557.89,608.76C669.97,608.50 669.97,608.50 673.73,604.73C677.50,600.96 677.50,600.96 677.20,581.81C677.04,571.28 676.68,562.29 676.39,561.83C676.11,561.37 630.53,561.00 575.09,561.00C519.66,561.00 470.86,561.29 466.65,561.65C459.00,562.29 459.00,562.29 459.00,568.65C459.00,572.14 459.11,575.09 459.25,575.20C459.39,575.32 470.30,575.65 483.50,575.95C507.50,576.50 507.50,576.50 507.80,582.09C508.00,585.92 507.66,588.04 506.71,588.82C505.78,589.59 497.28,590.05 480.50,590.23C455.67,590.50 455.67,590.50 454.19,595.00C453.39,597.48 451.17,601.64 449.27,604.26C445.81,609.03 445.81,609.03 557.89,608.76zM111.72,591.78C126.48,591.50 126.48,591.50 127.16,586.50C127.54,583.75 128.36,573.85 128.99,564.50C129.61,555.15 130.77,541.88 131.56,535.00C132.35,528.12 133.26,521.26 133.58,519.75C133.90,518.24 134.60,517.00 135.14,517.00C135.67,517.00 137.04,519.10 138.17,521.66C139.31,524.22 141.72,532.24 143.55,539.48C145.37,546.72 148.29,561.16 150.03,571.57C151.78,581.98 153.41,590.84 153.66,591.25C153.91,591.66 173.44,592.00 197.06,592.00C220.68,592.00 240.00,591.70 240.00,591.34C240.00,590.98 238.78,589.07 237.29,587.09C235.79,585.12 230.30,579.00 225.08,573.50C219.87,568.00 207.43,554.95 197.46,544.50C187.48,534.05 177.45,523.42 175.16,520.89C172.87,518.35 171.00,515.42 171.00,514.37C171.00,513.33 172.57,510.13 174.50,507.28C176.43,504.42 178.00,501.85 178.00,501.58C178.00,501.30 176.09,500.59 173.75,499.99C171.41,499.39 168.26,498.42 166.75,497.83C164.56,496.98 164.00,496.12 164.01,493.63C164.01,491.91 165.53,486.23 167.37,481.00C169.21,475.77 171.07,470.66 171.51,469.63C172.25,467.88 171.90,467.81 165.90,468.50C162.38,468.90 156.29,470.05 152.36,471.05C148.43,472.05 142.43,474.27 139.02,475.99C135.62,477.71 130.91,480.89 128.56,483.05C126.20,485.22 122.85,489.68 121.11,492.95C119.36,496.23 117.07,502.87 116.01,507.70C114.96,512.54 112.26,527.30 110.01,540.50C107.76,553.70 105.47,566.20 104.91,568.28C104.36,570.36 103.48,571.80 102.95,571.47C102.43,571.15 102.00,567.20 102.00,562.69C102.01,558.19 103.37,545.05 105.04,533.50C106.71,521.95 108.98,508.63 110.08,503.90C111.19,499.18 113.42,492.51 115.04,489.08C116.82,485.32 120.26,480.59 123.74,477.11C126.91,473.95 132.43,469.74 136.00,467.75C139.57,465.76 145.88,463.21 150.00,462.07C154.12,460.94 161.32,459.11 166.00,458.01C172.21,456.55 175.09,455.35 176.69,453.53C177.89,452.16 179.17,449.05 179.54,446.61C179.90,444.18 179.90,440.80 179.52,439.11C179.00,436.73 177.08,434.78 171.07,430.55C166.79,427.54 160.55,422.14 157.20,418.56C153.85,414.98 149.99,410.12 148.62,407.77C147.25,405.42 144.92,399.90 143.45,395.50C141.10,388.49 140.66,385.14 139.95,368.50C139.30,353.48 138.69,348.14 137.02,343.00C135.85,339.43 134.64,333.12 134.33,329.00C134.00,324.60 134.24,319.76 134.91,317.29C135.54,314.98 137.64,311.00 139.59,308.46C143.12,303.83 143.12,303.83 141.47,294.17C140.28,287.21 139.91,280.04 140.14,268.50C140.45,252.50 140.45,252.50 118.70,252.23C96.95,251.96 96.95,251.96 94.47,254.43C92.00,256.91 92.00,256.91 91.84,341.20C91.75,387.57 91.56,459.70 91.43,501.50C91.30,543.30 91.42,579.71 91.71,582.41C92.07,585.75 92.99,588.08 94.60,589.69C96.90,591.99 97.36,592.05 111.72,591.78zM300.67,591.76C321.66,591.62 339.10,591.24 339.42,590.92C339.74,590.60 340.45,583.62 341.00,575.42C341.55,567.21 342.91,551.60 344.01,540.72C345.11,529.84 347.11,515.77 348.44,509.47C349.78,503.16 351.86,496.24 353.07,494.08C354.28,491.93 356.68,489.42 358.39,488.51C360.42,487.42 363.20,486.96 366.40,487.17C369.65,487.39 371.65,488.07 372.36,489.19C373.15,490.46 372.69,493.60 370.55,501.69C368.11,510.85 367.61,514.98 367.22,528.77C366.97,537.71 367.08,549.30 367.48,554.52C367.87,559.73 368.61,564.00 369.13,564.00C369.65,564.00 374.12,555.79 379.07,545.75C384.01,535.71 388.44,527.37 388.91,527.21C389.37,527.05 390.68,530.42 391.81,534.71C392.94,538.99 394.78,547.23 395.90,553.00C397.03,558.77 398.65,568.90 399.52,575.50C400.39,582.10 401.35,588.32 401.64,589.33C402.14,591.00 403.29,591.13 415.06,590.83C425.81,590.55 428.23,590.20 429.72,588.71C431.22,587.20 431.47,585.32 431.32,576.61C431.22,570.94 430.64,563.50 430.02,560.08C429.39,556.66 425.30,541.86 420.91,527.18C416.52,512.51 411.82,497.57 410.46,494.00C409.11,490.43 407.10,486.15 406.01,484.50C404.93,482.85 401.69,479.13 398.82,476.22C395.95,473.32 391.32,469.83 388.53,468.47C385.74,467.11 380.32,465.33 376.48,464.51C372.64,463.70 368.54,463.03 367.37,463.02C366.03,463.01 363.59,464.94 360.75,468.26C358.28,471.15 354.24,474.52 351.77,475.76C349.30,476.99 344.91,478.45 342.01,479.00C339.10,479.55 334.39,480.00 331.53,480.00C328.67,480.00 326.08,480.25 325.78,480.56C325.47,480.86 326.03,484.80 327.01,489.31C328.00,493.81 328.89,498.85 329.01,500.50C329.12,502.15 329.16,504.69 329.11,506.14C329.04,507.78 327.23,510.75 324.37,513.94C321.82,516.77 316.31,521.87 312.12,525.27C307.93,528.67 301.33,534.16 297.46,537.48C293.58,540.79 287.96,545.58 284.96,548.12C281.96,550.66 276.94,554.94 273.81,557.62C270.68,560.30 267.23,563.65 266.14,565.06C265.05,566.47 263.47,570.29 262.63,573.56C261.79,576.83 260.79,581.91 260.41,584.85C259.88,588.92 260.05,590.42 261.11,591.12C261.90,591.63 278.92,591.91 300.67,591.76zM247.87,577.00C248.23,577.00 250.34,573.96 252.57,570.25C255.97,564.57 260.71,559.84 282.55,540.33C296.82,527.59 308.94,516.46 309.48,515.60C310.27,514.36 309.01,512.56 303.52,507.03C299.28,502.75 296.95,499.68 297.54,499.15C298.07,498.67 302.55,497.74 307.50,497.08C312.45,496.41 316.83,495.55 317.22,495.16C317.62,494.77 315.72,486.14 313.00,475.99C310.27,465.83 307.53,456.29 306.91,454.78C306.28,453.26 305.36,452.28 304.86,452.59C304.36,452.90 302.32,456.38 300.34,460.32C298.35,464.27 293.61,473.05 289.81,479.83C286.01,486.62 277.11,502.86 270.03,515.94C262.96,529.01 255.15,543.73 252.68,548.65C250.21,553.56 247.67,559.51 247.03,561.88C246.35,564.42 246.15,568.38 246.55,571.58C246.93,574.56 247.52,577.00 247.87,577.00zM237.81,573.15C237.99,571.34 236.54,566.17 234.20,560.31C232.04,554.91 226.86,542.62 222.68,533.00C218.51,523.38 213.97,511.61 212.61,506.85C211.24,502.09 209.39,494.67 208.50,490.37C207.62,486.07 206.64,478.26 206.33,473.02C206.03,467.79 206.25,460.14 206.84,456.03C207.42,451.92 207.76,448.42 207.59,448.25C207.42,448.08 206.09,448.39 204.65,448.94C203.20,449.49 197.40,454.60 191.76,460.29C184.78,467.33 180.13,473.06 177.21,478.20C174.85,482.35 172.65,487.36 172.34,489.31C171.78,492.72 171.89,492.89 175.13,493.39C176.98,493.68 180.75,494.28 183.50,494.74C188.02,495.49 188.47,495.81 188.22,498.01C188.07,499.35 186.16,503.19 183.97,506.54C181.79,509.90 180.00,513.34 180.00,514.20C180.00,515.06 185.25,521.33 191.67,528.13C198.10,534.93 211.03,548.53 220.42,558.34C236.78,575.43 237.51,576.05 237.81,573.15zM585.00,546.78C623.23,546.78 658.55,546.50 663.50,546.14C672.50,545.50 672.50,545.50 672.50,539.50C672.50,533.50 672.50,533.50 592.50,533.50C512.50,533.50 512.50,533.50 512.20,539.67C511.95,544.91 512.18,545.91 513.70,546.30C514.69,546.56 546.77,546.77 585.00,546.78zM473.75,545.78C489.50,545.50 489.50,545.50 489.83,542.59C490.01,540.99 489.88,538.18 489.54,536.34C488.91,533.00 488.91,533.00 478.09,533.00C472.15,533.00 465.19,533.29 462.64,533.64C458.00,534.27 458.00,534.27 458.00,540.16C458.00,546.05 458.00,546.05 473.75,545.78zM246.54,545.00C246.78,545.00 250.29,538.36 254.34,530.25C258.40,522.14 264.62,510.10 268.17,503.50C271.72,496.90 274.91,490.74 275.26,489.81C275.72,488.59 275.28,488.04 273.69,487.81C272.49,487.64 261.66,487.63 249.64,487.79C227.78,488.08 227.78,488.08 228.32,490.29C228.62,491.50 230.27,496.32 231.99,501.00C233.72,505.68 237.40,517.15 240.17,526.50C242.94,535.85 245.41,543.84 245.66,544.25C245.91,544.66 246.31,545.00 246.54,545.00zM429.14,522.14C429.59,520.94 429.51,510.18 428.98,498.23C428.45,486.28 427.73,426.55 427.39,365.50C426.83,266.18 426.60,254.37 425.19,253.25C424.01,252.31 416.06,252.00 393.37,252.00C375.37,252.00 362.88,252.38 362.53,252.95C362.21,253.47 362.45,256.96 363.06,260.70C363.67,264.44 364.47,275.38 364.84,285.00C365.51,302.51 365.51,302.51 369.62,306.62C371.88,308.88 374.51,312.78 375.47,315.28C376.78,318.70 377.12,322.01 376.85,328.66C376.54,336.41 376.04,338.47 372.75,345.35C370.51,350.04 369.00,354.70 369.00,356.90C369.00,359.34 370.10,362.32 372.25,365.72C374.04,368.54 377.87,374.11 380.76,378.10C383.66,382.09 386.70,387.60 387.51,390.36C388.33,393.11 389.00,397.90 389.00,401.00C389.00,404.10 388.28,409.08 387.41,412.07C386.53,415.06 384.53,419.76 382.96,422.52C381.40,425.28 376.04,432.42 371.06,438.38C366.08,444.33 362.00,449.58 362.00,450.04C362.00,450.49 362.79,451.08 363.75,451.35C364.71,451.62 368.20,452.14 371.50,452.52C374.80,452.89 380.91,454.27 385.08,455.59C389.25,456.90 395.34,459.71 398.61,461.83C401.89,463.95 406.48,467.89 408.83,470.59C411.17,473.29 414.61,478.65 416.48,482.50C418.35,486.35 420.99,493.34 422.35,498.04C423.71,502.74 425.61,510.58 426.58,515.45C427.94,522.30 428.52,523.82 429.14,522.14zM604.00,518.24C639.48,518.09 669.53,517.74 670.80,517.46C672.93,516.97 673.07,516.50 672.80,510.72C672.50,504.50 672.50,504.50 592.00,504.50C511.50,504.50 511.50,504.50 511.18,508.92C511.01,511.35 511.13,514.38 511.45,515.64C512.01,517.89 512.36,517.95 525.76,518.22C533.32,518.37 568.52,518.38 604.00,518.24zM473.69,518.00C488.05,518.00 488.05,518.00 489.11,515.25C489.70,513.74 489.96,510.57 489.70,508.20C489.45,505.84 489.07,503.81 488.87,503.70C488.67,503.59 481.64,503.64 473.25,503.82C458.00,504.14 458.00,504.14 458.00,510.41C458.00,513.85 458.30,516.97 458.67,517.33C459.03,517.70 465.79,518.00 473.69,518.00zM471.72,489.99C478.75,489.98 485.51,489.70 486.75,489.37C488.79,488.82 489.00,488.16 489.00,482.36C489.00,475.95 489.00,475.95 473.25,476.22C457.50,476.50 457.50,476.50 457.74,482.00C457.87,485.02 458.19,488.06 458.46,488.75C458.81,489.66 462.41,490.00 471.72,489.99zM582.50,489.29C616.60,489.17 650.93,488.78 658.79,488.43C673.09,487.79 673.09,487.79 672.79,481.64C672.50,475.50 672.50,475.50 636.00,475.50C615.92,475.50 579.70,475.73 555.50,476.00C511.50,476.50 511.50,476.50 511.20,482.69C510.91,488.89 510.91,488.89 515.70,489.19C518.34,489.36 548.40,489.40 582.50,489.29zM241.88,480.89C251.02,480.84 263.15,480.50 268.84,480.14C278.27,479.56 279.36,479.28 281.21,477.00C283.13,474.63 283.20,473.65 282.54,458.00C282.15,448.93 281.52,441.17 281.13,440.76C280.75,440.36 277.97,440.98 274.96,442.14C271.28,443.57 266.40,444.40 260.00,444.70C252.31,445.05 249.17,444.73 243.50,443.02C239.65,441.86 235.78,440.67 234.90,440.38C233.53,439.92 233.22,441.41 232.64,450.91C232.27,457.00 231.48,463.06 230.88,464.37C230.27,465.71 227.64,467.77 224.89,469.05C220.77,470.98 220.00,471.78 220.00,474.10C220.00,475.89 220.93,477.58 222.63,478.93C225.07,480.85 226.50,480.99 241.88,480.89zM327.28,462.98C327.81,461.62 329.74,457.35 331.57,453.50C333.73,448.95 337.79,443.26 343.20,437.22C347.76,432.11 353.98,425.08 357.00,421.61C360.03,418.13 363.62,413.08 364.99,410.39C366.98,406.47 367.48,404.00 367.49,397.93C367.50,390.98 367.14,389.63 363.09,381.46C359.54,374.28 358.54,372.93 357.95,374.52C357.54,375.61 356.74,381.26 356.15,387.09C355.57,392.91 354.17,400.13 353.05,403.14C351.63,406.93 347.99,412.14 341.11,420.22C335.17,427.20 329.78,434.72 327.61,439.05C324.43,445.40 324.00,447.16 324.00,453.70C324.00,457.79 324.52,462.11 325.16,463.30C326.32,465.46 326.32,465.46 327.28,462.98zM472.03,460.00C479.62,460.00 486.55,459.73 487.42,459.39C488.64,458.92 489.00,457.28 489.00,452.14C489.00,445.50 489.00,445.50 474.25,445.80C466.14,445.96 458.94,446.28 458.25,446.52C457.48,446.78 457.00,448.82 457.00,451.89C457.00,454.61 457.27,457.55 457.61,458.42C458.12,459.75 460.35,460.00 472.03,460.00zM560.92,459.87C587.64,459.79 623.67,459.45 641.00,459.12C672.50,458.50 672.50,458.50 672.80,451.59C673.10,444.67 673.10,444.67 615.88,445.34C584.42,445.70 547.94,446.00 534.84,446.00C511.00,446.00 511.00,446.00 511.00,452.33C511.00,455.82 511.30,458.97 511.67,459.33C512.03,459.70 534.20,459.94 560.92,459.87zM259.12,435.52C263.85,435.25 269.25,434.14 273.38,432.58C277.04,431.21 283.06,428.11 286.76,425.71C290.47,423.30 296.91,418.59 301.08,415.23C305.24,411.87 311.31,406.10 314.55,402.40C317.79,398.71 322.81,392.09 325.71,387.68C328.61,383.27 332.30,376.25 333.90,372.08C335.50,367.91 337.87,359.77 339.16,354.00C341.26,344.56 341.50,341.04 341.50,319.00C341.50,305.52 341.12,292.25 340.66,289.50C339.87,284.77 339.12,283.80 326.61,271.50C315.81,260.88 312.81,257.30 310.27,251.94C308.56,248.33 306.52,244.85 305.73,244.19C304.61,243.26 303.10,243.42 298.77,244.91C295.73,245.95 289.81,247.57 285.62,248.51C280.51,249.64 275.12,250.07 269.25,249.81C262.50,249.51 259.02,248.79 254.00,246.64C250.43,245.10 246.78,243.62 245.89,243.35C244.78,243.00 242.90,244.79 239.76,249.17C237.27,252.65 232.59,258.00 229.37,261.06C226.14,264.12 220.80,268.44 217.50,270.67C214.20,272.90 209.10,275.94 206.16,277.42C203.22,278.91 196.26,281.90 190.70,284.07C185.13,286.24 178.94,289.10 176.94,290.42C174.95,291.74 172.45,294.55 171.41,296.66C169.72,300.06 169.51,302.75 169.57,320.00C169.62,336.41 169.99,341.16 171.91,349.99C173.17,355.76 176.24,365.58 178.73,371.82C181.23,378.06 185.51,386.59 188.25,390.78C190.98,394.97 197.33,402.49 202.36,407.49C207.39,412.49 214.66,418.67 218.52,421.21C222.38,423.76 228.68,427.44 232.52,429.39C236.36,431.34 242.20,433.62 245.50,434.45C249.36,435.42 254.22,435.81 259.12,435.52zM189.56,434.00C190.35,434.00 191.00,433.44 191.00,432.75C190.99,432.06 190.15,430.12 189.12,428.43C188.09,426.74 183.03,421.80 177.87,417.46C172.72,413.12 167.80,408.88 166.94,408.04C166.08,407.19 163.78,404.48 161.83,402.00C159.88,399.52 156.61,394.46 154.56,390.75C152.51,387.04 150.58,384.00 150.28,384.00C149.97,384.00 150.01,386.47 150.37,389.48C150.72,392.49 151.91,397.33 153.00,400.23C154.10,403.13 157.02,408.04 159.50,411.15C162.58,415.02 167.64,419.24 175.53,424.54C181.87,428.80 187.30,432.67 187.59,433.14C187.88,433.61 188.77,434.00 189.56,434.00zM473.50,430.67C480.10,430.69 486.31,430.30 487.29,429.80C488.80,429.03 489.04,427.80 488.79,422.19C488.55,416.56 488.22,415.51 486.75,415.58C485.79,415.63 478.70,415.74 471.00,415.83C457.00,416.00 457.00,416.00 457.00,422.93C457.00,429.34 457.17,429.89 459.25,430.24C460.49,430.45 466.90,430.64 473.50,430.67zM588.47,430.51C630.29,430.18 666.37,429.69 668.65,429.41C671.43,429.07 672.94,428.35 673.23,427.20C673.48,426.27 673.64,423.25 673.59,420.50C673.50,415.50 673.50,415.50 667.00,414.84C663.42,414.48 646.33,414.34 629.00,414.52C611.67,414.71 578.04,414.89 554.25,414.93C511.00,415.00 511.00,415.00 511.00,422.33C511.00,426.37 511.32,429.99 511.72,430.39C512.11,430.78 546.65,430.84 588.47,430.51zM257.57,415.96C254.78,415.93 250.93,415.35 249.00,414.65C247.07,413.96 244.63,412.90 243.57,412.30C242.50,411.71 237.00,406.57 231.34,400.89C225.05,394.57 221.40,390.20 221.97,389.63C222.53,389.07 224.76,389.25 227.70,390.10C230.45,390.89 236.34,391.42 241.50,391.34C246.45,391.26 259.05,390.76 269.50,390.24C285.25,389.44 289.31,388.92 293.25,387.18C296.74,385.63 298.00,385.42 298.00,386.37C298.00,387.09 295.91,389.66 293.35,392.09C290.80,394.51 287.66,397.62 286.38,399.00C285.10,400.38 281.68,404.04 278.78,407.14C274.59,411.62 272.38,413.12 268.07,414.39C265.08,415.28 260.36,415.98 257.57,415.96zM261.00,406.26C263.48,405.99 266.97,405.09 268.77,404.26C270.56,403.43 272.28,402.36 272.58,401.88C272.88,401.39 266.40,401.00 257.94,401.00C244.79,401.00 242.92,401.19 243.96,402.45C244.62,403.25 246.59,404.35 248.33,404.89C250.07,405.44 252.62,406.08 254.00,406.32C255.38,406.55 258.52,406.53 261.00,406.26zM472.95,400.00C487.81,400.00 487.97,399.98 488.54,397.68C488.86,396.41 488.98,393.15 488.81,390.43C488.50,385.50 488.50,385.50 473.50,385.87C465.25,386.07 458.32,386.40 458.11,386.60C457.89,386.80 457.50,389.20 457.23,391.94C456.97,394.67 457.02,397.61 457.35,398.46C457.84,399.75 460.35,400.00 472.95,400.00zM549.72,399.86C570.50,399.78 606.62,399.44 630.00,399.11C672.50,398.50 672.50,398.50 672.50,392.00C672.50,385.50 672.50,385.50 592.00,385.50C511.50,385.50 511.50,385.50 511.20,391.39C511.03,394.63 511.13,397.89 511.41,398.64C511.84,399.76 518.66,399.97 549.72,399.86zM256.59,381.95C254.89,381.93 250.97,380.60 247.88,379.00C244.78,377.40 241.97,375.37 241.63,374.47C241.29,373.58 241.50,371.93 242.11,370.79C242.73,369.63 243.50,369.17 243.86,369.73C244.21,370.28 247.04,371.47 250.15,372.37C253.26,373.27 257.57,374.00 259.71,374.00C261.86,374.00 264.45,373.39 265.46,372.65C266.60,371.82 267.10,370.57 266.77,369.40C266.47,368.35 265.90,366.71 265.51,365.75C265.00,364.53 265.25,364.00 266.32,364.00C267.16,364.00 269.23,365.17 270.92,366.59C272.98,368.32 274.00,370.09 274.00,371.91C274.00,373.50 273.00,375.59 271.62,376.89C270.31,378.12 267.09,379.77 264.46,380.56C261.83,381.35 258.29,381.98 256.59,381.95zM566.00,370.42C624.58,370.10 673.09,369.65 673.80,369.43C674.71,369.15 675.01,367.42 674.80,363.76C674.50,358.50 674.50,358.50 602.50,358.26C562.90,358.13 514.08,358.36 494.00,358.76C457.50,359.50 457.50,359.50 457.19,364.40C456.98,367.64 457.32,369.60 458.19,370.16C458.91,370.63 507.42,370.75 566.00,370.42zM168.27,363.00C169.82,363.00 171.32,362.34 171.63,361.51C171.98,360.61 170.48,358.11 167.85,355.18C165.46,352.52 162.26,347.89 160.75,344.90C159.24,341.92 158.00,338.03 158.00,336.27C158.00,334.09 158.64,332.73 160.00,332.00C161.37,331.27 162.00,329.91 162.00,327.66C162.00,325.87 161.46,323.86 160.80,323.20C160.14,322.54 158.35,322.00 156.82,322.00C154.94,322.00 153.50,322.83 152.36,324.57C151.24,326.29 150.70,329.12 150.73,333.11C150.78,337.99 150.55,338.87 149.45,337.96C148.71,337.35 147.56,334.41 146.90,331.42C145.95,327.21 145.95,325.12 146.88,322.02C147.53,319.83 148.93,317.58 149.97,317.02C151.19,316.36 152.75,316.34 154.34,316.94C155.69,317.45 157.10,318.35 157.46,318.94C157.82,319.52 158.57,320.00 159.13,320.00C159.68,320.00 160.00,319.00 159.82,317.78C159.64,316.57 157.97,314.54 156.10,313.28C154.23,312.03 151.71,311.00 150.49,311.00C149.27,311.00 147.12,311.91 145.71,313.02C144.30,314.12 142.63,316.59 142.00,318.50C141.29,320.65 141.12,324.18 141.55,327.74C141.93,330.91 143.04,335.63 144.02,338.23C144.99,340.82 147.89,345.89 150.46,349.49C153.16,353.28 157.30,357.49 160.30,359.51C163.14,361.43 166.73,363.00 168.27,363.00zM345.34,359.00C346.17,359.00 348.34,357.76 350.17,356.25C352.00,354.74 354.30,352.60 355.27,351.50C356.25,350.40 358.15,347.41 359.49,344.85C360.83,342.30 362.42,337.12 363.03,333.35C363.63,329.58 363.83,324.93 363.47,323.00C363.11,321.07 362.09,318.27 361.20,316.76C359.68,314.19 359.70,313.94 361.53,312.60C363.42,311.22 363.39,311.14 360.74,309.93C358.63,308.97 357.41,308.95 355.45,309.84C354.04,310.48 352.24,312.56 351.45,314.47C350.65,316.38 350.00,318.39 350.00,318.94C350.00,319.50 351.57,321.38 353.50,323.14C355.43,324.89 357.00,327.26 356.99,328.41C356.98,329.56 355.78,332.98 354.31,336.00C351.65,341.50 351.65,341.50 351.02,338.00C350.40,334.50 350.40,334.50 349.58,339.00C349.12,341.48 347.97,345.52 347.00,348.00C346.04,350.48 344.93,353.96 344.54,355.75C344.00,358.29 344.17,359.00 345.34,359.00zM533.36,347.86C575.24,347.79 623.90,347.45 641.50,347.11C673.50,346.50 673.50,346.50 673.80,340.62C674.11,334.74 674.11,334.74 565.80,335.48C506.24,335.89 457.16,336.42 456.75,336.67C456.34,336.92 456.00,338.85 456.00,340.98C456.00,343.10 456.27,345.55 456.61,346.42C457.15,347.84 464.77,347.99 533.36,347.86zM206.78,345.96C202.53,345.93 199.29,345.27 196.77,343.94C194.72,342.86 191.12,339.48 188.77,336.42C186.42,333.37 183.49,329.48 182.25,327.78C181.01,326.09 180.00,324.14 180.00,323.45C180.00,322.76 181.35,321.73 183.00,321.15C184.65,320.58 187.55,318.92 189.45,317.47C191.35,316.02 195.03,314.19 197.61,313.42C200.20,312.64 204.44,312.00 207.03,312.00C209.63,312.00 213.69,312.68 216.06,313.52C218.42,314.36 221.80,316.14 223.56,317.48C225.32,318.82 228.16,322.04 229.88,324.63C231.59,327.22 233.00,330.21 233.00,331.28C233.00,332.73 232.56,333.03 231.25,332.49C230.29,332.10 228.71,331.55 227.75,331.27C226.62,330.95 226.00,331.32 226.00,332.31C226.00,333.15 224.95,335.12 223.67,336.67C222.39,338.23 221.05,340.31 220.68,341.30C220.32,342.28 218.46,343.74 216.55,344.55C214.63,345.35 210.24,345.98 206.78,345.96zM303.50,343.75C298.61,343.94 295.67,343.56 293.75,342.48C292.24,341.63 291.00,340.50 291.00,339.97C291.00,339.44 292.55,339.00 294.44,339.00C296.33,339.00 298.16,338.55 298.50,337.99C298.85,337.44 298.46,336.73 297.66,336.42C296.85,336.11 295.21,333.58 294.01,330.80C291.83,325.74 291.83,325.74 286.63,330.87C283.78,333.69 281.11,336.00 280.72,336.00C280.32,336.00 280.00,334.04 280.00,331.65C280.00,328.45 280.76,326.26 282.87,323.34C284.45,321.16 287.69,317.71 290.07,315.67C292.46,313.63 296.65,311.29 299.39,310.48C302.12,309.66 305.79,309.00 307.52,309.00C309.26,309.00 313.30,309.90 316.50,311.00C319.69,312.10 323.78,314.12 325.59,315.50C327.39,316.87 329.77,318.00 330.87,318.00C331.98,318.00 333.14,318.42 333.45,318.92C333.77,319.43 333.21,322.02 332.22,324.67C330.70,328.75 330.01,329.50 327.81,329.50C325.81,329.50 324.41,330.65 321.80,334.43C319.88,337.22 316.69,340.25 314.45,341.41C311.81,342.79 308.18,343.56 303.50,343.75zM211.85,341.00C213.64,341.00 216.43,340.31 218.05,339.47C220.60,338.16 221.00,337.38 221.00,333.80C221.00,331.35 220.32,328.91 219.35,327.83C218.43,326.82 217.37,326.00 216.97,326.00C216.58,326.00 215.95,327.91 215.58,330.25C215.13,333.04 213.82,335.61 211.75,337.75C208.61,341.00 208.61,341.00 211.85,341.00zM201.25,339.97C201.66,339.99 202.00,339.78 202.00,339.52C202.00,339.26 201.03,336.10 199.85,332.50C197.80,326.24 197.63,326.03 195.85,327.63C194.83,328.56 194.01,330.48 194.03,331.90C194.05,333.33 194.61,335.21 195.28,336.07C195.95,336.94 197.40,338.16 198.50,338.79C199.60,339.42 200.84,339.95 201.25,339.97zM307.61,338.00C308.86,338.00 311.07,336.99 312.51,335.75C314.24,334.26 315.30,332.14 315.64,329.50C315.96,326.97 315.67,324.90 314.83,323.85C314.10,322.94 312.49,321.90 311.25,321.53C309.10,320.90 309.00,321.13 309.00,326.48C309.00,331.07 308.56,332.53 306.61,334.48C305.29,335.80 304.46,337.13 304.77,337.44C305.08,337.75 306.36,338.00 307.61,338.00zM563.75,323.36C623.01,323.00 672.51,322.34 673.75,321.88C675.51,321.23 676.00,320.27 676.00,317.46C676.00,315.48 675.50,312.93 674.89,311.79C673.78,309.72 673.78,309.72 572.14,310.38C516.24,310.74 467.24,311.31 463.25,311.64C456.00,312.23 456.00,312.23 456.00,318.13C456.00,324.02 456.00,324.02 563.75,323.36zM229.50,308.65C228.40,308.74 223.00,307.46 217.50,305.81C210.35,303.66 205.22,302.77 199.50,302.68C193.67,302.59 189.63,303.16 184.57,304.80C180.09,306.25 177.30,306.70 176.67,306.07C176.05,305.45 176.30,304.19 177.39,302.53C178.31,301.12 180.86,298.66 183.05,297.08C185.24,295.49 189.34,293.64 192.15,292.96C195.23,292.23 200.52,291.95 205.39,292.26C210.13,292.57 215.93,293.71 219.36,295.01C222.58,296.23 226.54,298.41 228.15,299.86C229.97,301.50 231.16,303.63 231.29,305.50C231.45,307.86 231.07,308.53 229.50,308.65zM283.51,309.00C282.86,309.00 282.03,308.70 281.67,308.33C281.30,307.97 281.00,306.86 281.00,305.87C281.00,304.88 282.40,302.48 284.10,300.54C285.81,298.60 289.97,295.70 293.35,294.11C296.73,292.51 301.88,290.71 304.80,290.11C307.71,289.50 312.24,289.00 314.85,289.00C317.96,289.00 321.40,289.89 324.78,291.58C327.63,293.00 331.09,295.51 332.48,297.15C333.86,298.80 335.00,300.75 335.00,301.48C335.00,302.52 333.34,302.35 327.40,300.72C320.56,298.83 319.00,298.74 311.91,299.77C307.15,300.47 300.18,302.53 294.35,304.96C289.03,307.18 284.16,309.00 283.51,309.00zM152.38,302.80C154.36,302.52 154.54,301.73 155.11,291.00C155.44,284.68 156.25,277.59 156.90,275.26C157.54,272.92 160.25,268.40 162.93,265.18C165.60,261.97 171.74,255.78 176.58,251.42C181.42,247.07 186.99,241.99 188.94,240.14C192.50,236.79 192.50,236.79 186.50,240.02C183.20,241.79 177.46,245.72 173.73,248.75C170.01,251.78 165.12,256.56 162.86,259.38C159.88,263.08 158.95,263.81 159.47,262.00C159.87,260.62 161.23,257.18 162.50,254.33C163.77,251.49 166.59,246.77 168.75,243.83C170.92,240.90 175.14,236.15 178.13,233.27C181.11,230.39 185.12,226.88 187.03,225.45C188.94,224.03 193.32,221.28 196.76,219.34C200.20,217.40 206.40,214.52 210.54,212.92C214.68,211.33 222.44,209.15 227.78,208.08C233.13,207.02 241.55,205.83 246.50,205.44C251.45,205.05 256.40,204.39 257.50,203.97C259.33,203.27 259.24,203.10 256.50,201.94C254.78,201.22 247.50,200.49 239.44,200.23C231.36,199.98 222.22,200.28 217.95,200.94C213.86,201.57 206.46,203.45 201.51,205.11C196.55,206.77 189.46,209.67 185.75,211.56C182.04,213.45 178.55,215.00 178.00,215.00C177.45,215.00 177.00,213.49 177.00,211.65C177.00,209.19 178.29,206.60 181.85,201.90C184.51,198.38 190.03,192.95 194.10,189.84C198.17,186.73 204.65,182.61 208.50,180.69C212.35,178.77 218.43,176.31 222.00,175.21C225.57,174.12 231.99,172.66 236.26,171.97C241.06,171.20 248.31,170.93 255.26,171.28C261.68,171.60 269.71,172.71 273.97,173.86C278.08,174.98 281.61,175.72 281.81,175.52C282.02,175.32 280.45,174.01 278.34,172.63C276.23,171.24 270.50,168.95 265.61,167.54C260.72,166.14 251.67,164.54 245.49,164.00C238.18,163.36 231.59,163.35 226.59,163.99C222.36,164.52 215.75,166.06 211.90,167.40C208.04,168.74 201.81,171.67 198.04,173.91C194.27,176.14 188.88,179.95 186.05,182.36C183.23,184.78 178.42,189.62 175.38,193.12C172.34,196.63 167.90,202.97 165.51,207.20C163.13,211.44 160.01,217.81 158.59,221.36C157.17,224.91 154.90,231.95 153.55,237.00C152.20,242.06 150.34,252.11 149.41,259.35C148.18,269.00 147.90,275.83 148.39,285.00C148.75,291.88 149.32,298.76 149.65,300.30C150.11,302.45 150.75,303.03 152.38,302.80zM538.41,298.66C583.01,298.30 632.21,297.70 647.73,297.34C675.97,296.68 675.97,296.68 676.48,293.59C676.76,291.89 676.64,288.93 676.20,287.00C675.42,283.50 675.42,283.50 651.46,283.17C638.28,282.99 590.02,283.37 544.22,284.02C498.42,284.66 459.72,285.52 458.22,285.93C455.62,286.63 455.52,286.91 455.86,292.08C456.05,295.06 456.46,297.91 456.77,298.41C457.10,298.96 489.77,299.06 538.41,298.66z"/>

</svg>