<svg xmlns="http://www.w3.org/2000/svg" xmlns:xlink="http://www.w3.org/1999/xlink" xmlns:svg="http://www.w3.org/2000/svg" xmlns:rdf="http://www.w3.org/1999/02/22-rdf-syntax-ns#" xmlns:cc="http://creativecommons.org/ns#" xmlns:dc="http://purl.org/dc/elements/1.1/" version="1.1" viewBox="0 0 768 768" width="768" height="768">
<style>svg {background-color: white; }</style>"
<metadata id="metadata1">
Created by https://svgstud.io and licensed under CC-BY-SA 4.0 license. Please attribute https://svgstud.io
</metadata>
<metadata id="prompt">
Teleprompter-Style Display Show responses on a teleprompter interface to aid confident delivery.
</metadata>
<metadata id="version">
7
</metadata>
<metadata id="metadata2">
<rdf:RDF>
<cc:Work rdf:about="">
    <cc:license rdf:resource="http://creativecommons.org/licenses/by-sa/4.0/"/>
    <dc:creator>
        <cc:Agent>
            <dc:title>https://svgstud.io</dc:title>
        </cc:Agent>
    </dc:creator>
</cc:Work>
<cc:License rdf:about="http://creativecommons.org/licenses/by-sa/4.0/">
    <cc:permits rdf:resource="http://creativecommons.org/ns#Reproduction"/>
    <cc:permits rdf:resource="http://creativecommons.org/ns#Distribution"/>
    <cc:requires rdf:resource="http://creativecommons.org/ns#Notice"/>
    <cc:requires rdf:resource="http://creativecommons.org/ns#Attribution"/>
    <cc:permits rdf:resource="http://creativecommons.org/ns#DerivativeWorks"/>
    <cc:requires rdf:resource="http://creativecommons.org/ns#ShareAlike"/>
</cc:License>
</rdf:RDF>
</metadata>
<metadata id="uid">
0ca4ee83385f24411a56d249d50457b863561bf21a606ecb6f83abb8d85db850
</metadata>
<path stroke="#1A8850" fill="#1A8850" fill-rule="evenodd" d="M308.50,698.29C300.80,698.53 291.99,698.36 288.91,697.92C285.84,697.48 278.64,695.34 272.91,693.18C267.19,691.02 253.05,684.88 241.50,679.54C229.95,674.19 216.06,668.05 210.64,665.88C205.22,663.70 199.07,661.06 196.99,659.99C194.90,658.93 191.81,656.38 190.13,654.34C188.21,652.02 186.62,648.53 185.90,645.06C185.03,640.94 185.01,637.38 185.81,631.31C186.41,626.81 187.79,621.37 188.89,619.22C189.98,617.07 192.49,613.90 194.45,612.18C196.41,610.46 200.37,608.39 203.25,607.58C206.14,606.77 213.68,605.61 220.00,605.00C226.32,604.39 231.87,603.53 232.31,603.09C232.76,602.64 233.28,573.80 233.48,538.99C233.67,504.19 233.58,475.07 233.28,474.29C232.98,473.51 229.96,471.56 226.56,469.95C223.16,468.35 219.28,465.87 217.94,464.44C215.60,461.95 215.49,461.20 215.16,445.84C214.94,435.20 215.21,428.90 215.99,427.03C216.79,425.10 218.11,424.03 220.20,423.61C221.88,423.27 229.79,423.00 237.78,423.00C251.95,423.00 252.27,422.95 250.60,421.12C249.67,420.08 246.11,418.22 242.70,416.99C239.29,415.75 234.01,413.49 230.96,411.96C227.91,410.43 223.96,407.70 222.19,405.88C220.42,404.07 218.55,400.99 218.03,399.04C217.52,397.09 216.61,377.27 216.02,355.00C215.42,332.73 214.31,293.35 213.55,267.50C212.67,237.70 212.50,218.70 213.08,215.59C213.59,212.89 215.08,208.84 216.40,206.59C217.73,204.34 219.86,201.52 221.15,200.32C222.44,199.13 225.75,197.04 228.50,195.69C231.25,194.34 235.07,192.97 237.00,192.65C238.93,192.32 264.23,191.94 293.24,191.79C345.97,191.53 345.97,191.53 341.74,187.88C337.50,184.24 337.50,184.24 337.18,163.17C336.90,144.94 337.09,141.62 338.56,138.51C339.50,136.53 341.67,134.14 343.38,133.21C346.08,131.73 350.43,131.46 375.51,131.20C397.38,130.97 405.47,131.21 408.41,132.20C410.55,132.91 413.25,134.77 414.40,136.32C416.39,139.01 416.50,140.35 416.50,162.92C416.50,181.60 416.21,187.05 415.13,188.35C413.85,189.88 417.61,190.00 467.20,190.00C511.57,190.00 521.47,190.25 525.57,191.48C528.28,192.30 532.71,194.66 535.40,196.73C538.20,198.88 541.58,202.78 543.29,205.82C546.02,210.70 546.35,212.31 547.12,224.82C547.58,232.35 548.98,265.27 550.22,298.00C551.47,330.73 552.49,364.02 552.49,372.00C552.50,385.90 552.39,386.69 549.85,391.00C548.39,393.48 545.91,396.43 544.35,397.57C542.78,398.70 540.60,399.98 539.50,400.39C538.40,400.81 530.78,401.55 522.57,402.05C514.37,402.55 507.26,403.34 506.79,403.81C506.31,404.29 505.70,406.21 505.43,408.09C505.15,409.96 505.32,412.08 505.80,412.79C506.28,413.50 512.35,416.07 519.29,418.49C526.24,420.91 532.86,423.39 534.01,424.00C535.16,424.62 536.56,426.33 537.12,427.81C537.78,429.53 537.90,436.44 537.46,447.00C536.98,458.62 536.31,464.50 535.22,466.87C534.21,469.05 532.38,470.78 530.08,471.76C528.11,472.59 521.55,474.00 515.50,474.89C504.50,476.50 504.50,476.50 503.88,491.50C503.54,499.75 502.69,527.42 502.00,553.00C501.30,578.58 500.90,600.57 501.12,601.88C501.45,603.95 503.63,605.05 518.33,610.57C527.59,614.05 537.40,618.33 540.12,620.08C542.85,621.83 545.78,624.61 546.63,626.25C547.87,628.65 548.11,632.13 547.84,643.87C547.52,657.51 547.31,658.89 544.70,664.20C542.97,667.73 540.69,670.64 538.70,671.86C536.94,672.93 533.70,674.30 531.50,674.88C529.30,675.47 502.97,678.65 473.00,681.97C443.02,685.28 408.15,689.11 395.50,690.48C382.85,691.85 361.25,694.06 347.50,695.41C333.75,696.75 316.20,698.05 308.50,698.29zM294.32,685.81C295.64,685.62 297.19,684.12 298.25,682.00C299.21,680.08 300.00,676.59 300.00,674.25C300.00,670.71 299.68,670.00 298.06,670.00C296.99,670.00 295.80,670.51 295.42,671.13C294.95,671.89 294.40,671.67 293.73,670.48C292.81,668.84 292.63,668.89 291.40,671.10C290.67,672.42 290.05,675.44 290.04,677.82C290.02,680.19 290.48,683.03 291.07,684.13C291.74,685.39 292.94,686.01 294.32,685.81zM278.60,683.00C279.46,683.00 279.82,682.52 279.43,681.89C279.05,681.27 278.46,677.34 278.12,673.15C277.62,666.98 277.17,665.46 275.75,665.19C274.59,664.97 273.64,665.80 272.93,667.68C272.34,669.23 272.13,672.35 272.47,674.60C272.80,676.86 273.98,679.67 275.08,680.85C276.18,682.03 277.76,683.00 278.60,683.00zM501.56,666.00C503.02,666.00 503.18,665.32 502.64,661.36C502.29,658.81 502.00,655.41 502.00,653.80C502.00,651.04 501.80,650.90 498.25,651.19C494.61,651.49 494.49,651.62 494.19,655.77C493.93,659.39 494.33,660.49 496.86,663.02C498.50,664.66 500.62,666.00 501.56,666.00zM519.03,664.00C520.02,664.00 521.99,662.62 523.41,660.92C525.56,658.37 526.00,656.84 526.00,651.92C526.00,646.02 525.99,646.00 523.02,646.00C520.74,646.00 519.92,646.53 519.54,648.25C519.26,649.49 518.88,652.30 518.68,654.50C518.35,658.38 518.33,658.36 518.17,653.75C518.04,650.27 517.60,649.00 516.50,649.00C515.49,649.00 515.00,650.01 515.00,652.06C515.00,653.74 515.50,657.11 516.12,659.56C516.92,662.75 517.74,664.00 519.03,664.00zM310.50,660.52C319.85,660.27 343.02,658.71 362.00,657.04C380.98,655.38 401.45,653.55 407.50,652.97C413.55,652.39 430.20,650.56 444.50,648.91C458.80,647.25 480.40,644.55 492.50,642.92C504.60,641.28 519.37,639.28 525.32,638.48C531.27,637.68 536.56,636.77 537.07,636.46C537.58,636.14 538.00,634.12 538.00,631.96C538.00,628.70 537.62,627.96 535.75,627.57C534.51,627.31 530.82,626.92 527.55,626.70C524.27,626.48 520.00,626.68 518.05,627.14C516.10,627.60 511.80,628.41 508.50,628.95C505.20,629.48 490.09,631.50 474.93,633.44C459.76,635.37 433.44,638.30 416.43,639.94C399.42,641.58 379.88,643.39 373.00,643.97C366.12,644.54 352.73,645.73 343.23,646.61C332.31,647.62 320.17,648.05 310.23,647.78C296.16,647.40 293.78,647.08 287.69,644.70C283.94,643.24 276.52,639.58 271.19,636.57C265.86,633.56 254.61,627.90 246.20,623.98C237.78,620.07 230.13,617.04 229.20,617.24C228.02,617.49 229.18,618.69 233.00,621.17C236.03,623.13 242.10,626.71 246.50,629.13C250.90,631.54 262.05,637.08 271.27,641.44C282.66,646.82 287.71,649.69 287.02,650.38C286.33,651.07 284.10,651.01 280.09,650.18C276.83,649.51 271.09,647.66 267.34,646.08C263.58,644.50 248.46,637.31 233.74,630.10C219.03,622.90 206.14,617.00 205.10,617.00C204.06,617.00 203.00,617.56 202.74,618.25C202.48,618.94 202.60,620.42 203.02,621.53C203.44,622.65 204.39,624.07 205.14,624.68C205.89,625.28 213.25,629.16 221.50,633.29C229.75,637.42 242.84,643.50 250.58,646.79C258.33,650.09 268.00,654.01 272.08,655.50C276.16,656.99 282.65,658.83 286.50,659.59C291.46,660.57 298.46,660.84 310.50,660.52zM231.68,658.96C232.89,658.98 235.10,658.53 236.60,657.96C238.46,657.26 239.00,656.60 238.30,655.90C237.74,655.34 234.63,654.09 231.39,653.13C227.10,651.86 225.42,650.85 225.20,649.44C225.03,648.37 224.41,646.26 223.82,644.75C223.24,643.24 222.14,642.00 221.38,642.00C220.43,642.00 220.00,643.28 220.00,646.05C220.00,648.28 220.70,651.46 221.56,653.13C222.43,654.79 224.56,656.77 226.31,657.54C228.07,658.30 230.48,658.94 231.68,658.96zM201.34,649.72C201.98,649.51 203.08,648.25 203.79,646.92C204.51,645.57 204.87,642.78 204.61,640.60C204.36,638.45 203.20,635.76 202.02,634.60C199.91,632.53 199.86,632.53 198.44,634.44C197.65,635.51 197.00,638.45 197.00,640.97C197.00,643.55 197.70,646.55 198.59,647.83C199.47,649.08 200.71,649.93 201.34,649.72zM323.42,640.00C329.15,640.00 342.32,639.32 352.67,638.50C363.03,637.67 377.80,636.30 385.50,635.45C393.20,634.59 410.07,632.57 422.98,630.95C435.89,629.33 447.03,628.00 447.73,628.00C448.43,628.00 449.00,627.62 449.00,627.15C449.00,626.69 442.36,623.69 434.25,620.50C419.50,614.70 419.50,614.70 401.00,616.42C390.82,617.37 367.65,619.46 349.50,621.07C331.35,622.68 315.71,623.99 314.75,624.00C313.23,624.00 313.00,625.05 313.00,632.00C313.00,640.00 313.00,640.00 323.42,640.00zM299.91,636.78C301.26,636.52 301.62,633.67 302.30,617.99C302.74,607.82 302.92,576.21 302.71,547.74C302.49,519.27 302.10,495.77 301.85,495.52C301.60,495.27 299.84,494.93 297.95,494.78C294.50,494.50 294.50,494.50 294.23,564.00C293.96,633.50 293.96,633.50 296.14,635.29C297.34,636.28 299.04,636.95 299.91,636.78zM284.91,631.78C286.34,631.50 286.53,624.59 286.76,561.76C287.01,492.04 287.01,492.04 284.43,491.39C283.01,491.04 281.40,491.20 280.84,491.76C280.16,492.44 279.93,515.59 280.16,560.74C280.44,617.33 280.74,628.98 281.91,630.39C282.68,631.32 284.03,631.95 284.91,631.78zM473.00,624.31C476.57,624.01 481.07,623.46 483.00,623.09C486.38,622.43 486.52,622.23 487.14,616.96C487.49,613.95 488.00,601.89 488.28,590.15C488.79,568.80 488.79,568.80 485.64,569.37C483.91,569.68 476.47,570.83 469.09,571.92C461.72,573.01 455.20,574.40 454.61,574.99C453.93,575.67 453.39,583.82 453.15,596.89C452.78,617.71 452.78,617.71 455.85,619.89C457.53,621.09 460.62,622.70 462.71,623.47C465.23,624.40 468.67,624.68 473.00,624.31zM517.50,624.87C518.60,624.89 516.58,623.37 513.00,621.50C509.43,619.63 505.04,618.08 503.25,618.05C501.46,618.02 500.00,618.44 500.00,618.97C500.00,619.50 503.49,621.04 507.75,622.39C512.01,623.73 516.40,624.85 517.50,624.87zM266.36,622.04C266.85,621.55 266.90,591.86 266.48,554.64C265.74,488.11 265.74,488.11 261.85,486.56C259.71,485.70 257.52,485.00 256.98,485.00C256.35,485.00 256.00,508.37 256.00,550.42C256.00,586.40 256.29,616.60 256.65,617.54C257.01,618.47 259.15,620.06 261.40,621.07C263.70,622.10 265.88,622.52 266.36,622.04zM315.11,614.00C316.09,614.00 328.95,612.86 343.69,611.48C358.44,610.09 380.27,607.88 392.21,606.56C404.15,605.24 414.39,603.88 414.96,603.52C415.59,603.14 416.00,598.12 416.00,590.94C416.00,580.24 415.82,579.00 414.25,579.00C413.29,578.99 404.62,579.66 395.00,580.48C385.38,581.31 366.48,582.88 353.00,583.99C339.52,585.10 324.79,586.00 320.25,586.00C312.00,586.00 312.00,586.00 312.00,599.33C312.00,606.67 312.30,612.97 312.67,613.33C313.03,613.70 314.13,614.00 315.11,614.00zM243.14,613.00C245.27,613.00 245.27,613.00 244.80,548.96C244.50,507.68 243.97,484.57 243.32,483.92C242.63,483.23 242.09,492.57 241.65,512.70C241.29,529.09 240.97,558.02 240.94,577.00C240.91,595.98 240.91,611.84 240.94,612.25C240.97,612.66 241.96,613.00 243.14,613.00zM317.12,575.00C319.20,575.00 328.91,574.31 338.70,573.47C348.49,572.63 367.75,570.81 381.50,569.43C395.25,568.05 416.18,565.85 428.00,564.54C439.82,563.24 457.82,561.39 468.00,560.44C478.35,559.48 487.06,558.20 487.78,557.54C488.72,556.68 488.99,553.10 488.78,544.08C488.50,531.80 488.50,531.80 485.81,534.30C484.05,535.93 481.46,537.00 478.31,537.39C475.66,537.72 468.10,538.43 461.50,538.98C454.90,539.53 433.07,540.88 413.00,541.99C392.93,543.10 364.80,544.95 350.50,546.10C336.20,547.25 321.69,547.98 318.25,547.71C312.00,547.23 312.00,547.23 312.00,560.45C312.00,567.72 312.30,573.97 312.67,574.33C313.03,574.70 315.04,575.00 317.12,575.00zM319.50,537.56C322.80,537.23 337.43,536.07 352.00,534.98C366.57,533.89 386.60,532.31 396.50,531.47C406.40,530.63 429.35,528.61 447.50,526.99C465.65,525.37 482.52,523.92 485.00,523.77C489.50,523.50 489.50,523.50 489.79,515.63C490.06,508.39 489.94,507.81 488.29,508.47C487.31,508.86 483.57,509.58 480.00,510.05C476.43,510.53 457.30,512.06 437.50,513.45C417.70,514.84 387.32,516.86 370.00,517.94C352.68,519.03 332.31,520.22 324.75,520.59C311.00,521.27 311.00,521.27 311.00,528.43C311.00,532.82 311.49,536.10 312.25,536.88C313.13,537.77 315.28,537.98 319.50,537.56zM320.00,512.23C323.02,512.03 336.07,510.99 349.00,509.92C361.93,508.84 397.48,505.70 428.00,502.93C458.52,500.15 484.93,498.04 486.67,498.23C489.48,498.54 489.90,498.25 490.42,495.66C490.74,494.06 491.00,490.73 491.00,488.26C491.00,483.78 491.00,483.78 487.75,484.33C485.96,484.64 481.12,485.15 477.00,485.46C472.88,485.78 459.15,486.49 446.50,487.04C433.85,487.59 401.90,489.36 375.50,490.97C349.10,492.59 323.93,494.15 319.57,494.44C315.20,494.73 311.26,495.34 310.81,495.79C310.36,496.24 310.28,500.05 310.64,504.26C311.14,510.14 311.66,511.99 312.89,512.24C313.78,512.43 316.98,512.42 320.00,512.23zM306.00,480.43C315.07,480.17 334.20,479.29 348.50,478.47C362.80,477.65 385.52,476.30 399.00,475.47C412.48,474.63 438.57,472.83 457.00,471.46C475.43,470.09 497.25,468.30 505.50,467.49C513.75,466.67 521.29,466.01 522.25,466.00C523.21,466.00 524.90,465.10 526.00,464.00C527.33,462.67 528.00,460.67 528.00,458.00C528.00,454.85 527.63,454.00 526.25,454.02C525.29,454.03 520.45,454.46 515.50,454.97C510.55,455.49 493.45,456.60 477.50,457.44C461.55,458.28 436.80,459.44 422.50,460.02C408.20,460.59 378.95,461.96 357.50,463.07C336.05,464.17 310.43,465.29 300.56,465.55C286.11,465.93 282.29,466.33 280.89,467.60C279.77,468.61 278.30,468.95 276.82,468.53C275.54,468.18 264.45,464.46 252.16,460.28C239.88,456.10 229.19,452.05 228.41,451.27C227.45,450.31 227.00,447.51 227.00,442.55C227.00,437.66 226.56,434.88 225.66,434.13C224.92,433.52 224.02,433.31 223.66,433.68C223.30,434.04 223.00,439.87 223.00,446.64C223.00,458.31 223.12,459.03 225.25,460.41C226.49,461.22 232.90,463.87 239.50,466.31C246.10,468.76 257.16,472.59 264.08,474.84C271.00,477.08 279.55,479.36 283.08,479.91C286.61,480.45 296.93,480.69 306.00,480.43zM295.50,453.86C297.70,453.92 308.73,453.52 320.00,452.98C331.27,452.44 350.40,451.55 362.50,450.99C374.60,450.43 400.48,449.10 420.00,448.03C439.52,446.96 464.95,445.62 476.50,445.07C488.05,444.51 503.72,443.76 511.32,443.39C521.26,442.91 525.54,442.32 526.57,441.29C527.36,440.50 527.99,438.88 527.98,437.68C527.98,436.48 527.61,434.93 527.17,434.24C526.54,433.26 524.28,433.19 516.93,433.93C511.75,434.46 498.27,435.38 487.00,435.98C475.73,436.58 455.02,437.74 441.00,438.56C426.98,439.38 405.60,440.69 393.50,441.47C381.40,442.26 357.10,443.42 339.50,444.07C321.90,444.71 300.52,445.03 292.00,444.77C277.34,444.33 275.42,444.03 256.56,439.15C245.59,436.31 236.23,434.37 235.76,434.84C235.29,435.31 237.52,436.70 240.71,437.95C243.89,439.19 254.15,442.89 263.50,446.17C272.85,449.45 282.98,452.50 286.00,452.94C289.02,453.39 293.30,453.80 295.50,453.86zM332.50,437.67C335.78,437.53 336.50,437.14 336.50,435.50C336.50,433.95 335.72,433.43 333.07,433.17C331.18,432.99 328.11,433.13 326.25,433.48C324.33,433.84 323.04,434.62 323.26,435.28C323.47,435.92 324.74,436.76 326.07,437.15C327.41,437.53 330.30,437.77 332.50,437.67zM348.53,438.00C349.13,438.00 350.45,437.39 351.46,436.65C352.48,435.91 352.99,434.79 352.59,434.15C352.20,433.52 349.88,433.00 347.44,433.00C345.00,433.00 343.00,433.42 343.00,433.94C343.00,434.46 344.00,435.59 345.22,436.44C346.44,437.30 347.93,438.00 348.53,438.00zM364.17,436.97C365.64,436.99 367.55,436.73 368.42,436.39C369.29,436.06 370.00,435.44 370.00,435.01C370.00,434.59 368.68,433.70 367.07,433.03C365.40,432.34 362.81,432.10 361.07,432.49C359.38,432.86 358.00,433.55 358.00,434.03C358.00,434.51 358.79,435.36 359.75,435.92C360.71,436.48 362.70,436.95 364.17,436.97zM383.75,434.97C387.19,434.99 390.00,434.64 390.00,434.20C390.00,433.76 389.46,432.86 388.80,432.20C388.14,431.54 385.10,431.01 382.05,431.02C379.00,431.02 375.88,431.42 375.13,431.90C374.02,432.60 374.12,432.98 375.63,433.85C376.66,434.45 380.31,434.95 383.75,434.97zM402.56,434.00C405.49,434.00 408.15,433.57 408.47,433.05C408.79,432.53 408.03,431.55 406.78,430.88C405.53,430.21 402.59,429.67 400.25,429.67C397.91,429.67 395.71,429.96 395.36,430.31C395.00,430.66 395.28,431.64 395.98,432.48C396.82,433.49 399.02,434.00 402.56,434.00zM419.38,432.80C422.24,432.59 423.50,432.04 423.50,431.00C423.50,429.92 422.17,429.41 418.75,429.20C416.14,429.03 414.00,429.10 414.00,429.36C414.00,429.62 414.28,430.57 414.63,431.47C415.10,432.69 416.29,433.03 419.38,432.80zM434.44,432.80C436.29,432.62 437.60,431.86 437.79,430.88C437.98,429.90 437.23,429.03 435.90,428.68C434.69,428.37 432.40,428.37 430.82,428.69C428.04,429.24 428.00,429.34 429.66,431.18C430.81,432.45 432.43,433.00 434.44,432.80zM449.83,431.59C452.22,431.27 454.63,430.73 455.19,430.38C455.84,429.98 455.72,429.43 454.86,428.89C454.11,428.42 451.14,428.02 448.25,428.02C445.36,428.01 443.00,428.36 443.00,428.80C443.00,429.24 443.56,430.18 444.25,430.88C445.08,431.74 446.95,431.98 449.83,431.59zM471.00,431.75C471.82,431.60 472.50,430.83 472.50,430.04C472.50,429.26 471.03,427.75 469.23,426.70C467.44,425.66 465.30,425.05 464.48,425.37C463.67,425.68 463.00,426.41 463.00,426.98C463.00,427.56 464.46,428.93 466.25,430.03C468.04,431.12 470.18,431.90 471.00,431.75zM485.22,429.00C488.75,429.00 490.00,428.62 490.00,427.54C490.00,426.73 489.13,425.60 488.07,425.04C487.00,424.47 483.85,424.00 481.07,424.00C478.28,424.00 476.00,424.42 476.00,424.94C476.00,425.46 477.00,426.59 478.22,427.44C479.48,428.32 482.52,429.00 485.22,429.00zM503.44,428.48C507.32,428.11 510.89,427.43 511.38,426.97C511.86,426.52 510.46,425.66 508.26,425.07C506.07,424.48 502.40,423.92 500.10,423.83C497.81,423.74 495.43,424.17 494.81,424.79C493.98,425.62 494.04,426.34 495.03,427.54C496.15,428.89 497.58,429.05 503.44,428.48zM289.00,424.51C295.88,424.24 313.65,423.34 328.50,422.52C343.35,421.71 368.32,420.35 384.00,419.52C399.68,418.68 421.50,417.52 432.50,416.94C448.94,416.06 452.72,415.58 453.75,414.25C454.44,413.35 455.00,411.56 455.00,410.28C455.00,408.99 454.38,407.70 453.61,407.40C452.85,407.11 436.99,407.59 418.36,408.47C399.74,409.35 376.18,410.48 366.00,410.98C355.82,411.49 332.34,412.45 313.80,413.12C287.69,414.07 279.21,414.08 276.12,413.16C273.94,412.50 271.09,410.71 269.79,409.17C267.52,406.46 267.39,405.31 265.66,372.94C264.68,354.55 263.02,324.88 261.97,307.00C260.92,289.12 259.60,263.93 259.04,251.00C258.44,237.06 258.39,225.97 258.91,223.73C259.40,221.65 260.49,218.91 261.32,217.63C262.16,216.35 264.35,214.61 266.18,213.76C269.04,212.44 280.88,212.13 351.00,211.51C395.82,211.11 451.40,210.48 474.50,210.09C498.58,209.69 517.99,209.78 520.00,210.29C521.92,210.78 524.74,212.36 526.26,213.79C527.77,215.22 529.46,217.99 530.00,219.94C530.54,221.90 531.01,230.93 531.03,240.00C531.06,249.07 531.48,266.62 531.99,279.00C532.49,291.38 533.43,317.95 534.09,338.06C535.12,369.19 535.09,375.05 533.89,377.55C533.11,379.16 531.28,381.06 529.82,381.76C528.09,382.59 516.53,383.54 496.83,384.48C480.15,385.28 462.45,386.19 457.50,386.51C452.55,386.83 429.82,387.95 407.00,389.00C384.18,390.05 349.65,391.69 330.29,392.63C303.71,393.93 294.46,394.08 292.59,393.22C291.22,392.60 289.46,391.06 288.67,389.80C287.55,388.00 286.87,377.67 285.58,342.50C284.67,317.75 283.50,287.15 282.98,274.50C282.46,261.85 281.76,247.59 281.42,242.81C280.83,234.55 280.92,233.99 283.20,231.71C285.59,229.31 285.80,229.29 313.06,228.65C328.15,228.29 377.62,227.50 423.00,226.90C482.53,226.11 506.28,226.11 508.30,226.90C509.98,227.55 511.62,229.29 512.40,231.24C513.39,233.69 514.02,251.20 514.96,302.00C515.67,339.93 516.62,370.00 517.15,370.65C517.66,371.28 518.96,371.56 520.04,371.28C521.41,370.92 522.05,369.83 522.15,367.63C522.24,365.91 522.22,350.10 522.12,332.50C522.01,314.90 521.45,283.18 520.86,262.00C520.27,240.82 519.37,222.71 518.86,221.75C517.98,220.10 512.72,220.01 428.71,220.11C379.65,220.17 324.81,220.50 306.85,220.86C276.11,221.46 274.08,221.62 271.99,223.50C270.77,224.60 269.40,226.47 268.95,227.65C268.49,228.84 268.97,245.92 270.04,266.15C271.09,286.14 272.42,310.38 273.00,320.00C273.58,329.62 274.73,342.90 275.55,349.50C276.37,356.10 277.33,370.65 277.67,381.83C278.28,401.38 278.39,402.21 280.52,403.61C282.47,404.88 287.64,404.87 322.12,403.51C343.78,402.65 374.32,401.29 390.00,400.49C405.68,399.69 427.95,398.57 439.50,398.00C451.05,397.44 475.95,396.08 494.83,394.99C513.72,393.89 530.37,392.70 531.83,392.34C533.30,391.98 535.54,391.01 536.81,390.19C538.08,389.37 540.05,386.86 541.19,384.63C543.25,380.59 543.26,380.22 542.06,344.03C541.40,323.94 540.08,286.24 539.12,260.26C537.40,213.02 537.40,213.02 534.44,208.82C532.74,206.40 529.51,203.59 526.84,202.22C522.20,199.83 522.20,199.83 394.18,200.95C285.93,201.89 265.38,202.29 261.13,203.55C258.32,204.39 255.27,206.11 254.19,207.48C253.14,208.82 251.68,211.36 250.95,213.12C249.86,215.76 249.84,221.86 250.83,247.91C251.49,265.28 252.71,296.82 253.53,318.00C254.36,339.18 255.43,368.72 255.92,383.65C256.65,405.94 257.12,411.44 258.53,414.42C259.47,416.41 261.49,418.93 263.02,420.01C264.54,421.10 268.20,422.67 271.15,423.50C275.17,424.64 279.62,424.89 289.00,424.51zM482.50,413.48C488.55,413.09 494.09,412.30 494.80,411.73C495.55,411.12 495.97,409.16 495.80,407.09C495.50,403.51 495.50,403.51 484.00,403.85C477.68,404.04 471.94,404.65 471.25,405.22C470.56,405.78 470.00,407.69 470.00,409.46C470.00,411.22 470.34,413.01 470.75,413.42C471.16,413.84 476.45,413.86 482.50,413.48zM236.32,393.00C237.08,391.29 237.52,373.57 237.73,337.00C237.89,307.57 237.68,269.78 237.26,253.01C236.50,222.52 236.50,222.52 231.50,221.80C228.06,221.31 226.13,221.46 225.32,222.29C224.42,223.22 224.46,228.77 225.52,246.19C226.27,258.67 227.59,278.02 228.44,289.19C229.30,300.36 230.67,326.60 231.51,347.50C232.34,368.40 233.28,387.07 233.59,389.00C233.90,390.93 234.39,393.18 234.68,394.00C235.07,395.11 235.49,394.86 236.32,393.00zM317.35,379.53C324.03,379.20 353.12,378.03 382.00,376.93C410.88,375.84 450.65,374.09 470.38,373.04C491.81,371.90 506.69,370.71 507.33,370.07C508.08,369.32 508.03,349.57 507.15,302.76C506.47,266.33 505.59,236.19 505.18,235.78C504.78,235.38 477.69,235.48 444.98,236.01C412.26,236.54 365.96,237.46 342.07,238.05C318.18,238.64 297.82,239.56 296.83,240.09C295.84,240.62 294.76,242.09 294.45,243.36C294.09,244.79 294.68,247.03 296.01,249.29C297.95,252.57 298.29,255.60 299.59,280.71C300.38,296.00 301.61,324.04 302.32,343.03C303.03,362.02 303.97,378.14 304.41,378.85C305.02,379.85 307.99,380.00 317.35,379.53zM324.00,250.52C311.07,250.89 300.16,250.85 299.75,250.43C299.34,250.01 299.00,248.69 299.00,247.49C299.00,245.40 299.52,245.28 311.75,244.66C318.76,244.30 329.00,244.06 334.50,244.12C340.00,244.19 345.84,244.52 347.49,244.88C349.13,245.23 350.62,246.26 350.79,247.17C350.97,248.10 350.32,249.05 349.31,249.34C348.31,249.62 336.93,250.15 324.00,250.52zM233.49,214.00C238.87,214.00 239.96,213.70 240.47,212.10C240.80,211.06 243.30,208.12 246.03,205.56C248.77,203.01 251.00,200.65 251.00,200.33C251.00,200.01 247.75,200.06 243.78,200.45C239.81,200.84 235.65,201.63 234.53,202.21C233.41,202.78 231.44,204.21 230.14,205.37C228.85,206.54 227.38,208.55 226.89,209.83C226.39,211.12 226.24,212.58 226.55,213.08C226.86,213.59 229.99,214.00 233.49,214.00zM360.75,187.21C361.70,186.89 362.00,181.33 362.00,163.97C362.00,143.04 361.85,141.12 360.25,140.77C359.29,140.57 357.71,140.58 356.75,140.81C355.16,141.20 355.00,143.00 355.00,160.99C355.00,171.86 355.28,182.13 355.61,183.82C355.95,185.51 356.97,187.06 357.86,187.26C358.76,187.47 360.06,187.44 360.75,187.21zM387.50,186.52C397.38,186.09 403.75,185.40 404.18,184.72C404.55,184.11 404.45,182.84 403.94,181.89C403.15,180.41 401.78,180.24 393.76,180.63C388.67,180.88 382.70,180.71 380.51,180.25C378.15,179.75 376.39,178.77 376.21,177.84C375.99,176.72 376.99,176.10 379.70,175.65C381.79,175.30 386.96,175.02 391.18,175.01C395.41,175.00 400.02,174.56 401.43,174.02C402.96,173.45 404.00,172.27 404.00,171.13C404.00,170.08 403.29,168.94 402.42,168.61C401.55,168.27 395.23,168.00 388.39,168.00C377.89,168.00 375.84,167.75 375.32,166.40C374.99,165.52 375.34,164.40 376.10,163.91C376.87,163.43 380.43,163.02 384.00,163.01C387.57,163.00 393.54,162.70 397.25,162.35C403.86,161.72 404.00,161.65 404.00,158.86C404.00,156.00 404.00,156.00 393.75,155.99C388.11,155.98 381.77,155.69 379.66,155.34C377.55,155.00 375.58,154.08 375.29,153.31C374.99,152.54 375.03,151.64 375.36,151.31C375.69,150.97 382.02,150.42 389.43,150.07C396.83,149.73 403.18,149.15 403.54,148.80C403.90,148.44 404.26,146.65 404.34,144.82C404.50,141.50 404.50,141.50 387.25,141.23C370.00,140.95 370.00,140.95 370.00,163.31C370.00,175.61 370.34,186.02 370.75,186.45C371.16,186.88 378.70,186.91 387.50,186.52z"/>

</svg>