<svg xmlns="http://www.w3.org/2000/svg" xmlns:xlink="http://www.w3.org/1999/xlink" xmlns:svg="http://www.w3.org/2000/svg" xmlns:rdf="http://www.w3.org/1999/02/22-rdf-syntax-ns#" xmlns:cc="http://creativecommons.org/ns#" xmlns:dc="http://purl.org/dc/elements/1.1/" version="1.1" viewBox="0 0 768 768" width="768" height="768">
<style>svg {background-color: white; }</style>"
<metadata id="metadata1">
Created by https://svgstud.io and licensed under CC-BY-SA 4.0 license. Please attribute https://svgstud.io
</metadata>
<metadata id="prompt">
Imagine a sleek website interface that offers AI-powered practice sessions for interview preparation. The system provides intuitive control features, including keyboard shortcuts for starting, pausing, and navigating through practice scenarios. The display shows a clear timeline and interactive feedback, ensuring a smooth and engaging experience. The background features a modern, tech-inspired aesthetic that highlights the system’s efficiency and intelligent design
</metadata>
<metadata id="version">
7
</metadata>
<metadata id="metadata2">
<rdf:RDF>
<cc:Work rdf:about="">
    <cc:license rdf:resource="http://creativecommons.org/licenses/by-sa/4.0/"/>
    <dc:creator>
        <cc:Agent>
            <dc:title>https://svgstud.io</dc:title>
        </cc:Agent>
    </dc:creator>
</cc:Work>
<cc:License rdf:about="http://creativecommons.org/licenses/by-sa/4.0/">
    <cc:permits rdf:resource="http://creativecommons.org/ns#Reproduction"/>
    <cc:permits rdf:resource="http://creativecommons.org/ns#Distribution"/>
    <cc:requires rdf:resource="http://creativecommons.org/ns#Notice"/>
    <cc:requires rdf:resource="http://creativecommons.org/ns#Attribution"/>
    <cc:permits rdf:resource="http://creativecommons.org/ns#DerivativeWorks"/>
    <cc:requires rdf:resource="http://creativecommons.org/ns#ShareAlike"/>
</cc:License>
</rdf:RDF>
</metadata>
<metadata id="uid">
43c8d0a114a731aa3e6e6ab0c3c72c116b9c9eb7ed6e92b5a644901058c3eb12
</metadata>
<path stroke="#1A8850" fill="#1A8850" fill-rule="evenodd" d="M158.10,724.97C157.22,724.96 153.35,723.87 149.50,722.56C145.65,721.24 127.20,713.81 108.50,706.04C89.80,698.27 72.81,690.81 70.75,689.44C67.00,686.97 67.00,686.97 66.97,675.24C66.96,668.78 66.31,635.74 65.54,601.81C64.63,562.12 63.75,539.39 63.05,538.09C62.45,536.98 60.29,535.63 58.23,535.09C56.18,534.55 51.44,533.41 47.71,532.56C43.98,531.71 39.67,530.36 38.14,529.57C36.61,528.78 34.78,527.44 34.08,526.59C33.37,525.74 31.75,522.48 30.47,519.33C28.31,514.01 27.82,513.51 23.59,512.28C19.97,511.22 18.88,510.38 18.33,508.22C17.95,506.73 17.70,504.60 17.77,503.50C17.85,502.40 18.88,500.71 20.07,499.75C21.25,498.79 22.85,498.00 23.61,498.00C24.37,498.00 25.00,498.42 25.00,498.93C25.00,499.45 24.10,500.15 23.00,500.50C21.90,500.85 21.00,501.95 21.00,502.94C21.00,503.94 21.56,505.20 22.25,505.75C22.94,506.30 28.45,507.90 34.50,509.30C40.55,510.71 49.77,512.77 55.00,513.89C60.23,515.01 71.03,517.29 79.00,518.95C86.97,520.62 99.53,523.11 106.89,524.49C116.06,526.21 126.00,527.23 138.39,527.74C148.35,528.14 159.65,528.40 163.50,528.31C167.35,528.23 177.03,527.66 185.00,527.05C192.97,526.44 213.22,525.28 230.00,524.49C246.78,523.69 280.52,522.37 305.00,521.55C329.48,520.73 374.70,519.36 405.50,518.50C436.30,517.65 471.85,516.50 484.50,515.95C497.15,515.40 519.20,514.47 533.50,513.90C547.80,513.32 561.30,513.10 563.50,513.41C565.70,513.72 608.82,513.03 659.31,511.88C709.81,510.73 751.41,510.08 751.75,510.42C752.09,510.76 752.26,513.17 752.13,515.77C752.00,518.37 751.26,521.47 750.48,522.66C749.71,523.85 747.59,525.27 745.79,525.82C743.98,526.37 736.82,527.07 729.89,527.38C722.95,527.69 716.08,528.40 714.61,528.96C713.15,529.51 707.17,534.51 701.34,540.06C695.50,545.61 688.91,551.35 686.70,552.82C683.07,555.22 681.51,555.54 670.91,556.00C664.44,556.29 658.83,556.84 658.44,557.23C658.05,557.62 657.36,566.16 656.90,576.22C656.44,586.27 655.62,618.54 655.08,647.93C654.54,677.32 654.29,701.67 654.52,702.04C654.76,702.41 658.44,703.03 662.72,703.41C667.00,703.78 675.10,704.80 680.73,705.67C686.35,706.53 691.75,707.83 692.73,708.56C694.35,709.76 694.20,710.00 690.93,711.37C688.96,712.20 682.21,713.69 675.93,714.69C666.61,716.16 659.04,716.48 635.00,716.38C618.77,716.31 604.15,715.83 602.50,715.31C600.53,714.68 599.50,713.69 599.50,712.43C599.50,710.93 601.06,709.99 606.50,708.20C610.35,706.93 616.42,705.58 620.00,705.20C626.50,704.50 626.50,704.50 627.14,658.00C627.49,632.42 628.05,599.01 628.39,583.75C629.00,556.00 629.00,556.00 619.75,556.02C614.66,556.03 582.15,557.59 547.50,559.47C512.85,561.35 484.39,562.92 484.25,562.95C484.11,562.98 484.00,564.44 484.00,566.20C484.00,567.95 486.03,581.57 488.51,596.45C490.99,611.33 493.86,627.04 494.90,631.38C496.23,636.92 497.51,639.88 499.22,641.38C500.56,642.54 503.50,645.98 505.76,649.00C508.02,652.02 512.03,656.12 514.68,658.11C517.33,660.09 522.42,663.42 526.00,665.51C529.58,667.59 537.23,670.92 543.00,672.90C551.60,675.85 553.50,676.86 553.50,678.49C553.50,679.69 552.36,681.02 550.60,681.86C548.70,682.78 542.46,683.43 532.53,683.77C524.12,684.05 511.39,683.74 503.93,683.07C496.54,682.41 485.38,681.00 479.12,679.93C472.86,678.87 466.29,678.00 464.52,678.00C462.75,678.00 459.84,678.73 458.06,679.62C456.21,680.54 449.82,681.71 443.28,682.31C434.87,683.10 427.68,683.07 416.63,682.23C408.31,681.59 393.19,679.67 383.04,677.96C372.89,676.25 363.78,674.42 362.79,673.89C361.81,673.36 361.00,672.23 361.00,671.37C361.00,670.52 362.24,668.76 363.75,667.46C365.26,666.16 372.57,661.44 380.00,656.97C387.43,652.50 394.27,648.15 395.21,647.30C396.15,646.45 397.39,644.35 397.97,642.63C398.54,640.89 400.34,638.74 402.00,637.80C404.57,636.34 405.00,635.50 405.00,631.97C405.00,629.70 403.88,614.94 402.50,599.17C401.13,583.40 399.77,569.49 399.48,568.25C399.00,566.15 398.43,566.00 391.23,566.01C386.98,566.01 370.23,566.67 354.00,567.47C337.77,568.28 314.15,569.43 301.50,570.04C288.85,570.65 254.06,572.38 224.19,573.87C179.93,576.08 169.69,576.85 168.87,578.04C168.24,578.97 168.07,588.03 168.43,603.00C168.73,615.92 169.08,647.54 169.20,673.25C169.40,713.21 169.22,720.20 167.96,721.37C167.16,722.12 164.97,723.25 163.10,723.87C161.23,724.49 158.98,724.99 158.10,724.97zM150.63,715.00C152.18,715.00 152.26,713.39 151.66,695.34C151.30,684.53 151.00,668.52 151.00,659.78C151.00,650.99 150.61,644.12 150.13,644.42C149.65,644.72 149.18,648.68 149.09,653.23C149.00,657.78 149.42,672.70 150.01,686.37C150.61,700.05 150.87,711.46 150.60,711.73C150.33,712.01 148.76,711.76 147.11,711.19C144.61,710.32 144.21,710.39 144.69,711.63C145.00,712.45 145.84,712.89 146.55,712.62C147.25,712.35 148.08,712.77 148.39,713.56C148.69,714.35 149.70,715.00 150.63,715.00zM144.75,708.58C145.16,708.17 144.72,707.27 143.76,706.57C142.81,705.87 142.32,705.01 142.68,704.65C143.04,704.29 142.86,704.00 142.28,704.00C141.71,704.00 141.00,703.10 140.71,702.00C140.32,700.52 139.35,700.00 136.97,700.00C134.23,700.00 133.94,700.22 135.00,701.50C136.00,702.71 135.98,703.00 134.87,703.02C133.79,703.03 133.82,703.24 135.00,704.00C136.05,704.67 136.83,704.52 137.61,703.48C138.22,702.67 139.01,702.00 139.36,702.00C139.71,702.00 140.00,702.64 140.00,703.42C140.00,704.20 139.44,705.03 138.75,705.27C138.06,705.50 138.96,706.03 140.75,706.43C142.54,706.83 144.00,707.65 144.00,708.25C144.00,708.84 144.34,709.00 144.75,708.58zM646.15,707.25C646.68,706.72 647.16,680.83 647.28,645.25C647.40,611.65 647.16,583.83 646.75,583.41C646.34,583.00 645.82,582.85 645.60,583.08C645.38,583.31 644.87,611.01 644.46,644.63C644.06,678.25 644.07,706.30 644.48,706.96C644.93,707.70 645.59,707.81 646.15,707.25zM116.25,685.98C117.21,685.99 118.00,685.55 118.00,685.00C118.00,684.45 120.31,684.00 123.12,684.00C127.08,684.00 128.02,683.71 127.26,682.75C126.72,682.06 126.56,679.27 126.89,676.50C127.40,672.34 127.87,671.45 129.69,671.19C131.17,670.98 131.70,670.39 131.32,669.39C130.91,668.33 129.93,668.08 127.95,668.51C126.22,668.89 123.95,668.51 122.02,667.51C120.31,666.62 118.05,666.17 117.00,666.50C115.96,666.83 114.81,668.01 114.46,669.13C114.11,670.24 114.15,671.45 114.55,671.83C114.95,672.20 115.47,671.94 115.72,671.25C115.97,670.56 116.58,670.00 117.08,670.00C117.59,670.00 118.00,670.90 118.00,672.00C118.00,673.15 118.67,674.00 119.57,674.00C120.44,674.00 121.79,674.64 122.57,675.43C123.36,676.21 124.00,678.01 124.00,679.43C124.00,681.60 123.55,682.00 121.08,682.00C119.48,682.00 118.02,681.55 117.83,681.01C117.61,680.36 116.25,680.37 113.86,681.03C111.86,681.58 109.61,682.78 108.86,683.69C107.66,685.15 107.75,685.28 109.64,684.80C110.82,684.49 112.39,684.63 113.14,685.11C113.89,685.58 115.29,685.98 116.25,685.98zM523.40,675.49C527.20,675.27 530.77,674.63 531.34,674.06C531.90,673.50 532.17,672.84 531.93,672.61C531.70,672.38 526.35,668.76 520.05,664.57C508.61,656.95 508.61,656.95 506.55,659.02C504.50,661.09 504.50,661.09 507.00,663.01C508.38,664.07 512.26,666.30 515.62,667.97C518.99,669.64 522.68,671.00 523.81,671.00C524.95,671.00 526.20,671.51 526.58,672.14C527.09,672.95 525.74,673.14 521.83,672.82C518.61,672.55 513.61,671.07 509.60,669.20C504.33,666.73 502.40,666.25 500.91,667.05C499.86,667.61 499.00,668.49 499.00,669.01C499.00,669.53 500.01,670.58 501.25,671.34C502.49,672.11 505.52,673.23 508.00,673.83C510.48,674.44 513.40,675.15 514.50,675.41C515.60,675.68 519.61,675.71 523.40,675.49zM435.78,674.89C444.39,674.98 446.16,674.74 446.68,673.38C447.02,672.50 446.11,669.35 444.66,666.38C442.02,661.00 442.02,661.00 433.26,661.02C428.44,661.02 424.05,661.36 423.50,661.77C422.95,662.17 422.51,663.49 422.53,664.70C422.55,665.90 422.92,667.25 423.36,667.69C423.80,668.13 426.71,668.73 429.83,669.03C435.50,669.57 435.50,669.57 428.23,670.88C420.97,672.19 420.97,672.19 416.23,669.25C413.63,667.63 408.76,665.52 405.42,664.55C399.40,662.80 399.30,662.81 394.99,665.00C391.48,666.80 390.95,667.39 392.24,668.12C393.12,668.61 397.37,669.74 401.67,670.63C405.98,671.53 413.10,672.82 417.50,673.51C421.90,674.20 430.13,674.82 435.78,674.89zM467.13,670.92C467.47,670.96 468.19,670.44 468.71,669.75C469.24,669.06 470.25,662.88 470.96,656.02C471.71,648.78 472.88,642.59 473.73,641.29C474.66,639.87 475.05,637.46 474.80,634.77C474.58,632.42 472.45,622.17 470.07,612.00C467.69,601.83 465.29,592.26 464.75,590.75C464.20,589.24 463.41,588.00 462.99,588.00C462.56,588.00 461.92,588.76 461.56,589.70C461.20,590.63 460.49,595.69 459.98,600.95C459.47,606.20 459.04,623.65 459.03,639.73C459.00,668.96 459.00,668.96 461.75,669.57C463.26,669.90 464.95,670.33 465.50,670.51C466.05,670.69 466.78,670.88 467.13,670.92zM386.14,666.82C386.49,666.92 390.77,664.32 395.64,661.05C400.51,657.78 406.43,653.73 408.79,652.05C411.15,650.37 414.68,648.33 416.63,647.51C419.79,646.19 420.01,645.87 418.66,644.51C417.61,643.47 415.11,643.00 410.64,643.00C404.16,643.00 404.09,643.03 397.81,648.56C394.34,651.63 388.01,656.46 383.75,659.30C379.49,662.15 376.00,664.79 376.00,665.18C376.00,665.57 378.14,666.06 380.75,666.26C383.36,666.47 385.79,666.72 386.14,666.82zM444.12,660.00C444.80,660.00 444.98,659.13 444.59,657.75C444.23,656.51 443.52,648.98 443.00,641.00C442.48,633.02 442.04,613.37 442.03,597.33C442.01,581.29 441.73,567.45 441.39,566.58C440.94,565.40 439.36,565.00 435.09,565.00C431.96,565.00 428.86,565.54 428.20,566.20C427.38,567.02 427.00,571.87 427.00,581.52C427.00,589.29 427.69,602.81 428.54,611.57C429.38,620.33 430.55,628.71 431.13,630.19C431.74,631.73 433.42,633.30 435.09,633.88C437.66,634.78 438.00,635.37 438.00,638.95C438.00,642.51 437.72,643.00 435.69,643.00C434.43,643.00 430.57,643.95 427.12,645.12C422.97,646.52 419.35,648.65 416.41,651.43C413.96,653.74 412.27,655.94 412.65,656.32C413.03,656.69 415.40,656.96 417.92,656.90C421.35,656.83 421.89,656.63 420.07,656.12C418.74,655.75 417.46,654.89 417.24,654.22C417.02,653.55 417.43,652.94 418.17,652.86C418.90,652.79 423.55,652.68 428.50,652.61C437.50,652.50 437.50,652.50 437.26,648.00C437.02,643.50 437.02,643.50 438.37,647.63C439.11,649.90 440.46,652.81 441.36,654.10C442.26,655.39 443.00,657.24 443.00,658.22C443.00,659.20 443.50,660.00 444.12,660.00zM433.81,658.97C441.46,658.94 442.28,658.77 440.66,657.54C439.64,656.77 437.08,655.85 434.95,655.49C432.67,655.11 429.66,655.35 427.60,656.10C425.68,656.80 424.33,657.73 424.61,658.18C424.89,658.63 429.03,658.99 433.81,658.97zM204.00,515.86C198.78,515.79 191.98,515.41 188.89,515.02C185.81,514.62 182.79,513.99 182.18,513.61C181.57,513.23 175.23,511.41 168.09,509.56C155.40,506.27 155.08,506.24 153.81,508.13C152.73,509.72 150.61,510.23 142.00,511.00C136.22,511.51 128.57,511.95 125.00,511.97C121.42,511.99 111.11,510.57 102.07,508.82C91.10,506.70 85.06,505.06 83.90,503.90C82.80,502.80 82.36,501.33 82.72,499.96C83.25,497.92 83.71,497.82 89.40,498.38C95.12,498.95 95.31,498.91 92.50,497.63C89.50,496.26 89.50,496.26 93.11,495.55C95.47,495.08 99.92,495.52 105.93,496.83C112.74,498.30 115.96,498.57 118.32,497.87C120.07,497.35 129.82,496.91 140.00,496.89C150.18,496.87 163.00,496.91 168.50,496.98C174.00,497.05 181.20,497.26 184.50,497.44C187.80,497.62 191.26,498.09 192.20,498.47C193.13,498.86 196.28,498.51 199.20,497.69C202.11,496.88 207.57,496.14 211.33,496.05C215.08,495.96 220.59,496.39 223.56,497.01C226.54,497.63 229.54,497.77 230.24,497.33C230.93,496.88 236.00,496.38 241.50,496.22C247.00,496.06 253.42,495.96 255.78,496.01C258.13,496.05 260.54,495.78 261.13,495.42C261.73,495.05 270.38,494.58 280.36,494.37C290.34,494.16 306.38,493.77 316.00,493.50C325.62,493.24 334.06,493.02 334.75,493.01C335.44,493.01 336.56,493.04 337.25,493.08C337.94,493.13 344.78,492.90 352.45,492.58C360.13,492.26 366.84,491.56 367.37,491.03C367.98,490.42 367.27,489.67 365.41,488.97C363.81,488.36 361.70,487.13 360.71,486.24C359.51,485.15 357.07,484.62 353.21,484.62C350.07,484.61 334.68,484.88 319.00,485.21C303.32,485.54 286.90,486.30 282.50,486.90C278.10,487.49 265.95,488.22 255.50,488.50C245.05,488.79 230.65,489.25 223.50,489.52C216.35,489.79 209.38,490.43 208.00,490.94C206.62,491.45 203.03,492.11 200.00,492.41C196.97,492.71 185.05,492.98 173.50,493.03C161.95,493.07 142.15,492.66 129.50,492.11C113.42,491.42 101.08,491.46 88.50,492.24C78.60,492.84 68.92,493.04 67.00,492.67C65.08,492.30 61.25,490.29 58.50,488.21C55.75,486.12 52.38,482.41 51.00,479.96C48.77,475.99 48.51,474.41 48.59,465.50C48.65,459.76 49.62,450.60 50.88,444.00C52.09,437.68 55.36,424.13 58.14,413.91C63.21,395.32 63.21,395.32 60.04,388.09C58.30,384.12 55.95,377.22 54.82,372.75C53.16,366.20 52.85,362.48 53.20,353.56C53.55,344.98 54.14,341.39 55.86,337.54C57.08,334.81 58.85,331.70 59.79,330.64C60.73,329.57 63.43,327.46 65.78,325.95C68.28,324.35 71.67,320.72 73.91,317.26C76.02,313.99 79.27,310.39 81.13,309.25C82.98,308.12 88.55,305.40 93.50,303.21C98.45,301.03 106.24,297.65 110.82,295.70C115.39,293.75 121.65,290.66 124.71,288.83C127.78,287.00 132.74,283.28 135.73,280.58C138.72,277.87 142.94,273.03 145.12,269.83C147.29,266.62 149.43,264.00 149.86,264.00C150.29,264.00 152.57,261.64 154.93,258.75C159.10,253.63 159.19,253.37 158.57,248.03C158.20,244.90 156.51,239.74 154.63,236.03C152.81,232.44 149.44,226.04 147.13,221.80C144.43,216.85 142.24,210.97 140.98,205.30C139.91,200.46 138.75,192.90 138.42,188.50C137.99,182.98 138.28,178.26 139.35,173.26C140.19,169.28 142.33,162.98 144.09,159.26C146.38,154.44 149.35,150.49 154.45,145.50C158.38,141.65 164.06,137.05 167.07,135.27C170.08,133.49 176.09,131.13 180.43,130.02C185.94,128.61 191.51,128.01 198.91,128.02C204.73,128.03 212.64,128.70 216.48,129.51C220.32,130.33 225.79,132.13 228.64,133.53C231.49,134.92 235.56,137.74 237.68,139.80C240.50,142.54 242.68,146.38 245.75,154.03C248.07,159.79 250.43,166.92 250.99,169.89C251.54,172.85 252.00,178.81 252.00,183.12C252.00,190.97 252.00,190.97 256.02,193.63C259.23,195.75 259.91,196.72 259.41,198.40C259.06,199.55 257.40,203.65 255.72,207.50C254.05,211.35 252.31,216.07 251.88,218.00C251.44,219.93 248.56,228.70 245.47,237.50C242.39,246.30 239.27,255.75 238.54,258.50C237.81,261.25 236.89,264.30 236.49,265.29C236.09,266.27 234.48,267.73 232.93,268.54C231.23,269.42 227.28,270.00 223.05,270.00C216.00,270.00 216.00,270.00 216.00,275.49C216.00,280.38 216.51,281.72 220.62,287.73C223.16,291.44 226.72,295.49 228.53,296.72C230.34,297.95 235.80,300.93 240.66,303.35C245.52,305.76 253.10,309.16 257.50,310.90C261.90,312.64 267.29,315.07 269.47,316.30C271.65,317.53 274.47,320.06 275.73,321.93C276.99,323.79 278.68,327.57 279.50,330.31C280.31,333.05 281.64,338.49 282.44,342.40C283.24,346.30 284.39,355.35 284.99,362.50C285.59,369.65 286.93,379.10 287.97,383.50C289.00,387.90 291.42,395.77 293.33,401.00C295.24,406.23 297.77,412.62 298.94,415.22C300.11,417.82 302.92,423.22 305.19,427.22C307.46,431.22 310.48,435.77 311.91,437.33C313.33,438.88 318.10,442.11 322.50,444.51C326.90,446.91 333.88,449.97 338.00,451.32C342.12,452.67 349.32,454.31 354.00,454.97C358.68,455.62 363.10,456.35 363.83,456.58C364.72,456.86 364.18,457.82 362.21,459.48C360.59,460.84 359.00,463.27 358.68,464.86C358.36,466.46 358.52,469.30 359.04,471.18C359.56,473.06 360.62,475.47 361.41,476.54C362.19,477.62 363.18,478.15 363.60,477.73C364.03,477.31 364.69,474.25 365.08,470.94C365.47,467.63 366.35,463.58 367.02,461.95C367.75,460.20 369.26,458.72 370.69,458.36C372.02,458.03 377.03,458.25 381.81,458.86C386.59,459.47 398.35,460.66 407.94,461.50C421.95,462.73 426.40,463.49 430.54,465.39C433.38,466.69 438.94,470.81 442.91,474.55C448.93,480.23 449.85,481.51 448.48,482.27C447.57,482.78 445.29,482.90 443.40,482.55C441.51,482.19 440.03,482.26 440.10,482.70C440.18,483.14 440.18,484.01 440.12,484.62C440.05,485.24 438.59,486.03 436.86,486.38C435.06,486.74 433.14,486.53 432.37,485.89C431.57,485.22 429.60,485.04 427.51,485.43C425.58,485.79 424.00,486.50 424.00,487.00C424.00,487.50 425.46,488.13 427.25,488.41C429.04,488.69 432.62,489.18 435.21,489.51C437.80,489.84 445.20,491.88 451.65,494.05C458.10,496.22 463.73,498.55 464.17,499.24C464.61,499.94 464.98,501.24 464.98,502.14C464.99,503.05 464.32,504.05 463.48,504.37C462.64,504.69 450.83,505.61 437.23,506.41C423.63,507.21 404.18,508.15 394.00,508.48C383.82,508.82 366.05,509.52 354.50,510.03C342.95,510.55 317.52,511.65 298.00,512.48C278.48,513.31 251.47,514.43 238.00,514.98C224.53,515.53 209.22,515.93 204.00,515.86zM528.50,505.63C520.25,505.71 504.05,505.20 492.50,504.50C480.95,503.81 470.69,502.90 469.71,502.49C468.72,502.09 468.10,501.25 468.32,500.63C468.54,500.01 469.57,499.62 470.61,499.77C471.65,499.91 474.75,500.46 477.50,500.99C480.25,501.52 496.00,502.25 512.50,502.61C542.50,503.27 542.50,503.27 554.00,497.22C560.33,493.90 567.57,490.01 570.10,488.59C572.63,487.16 577.32,485.10 580.51,484.00C583.70,482.90 587.21,482.00 588.31,482.00C590.20,482.00 590.22,482.10 588.62,483.86C587.70,484.89 583.46,486.73 579.22,487.96C574.97,489.18 568.93,491.74 565.78,493.64C562.63,495.53 556.33,498.98 551.78,501.29C543.50,505.50 543.50,505.50 528.50,505.63zM378.39,495.00C381.35,495.00 382.00,494.63 382.00,492.98C382.00,491.79 380.97,490.49 379.50,489.82C378.12,489.19 376.81,488.86 376.58,489.09C376.35,489.32 375.85,490.74 375.47,492.25C374.82,494.87 374.96,495.00 378.39,495.00zM392.81,493.98C394.27,493.97 394.29,493.84 393.00,493.00C391.72,492.17 391.75,492.03 393.25,492.02C394.21,492.01 395.00,491.55 395.00,491.00C395.00,490.45 393.65,490.00 392.00,490.00C390.35,490.00 389.00,489.49 389.00,488.86C389.00,488.23 389.79,487.12 390.75,486.39C391.71,485.66 393.74,485.05 395.25,485.03C396.87,485.01 397.90,485.49 397.75,486.19C397.59,486.95 398.97,487.42 401.50,487.48C403.70,487.53 406.06,487.40 406.75,487.18C407.44,486.96 408.00,486.45 408.00,486.04C408.00,485.64 406.21,484.50 404.02,483.51C400.60,481.97 398.47,481.81 388.91,482.42C382.79,482.80 376.18,483.66 374.22,484.31C372.26,484.96 370.47,486.06 370.24,486.75C369.94,487.68 371.91,488.00 377.98,488.00C383.16,488.00 385.89,488.36 385.50,489.00C385.16,489.55 385.99,490.43 387.34,490.94C388.70,491.46 390.10,492.35 390.46,492.94C390.82,493.52 391.88,493.99 392.81,493.98zM204.30,483.14C205.21,482.39 206.41,480.16 206.96,478.17C207.64,475.74 207.63,474.23 206.94,473.54C206.24,472.84 205.62,472.99 204.97,474.01C204.45,474.83 204.02,476.70 204.02,478.17C204.01,479.64 203.69,481.66 203.31,482.67C202.71,484.27 202.83,484.33 204.30,483.14zM530.64,483.87C528.91,483.80 524.42,483.38 520.66,482.94C516.89,482.50 513.62,481.95 513.38,481.71C513.14,481.47 513.25,464.51 513.63,444.02C514.33,406.76 514.33,406.76 534.39,407.49C545.43,407.89 555.50,408.62 556.77,409.10C558.68,409.83 558.90,410.31 558.04,411.92C557.47,412.99 557.00,415.68 557.00,417.90C557.00,421.01 556.51,422.19 554.84,423.09C553.51,423.80 550.04,424.06 545.85,423.76C542.10,423.49 538.34,422.69 537.49,421.99C536.64,421.29 535.63,421.04 535.23,421.44C534.83,421.84 534.34,436.08 534.14,453.08C533.79,484.00 533.79,484.00 530.64,483.87zM84.20,481.79C89.91,482.00 89.91,482.00 91.79,477.75C92.83,475.41 95.53,471.83 97.79,469.79C100.06,467.75 103.80,465.12 106.11,463.94C109.34,462.29 113.23,461.60 122.91,460.94C129.83,460.46 141.66,460.06 149.19,460.04C156.72,460.02 163.15,459.57 163.47,459.05C163.79,458.53 162.58,457.86 160.78,457.57C158.98,457.28 148.87,456.33 138.33,455.47C127.78,454.61 117.76,453.51 116.07,453.02C114.37,452.53 109.50,451.63 105.24,451.00C100.98,450.38 94.91,449.17 91.75,448.30C86.24,446.80 85.78,446.83 80.86,448.87C78.04,450.04 75.01,450.98 74.12,450.96C73.04,450.93 73.75,449.81 76.28,447.58C79.32,444.89 79.74,444.12 78.45,443.62C77.56,443.28 75.32,443.00 73.48,443.00C71.63,443.00 69.89,442.62 69.60,442.16C69.32,441.71 70.66,440.58 72.58,439.66C74.97,438.52 78.69,438.00 84.42,438.00C92.25,438.00 92.80,437.86 93.32,435.75C93.62,434.51 95.48,428.32 97.44,422.00C99.40,415.68 102.30,404.20 103.88,396.50C105.46,388.80 107.31,375.30 107.98,366.50C109.21,350.58 109.20,350.44 106.56,339.50C105.11,333.45 102.47,325.81 100.71,322.52C98.87,319.10 96.05,315.58 94.10,314.27C92.02,312.88 89.20,312.00 86.81,312.00C83.98,312.00 82.22,312.69 80.40,314.51C79.02,315.89 77.16,318.70 76.28,320.76C74.98,323.77 74.64,328.62 74.52,345.50C74.39,366.31 74.35,366.67 70.20,385.00C67.90,395.18 63.75,411.82 60.98,422.00C58.21,432.18 55.01,445.68 53.87,452.00C52.53,459.38 51.96,465.74 52.28,469.75C52.55,473.19 53.50,477.11 54.39,478.47C55.92,480.81 56.56,480.95 67.25,481.25C73.44,481.43 81.07,481.67 84.20,481.79zM172.66,482.00C173.33,482.00 174.23,481.44 174.65,480.75C175.08,480.06 175.74,476.86 176.12,473.64C176.69,468.74 177.40,467.18 180.40,464.10C182.38,462.07 184.00,460.10 184.00,459.71C184.00,459.32 182.72,459.00 181.15,459.00C179.58,459.00 176.77,460.02 174.90,461.26C173.03,462.50 170.49,465.52 169.25,467.97C168.01,470.42 167.00,473.88 167.00,475.66C167.00,477.86 167.71,479.38 169.22,480.44C170.44,481.30 171.99,482.00 172.66,482.00zM312.69,469.88C317.20,469.95 321.13,469.60 321.43,469.12C321.73,468.63 326.59,468.41 332.24,468.62C337.88,468.83 345.11,469.22 348.31,469.49C354.11,469.98 354.11,469.98 355.58,466.24C356.39,464.18 357.48,461.73 358.00,460.80C358.53,459.86 358.60,458.87 358.17,458.61C357.74,458.34 354.94,457.83 351.94,457.48C348.95,457.12 344.93,456.26 343.00,455.56C341.07,454.85 338.94,454.48 338.25,454.72C337.56,454.97 337.00,454.77 337.00,454.28C337.00,453.79 333.74,451.90 329.75,450.07C325.76,448.25 318.99,445.14 314.70,443.16C310.41,441.18 306.14,438.70 305.20,437.66C304.27,436.62 302.53,435.40 301.35,434.95C299.84,434.37 298.55,432.13 296.96,427.31C295.73,423.57 292.14,413.72 288.98,405.44C285.83,397.15 282.24,386.13 281.00,380.94C279.48,374.56 278.49,366.15 277.93,355.00C277.48,345.93 276.41,335.89 275.56,332.70C274.70,329.51 273.35,325.65 272.57,324.13C271.78,322.60 270.42,320.76 269.54,320.03C268.67,319.31 267.67,318.99 267.33,319.34C266.99,319.68 267.33,323.45 268.10,327.73C268.88,332.12 269.46,341.80 269.43,350.00C269.41,357.98 269.02,371.25 268.57,379.50C267.86,392.50 268.03,396.23 269.84,407.50C270.98,414.65 272.22,424.43 272.60,429.24C273.01,434.52 273.80,438.42 274.60,439.08C275.33,439.69 277.74,440.42 279.96,440.72C282.18,441.02 284.00,441.65 284.00,442.13C284.00,442.60 282.37,444.80 280.38,447.01C277.75,449.91 276.62,452.20 276.27,455.30C275.94,458.19 276.23,459.93 277.14,460.66C277.89,461.25 282.14,463.17 286.58,464.93C291.02,466.68 296.87,468.49 299.58,468.94C302.29,469.39 308.19,469.82 312.69,469.88zM268.75,467.98C271.67,467.99 273.00,467.58 273.00,466.65C273.00,465.90 270.95,460.40 268.44,454.41C265.93,448.42 262.07,441.12 259.86,438.20C257.43,434.98 255.22,433.00 254.25,433.19C253.17,433.40 251.75,436.60 249.88,443.00C248.36,448.23 247.09,454.37 247.06,456.65C247.01,460.29 247.34,460.93 249.75,461.84C251.26,462.40 255.20,464.01 258.50,465.41C261.80,466.81 266.41,467.96 268.75,467.98zM110.50,448.55C111.05,448.44 111.62,447.03 111.77,445.42C111.92,443.82 111.25,439.35 110.27,435.50C109.30,431.65 108.07,428.58 107.54,428.68C107.01,428.79 105.35,432.82 103.84,437.65C102.34,442.48 101.30,446.63 101.54,446.87C101.78,447.11 103.67,447.64 105.74,448.03C107.81,448.43 109.95,448.67 110.50,448.55zM199.80,419.73C200.00,418.75 198.73,412.23 196.98,405.23C195.23,398.23 191.64,386.62 189.00,379.43C186.36,372.25 178.95,354.02 172.53,338.93C166.11,323.84 158.89,307.83 156.47,303.34C154.06,298.86 151.22,291.66 150.15,287.34C149.09,283.03 147.92,278.22 147.57,276.66C147.03,274.31 146.67,274.03 145.46,275.03C144.66,275.70 142.20,278.94 140.00,282.23C136.76,287.09 136.00,289.11 136.02,292.86C136.02,295.41 136.46,298.18 136.98,299.00C137.66,300.08 139.74,300.50 144.45,300.50C150.17,300.50 150.91,300.71 150.43,302.22C150.13,303.17 147.47,306.42 144.51,309.45C139.13,314.95 139.13,314.95 150.89,332.73C157.36,342.50 165.35,354.77 168.65,360.00C171.96,365.23 177.15,373.77 180.20,379.00C183.25,384.23 187.34,391.68 189.29,395.56C191.24,399.44 194.32,406.86 196.14,412.06C197.96,417.25 199.61,420.70 199.80,419.73zM655.59,412.65C649.49,412.74 636.17,412.19 626.00,411.44C615.83,410.69 597.38,409.39 585.00,408.56C572.62,407.73 552.83,406.58 541.00,406.01C529.17,405.44 501.95,404.08 480.50,403.00C459.05,401.92 430.02,400.57 416.00,400.00C401.98,399.42 388.58,398.71 386.23,398.41C383.83,398.11 380.77,396.85 379.23,395.52C376.50,393.17 376.50,393.17 376.60,277.14C376.69,170.66 376.83,160.90 378.36,158.57C379.28,157.17 381.03,155.37 382.26,154.57C383.75,153.59 390.71,152.59 403.00,151.58C413.18,150.75 435.45,149.11 452.50,147.94C473.27,146.53 487.46,146.03 495.50,146.45C502.10,146.79 514.92,147.79 524.00,148.66C536.59,149.87 546.78,150.11 567.00,149.67C582.65,149.33 592.48,149.46 591.00,149.97C589.62,150.46 580.17,151.57 570.00,152.45C559.83,153.32 542.05,154.93 530.50,156.01C518.95,157.09 500.73,158.90 490.00,160.03C479.27,161.16 465.39,162.47 459.16,162.94C452.92,163.41 447.44,164.17 446.99,164.64C446.54,165.12 445.85,202.81 445.45,248.41C444.74,329.49 444.76,331.30 446.61,330.41C447.69,329.89 482.16,329.45 527.00,329.37C570.17,329.31 608.35,329.48 611.84,329.75C616.51,330.12 618.88,330.86 620.84,332.54C623.50,334.82 623.50,334.82 623.81,355.31C624.05,371.67 623.81,376.51 622.63,379.34C621.47,382.11 620.43,383.02 617.83,383.50C616.00,383.84 599.42,383.44 581.00,382.61C562.58,381.78 540.08,380.84 531.00,380.53C521.92,380.22 502.71,379.45 488.29,378.83C466.44,377.88 461.81,377.91 460.45,379.04C459.30,380.00 456.37,380.33 450.65,380.15C444.87,379.97 442.17,379.47 441.37,378.42C440.38,377.13 440.15,377.15 439.60,378.61C439.02,380.12 436.89,380.21 415.73,379.54C402.95,379.14 391.96,378.37 391.31,377.83C390.65,377.29 389.96,375.42 389.77,373.68C389.50,371.18 389.25,371.75 388.59,376.33C388.05,380.05 388.12,382.52 388.76,383.16C389.32,383.72 396.46,384.57 404.64,385.06C412.81,385.55 427.15,386.41 436.50,386.97C445.85,387.54 460.93,388.43 470.00,388.97C479.07,389.50 497.07,390.42 510.00,391.02C522.92,391.62 538.02,392.54 543.54,393.06C549.06,393.58 562.74,395.56 573.94,397.47C586.71,399.64 605.98,401.92 625.63,403.58C642.86,405.04 657.64,405.97 658.48,405.65C659.83,405.13 660.00,389.88 660.00,268.03C660.00,132.33 659.98,130.98 658.00,129.00C656.90,127.90 656.39,127.00 656.86,127.00C657.34,127.00 660.60,128.30 664.11,129.90C667.63,131.49 671.40,133.79 672.50,135.00C674.43,137.13 674.52,139.00 675.00,190.35C675.50,243.50 675.50,243.50 680.50,243.40C683.25,243.35 685.73,243.58 686.00,243.91C686.27,244.24 689.32,246.38 692.76,248.66C696.27,250.98 701.33,253.31 704.26,253.96C707.14,254.60 710.40,255.30 711.50,255.54C712.60,255.77 714.80,257.01 716.40,258.30C718.83,260.27 719.32,261.43 719.40,265.41C719.49,269.49 719.08,270.53 716.60,272.67C714.31,274.64 713.01,275.04 710.46,274.56C708.06,274.11 707.08,274.35 706.63,275.52C706.30,276.38 704.44,277.76 702.49,278.57C699.83,279.68 698.45,279.78 696.93,278.96C695.81,278.36 693.69,278.02 692.20,278.19C689.50,278.50 689.50,278.50 689.50,340.50C689.50,374.60 689.14,403.06 688.69,403.75C688.22,404.47 685.79,405.00 682.93,405.00C678.87,405.00 676.95,405.68 672.33,408.75C666.71,412.48 666.63,412.50 655.59,412.65zM201.62,408.00C201.88,408.00 201.94,387.63 201.75,362.73C201.56,337.83 201.02,316.79 200.55,315.98C200.08,315.17 198.79,313.49 197.68,312.25C196.56,311.01 194.63,310.00 193.38,310.00C192.14,310.00 190.84,310.45 190.50,311.00C190.16,311.55 189.05,312.00 188.02,312.00C187.00,312.00 181.51,309.26 175.83,305.91C170.15,302.56 165.36,299.43 165.18,298.95C165.00,298.47 163.29,297.11 161.38,295.92C159.46,294.74 157.60,294.07 157.24,294.43C156.87,294.79 158.66,299.01 161.21,303.80C163.76,308.58 168.09,317.68 170.83,324.00C173.58,330.32 179.41,344.50 183.80,355.50C188.19,366.50 193.60,381.35 195.82,388.50C198.04,395.65 200.15,402.96 200.51,404.75C200.86,406.54 201.37,408.00 201.62,408.00zM676.21,400.00C676.70,400.00 676.96,397.22 676.80,393.83C676.61,390.01 676.02,387.50 675.25,387.25C674.34,386.95 674.00,388.46 674.00,392.75C674.00,396.00 674.30,398.97 674.67,399.33C675.03,399.70 675.73,400.00 676.21,400.00zM175.25,388.87C175.66,388.94 176.00,388.19 176.00,387.21C176.00,386.22 173.70,381.38 170.89,376.46C168.08,371.53 159.27,357.75 151.31,345.83C143.34,333.91 135.97,323.37 134.91,322.42C133.86,321.47 133.00,319.45 133.00,317.94C133.00,315.90 134.30,314.02 138.00,310.69C140.75,308.22 143.00,305.96 143.00,305.68C143.00,305.40 140.67,304.67 137.82,304.05C134.97,303.44 132.09,302.49 131.42,301.93C130.58,301.24 130.37,299.01 130.74,294.90C131.29,288.88 131.29,288.88 126.39,291.71C123.70,293.26 117.00,296.63 111.50,299.21C106.00,301.78 99.75,304.59 97.62,305.45C93.73,307.01 93.73,307.01 98.34,311.07C101.31,313.68 104.22,317.69 106.50,322.32C108.45,326.27 112.18,335.57 114.80,343.00C117.48,350.61 121.72,360.13 124.51,364.82C127.24,369.40 131.38,375.08 133.71,377.45C136.04,379.81 139.51,382.49 141.41,383.39C143.31,384.29 148.38,385.48 152.68,386.03C156.98,386.58 163.65,387.41 167.50,387.89C171.35,388.36 174.84,388.80 175.25,388.87zM235.64,384.00C236.46,382.07 237.72,377.97 238.45,374.87C239.17,371.77 239.59,368.17 239.37,366.87C239.15,365.57 239.54,362.34 240.25,359.71C241.52,354.92 241.52,354.92 251.01,354.41C256.23,354.13 260.94,353.46 261.50,352.91C262.05,352.36 262.65,346.90 262.84,340.78C263.03,334.65 262.88,327.19 262.51,324.19C262.02,320.29 261.14,318.11 259.41,316.50C258.08,315.27 252.60,312.59 247.24,310.54C241.88,308.49 235.05,305.29 232.06,303.43C229.07,301.57 226.45,300.22 226.23,300.43C226.02,300.65 226.40,301.88 227.08,303.16C227.76,304.45 229.82,307.48 231.66,309.89C233.50,312.31 235.00,314.91 235.00,315.68C235.00,316.44 234.32,317.32 233.49,317.64C232.66,317.96 231.29,317.66 230.46,316.97C229.63,316.28 228.68,315.99 228.34,316.33C228.00,316.66 228.23,319.54 228.85,322.72C229.47,325.90 230.20,332.32 230.48,337.00C230.75,341.68 231.46,354.27 232.05,365.00C232.64,375.73 233.35,385.18 233.64,386.00C233.98,387.01 234.64,386.35 235.64,384.00zM250.25,364.71C254.79,364.39 259.29,363.83 260.25,363.46C261.39,363.02 262.00,361.72 262.00,359.74C262.00,356.70 262.00,356.70 253.40,357.31C248.67,357.64 244.17,358.44 243.40,359.08C242.63,359.72 242.00,361.38 242.00,362.77C242.00,365.30 242.00,365.30 250.25,364.71zM409.35,344.89C414.47,344.75 418.82,344.17 419.23,343.57C419.73,342.85 419.97,342.91 419.98,343.75C419.99,344.53 421.45,345.00 423.89,345.00C426.43,345.00 427.99,344.48 428.36,343.50C428.82,342.30 427.90,341.97 423.72,341.82C420.85,341.73 414.32,341.57 409.22,341.47C404.12,341.37 399.70,341.67 399.41,342.14C399.12,342.61 399.18,343.48 399.54,344.07C399.95,344.72 403.70,345.04 409.35,344.89zM225.72,339.47C225.92,338.36 225.42,333.33 224.60,328.30C223.79,323.28 222.16,317.27 220.98,314.96C219.55,312.15 218.51,311.09 217.83,311.77C217.16,312.44 217.85,316.33 219.92,323.53C221.61,329.44 223.00,334.64 223.00,335.08C223.00,335.51 223.53,337.14 224.18,338.68C225.21,341.16 225.40,341.25 225.72,339.47zM187.68,307.00C188.43,307.00 190.28,304.92 191.77,302.39C193.27,299.85 196.01,295.77 197.85,293.32C201.04,289.07 201.11,288.80 199.35,287.49C198.33,286.73 193.68,283.96 189.00,281.33C184.32,278.69 176.00,273.57 170.50,269.94C165.00,266.32 159.86,262.15 159.08,260.67C158.30,259.20 157.40,258.00 157.08,258.00C156.76,258.00 155.26,260.21 153.75,262.90C151.83,266.32 151.00,269.22 151.00,272.53C151.00,275.14 151.52,278.99 152.15,281.10C152.78,283.21 154.27,285.85 155.47,286.97C156.67,288.10 160.09,290.52 163.07,292.35C166.06,294.19 172.51,298.23 177.40,301.34C182.30,304.45 186.92,307.00 187.68,307.00zM389.98,257.37C390.80,255.37 391.78,255.21 407.67,254.55C416.93,254.16 428.25,253.48 432.83,253.04C437.42,252.59 441.69,251.71 442.33,251.07C443.19,250.21 443.44,240.40 443.28,214.58C443.15,194.28 442.63,178.16 442.06,176.66C441.49,175.15 440.00,173.79 438.52,173.42C437.04,173.05 435.35,173.30 434.49,174.01C433.23,175.06 433.00,174.77 433.00,172.14C433.00,169.03 433.00,169.03 427.25,169.44C424.09,169.67 415.96,170.17 409.18,170.57C400.06,171.09 396.46,171.68 395.30,172.84C394.32,173.82 394.14,174.55 394.82,174.77C395.49,175.00 395.07,176.70 393.70,179.32C391.66,183.20 391.46,185.23 391.00,208.00C390.50,232.50 390.50,232.50 389.97,212.50C389.50,194.88 389.42,196.48 389.28,226.00C389.19,245.46 389.49,258.61 389.98,257.37zM458.75,227.00C457.24,227.00 456.00,226.61 456.00,226.13C456.00,225.65 462.19,224.98 469.75,224.63C477.31,224.29 493.62,223.79 506.00,223.54C520.57,223.24 526.91,223.39 524.00,223.97C521.52,224.46 506.45,225.34 490.50,225.93C474.55,226.52 460.26,227.00 458.75,227.00zM516.00,211.24C509.12,211.38 499.45,211.28 494.50,211.00C486.15,210.54 486.99,210.41 506.00,209.22C517.27,208.51 537.44,207.27 550.82,206.47C564.20,205.66 577.70,205.01 580.82,205.03C586.50,205.07 586.50,205.07 584.14,207.03C582.22,208.63 580.26,209.00 573.64,209.00C569.16,209.00 557.17,209.45 547.00,209.99C536.83,210.54 522.88,211.10 516.00,211.24zM412.67,192.40C410.95,192.81 410.07,192.70 410.42,192.13C410.75,191.60 410.45,190.98 409.76,190.75C408.77,190.42 408.80,189.97 409.87,188.66C410.63,187.75 412.20,187.01 413.37,187.03C414.54,187.05 416.32,187.69 417.33,188.45C419.11,189.80 419.11,189.87 417.33,190.78C416.32,191.30 414.22,192.03 412.67,192.40zM479.99,191.00C479.58,191.00 478.97,190.00 478.65,188.77C478.33,187.54 478.51,186.09 479.06,185.54C479.71,184.89 480.73,184.97 482.05,185.80C483.70,186.83 484.15,186.78 484.63,185.52C484.95,184.69 486.04,184.00 487.05,184.00C488.06,184.00 489.14,184.41 489.45,184.92C489.76,185.43 489.27,186.58 488.36,187.50C487.45,188.41 485.89,188.94 484.89,188.68C483.89,188.42 482.55,188.84 481.91,189.60C481.28,190.37 480.41,191.00 479.99,191.00zM494.75,190.25C494.06,190.50 492.94,190.51 492.25,190.27C491.56,190.03 491.00,188.77 491.00,187.48C491.00,186.18 491.42,184.86 491.93,184.54C492.44,184.23 493.17,184.47 493.56,185.09C494.05,185.89 494.50,185.82 495.11,184.86C495.70,183.93 495.97,184.50 495.98,186.64C495.99,188.37 495.44,189.99 494.75,190.25zM510.93,188.38C507.87,188.73 505.05,188.72 504.68,188.35C504.31,187.97 504.00,186.17 504.00,184.33C504.00,181.72 504.41,181.00 505.90,181.00C507.12,181.00 508.18,182.08 508.85,184.00C509.43,185.65 510.13,187.00 510.42,187.00C510.71,187.00 511.32,185.56 511.77,183.80C512.60,180.60 512.60,180.60 514.80,182.80C516.97,184.97 517.00,184.97 518.24,182.99C518.92,181.90 520.39,181.03 521.49,181.06C523.34,181.12 523.33,181.20 521.25,182.03C520.01,182.53 519.00,183.31 519.00,183.77C519.00,184.23 519.54,185.14 520.20,185.80C520.86,186.46 521.20,187.04 520.95,187.08C520.70,187.13 519.60,187.29 518.50,187.45C517.40,187.60 513.99,188.02 510.93,188.38zM524.81,186.55C522.44,186.83 522.21,186.62 522.89,184.77C523.32,183.61 524.30,182.56 525.08,182.43C525.86,182.30 527.24,181.89 528.15,181.53C529.06,181.16 530.09,181.34 530.46,181.93C530.82,182.52 531.54,183.00 532.06,183.00C532.58,183.00 532.89,182.49 532.75,181.87C532.61,181.25 533.62,180.63 535.00,180.50C536.38,180.36 538.06,180.70 538.75,181.25C539.60,181.93 540.00,181.89 540.00,181.12C540.00,180.51 540.67,180.00 541.50,180.00C542.33,180.00 543.01,180.56 543.02,181.25C543.03,182.08 543.35,182.00 544.00,181.00C544.74,179.86 544.97,180.28 544.98,182.75C545.00,185.88 544.85,186.00 540.97,186.00C538.18,186.00 536.75,185.50 536.32,184.38C535.80,183.03 535.48,183.16 534.38,185.13C533.66,186.43 533.05,186.97 533.04,186.32C533.01,185.61 531.89,185.28 530.25,185.50C528.74,185.70 527.50,185.94 527.50,186.05C527.50,186.15 526.29,186.37 524.81,186.55zM551.41,184.07C550.24,185.05 550.00,184.56 550.00,181.12C550.00,178.16 550.41,177.00 551.47,177.00C552.28,177.00 552.72,177.56 552.46,178.25C552.12,179.13 553.09,179.45 555.74,179.32C557.81,179.22 559.50,179.09 559.50,179.01C559.50,178.94 561.41,178.69 563.74,178.45C566.08,178.20 568.33,177.95 568.74,177.88C569.16,177.82 570.06,177.82 570.75,177.88C571.44,177.95 572.00,179.10 572.00,180.44C572.00,181.78 571.55,183.16 571.00,183.50C570.45,183.84 569.99,183.30 569.97,182.31C569.94,180.57 569.88,180.57 568.55,182.33C567.23,184.07 567.14,184.04 566.75,181.83C566.35,179.50 566.35,179.50 565.34,181.91C564.41,184.16 564.28,184.19 563.57,182.41C562.84,180.61 562.75,180.63 561.93,182.75C561.45,183.99 560.63,185.00 560.10,185.00C559.57,185.00 558.82,183.99 558.43,182.77C557.72,180.53 557.72,180.53 556.89,182.77C556.44,183.99 555.63,185.00 555.09,185.00C554.56,185.00 553.83,184.53 553.47,183.95C553.03,183.23 552.38,183.27 551.41,184.07z"/>

</svg>